<svg width="46" height="46" viewBox="0 0 46 46" fill="none" xmlns="http://www.w3.org/2000/svg"><path d="M15.46 22.802s6.93-3.029 9.332-4.096c.921-.426 4.045-1.792 4.045-1.792s1.442-.597 1.322.854c-.04.597-.36 2.688-.68 4.95-.482 3.2-1.002 6.698-1.002 6.698s-.08.981-.761 1.152c-.68.17-1.802-.597-2.003-.768-.16-.128-3.003-2.048-4.045-2.987-.28-.256-.6-.768.04-1.365a157.576 157.576 0 004.206-4.267c.48-.512.96-1.707-1.042-.256-2.843 2.09-5.647 4.053-5.647 4.053s-.64.427-1.842.043-2.603-.896-2.603-.896-.962-.64.68-1.323z" fill="#fff"/><g filter="url(#filter0_i_2349_7452)"><rect width="46" height="46" rx="11.5" fill="#fff" fill-opacity=".05"/></g><rect x=".48" y=".48" width="45.041" height="45.041" rx="11.02" stroke="url(#paint0_linear_2349_7452)" stroke-width=".959"/><defs><linearGradient id="paint0_linear_2349_7452" x1="34.793" y1="-22.591" x2="-13.803" y2="-5.776" gradientUnits="userSpaceOnUse"><stop stop-color="#5C78FA"/><stop offset=".15" stop-color="#3A2DDE"/><stop offset=".33" stop-color="#7413BD"/><stop offset=".5" stop-color="#A72579"/><stop offset=".67" stop-color="#C95453"/><stop offset=".83" stop-color="#B16E5C"/><stop offset="1" stop-color="#E0966D"/></linearGradient><filter id="filter0_i_2349_7452" x="0" y="0" width="46" height="46" filterUnits="userSpaceOnUse" color-interpolation-filters="sRGB"><feFlood flood-opacity="0" result="BackgroundImageFix"/><feBlend in="SourceGraphic" in2="BackgroundImageFix" result="shape"/><feColorMatrix in="SourceAlpha" values="0 0 0 0 0 0 0 0 0 0 0 0 0 0 0 0 0 0 127 0" result="hardAlpha"/><feOffset/><feGaussianBlur stdDeviation=".575"/><feComposite in2="hardAlpha" operator="arithmetic" k2="-1" k3="1"/><feColorMatrix values="0 0 0 0 0.641667 0 0 0 0 0.641667 0 0 0 0 0.641667 0 0 0 1 0"/><feBlend in2="shape" result="effect1_innerShadow_2349_7452"/></filter></defs></svg>