<svg width="19" height="12" viewBox="0 0 19 12" fill="none" xmlns="http://www.w3.org/2000/svg"><path fill-rule="evenodd" clip-rule="evenodd" d="M18.454.753c.133-.443 0-.753-.62-.753h-2.067c-.531 0-.768.28-.9.59 0 0-1.049 2.57-2.54 4.223-.487.487-.694.635-.96.635-.132 0-.324-.148-.324-.59V.752c0-.532-.148-.753-.59-.753h-3.25c-.324 0-.531.251-.531.472 0 .502.738.62.827 2.008V5.52c0 .665-.118.783-.384.783-.694 0-2.407-2.569-3.41-5.522C3.499.236 3.307 0 2.776 0H.708C.119 0 0 .28 0 .59c0 .547.694 3.263 3.263 6.85 1.712 2.451 4.119 3.78 6.304 3.78 1.313 0 1.476-.295 1.476-.797v-1.86c0-.59.118-.709.546-.709.31 0 .827.148 2.052 1.329 1.403 1.402 1.639 2.037 2.421 2.037h2.067c.59 0 .886-.295.709-.871-.192-.576-.856-1.417-1.742-2.421-.487-.576-1.21-1.181-1.418-1.491-.31-.399-.22-.576 0-.916 0-.014 2.525-3.558 2.776-4.768z" fill="#fff"/></svg>