<svg width="46" height="46" viewBox="0 0 46 46" fill="none" xmlns="http://www.w3.org/2000/svg"><g filter="url(#filter0_i_2349_7455)"><rect width="46" height="46" rx="11.5" fill="#fff" fill-opacity=".05"/></g><rect x=".48" y=".48" width="45.041" height="45.041" rx="11.02" stroke="url(#paint0_linear_2349_7455)" stroke-width=".959"/><path d="M16.939 29.796a.458.458 0 00.563.551l3.738-.97a8.103 8.103 0 003.442.757c4.51 0 8.18-3.663 8.18-8.167 0-4.502-3.672-8.166-8.182-8.166s-8.18 3.664-8.18 8.166a8.11 8.11 0 001.266 4.366l-.827 3.463zm4.106-11.465l.592-.561a.563.563 0 01.796.02l1.334 1.404a.561.561 0 01-.02.794l-.584.556s-.772.463.846 2.023l.066.07c1.477 1.694 1.981.948 1.981.948l.583-.556a.563.563 0 01.796.021l1.312 1.38a.561.561 0 01-.02.793l-.593.562a1.916 1.916 0 01-1.698.5c-.83-.17-2.071-.757-3.737-2.412.032.037.065.071.097.11l-.202-.21c.034.036.07.068.103.102-1.569-1.744-2.093-3.011-2.22-3.847-.089-.62.116-1.267.568-1.697z" fill="#fff"/><defs><linearGradient id="paint0_linear_2349_7455" x1="34.793" y1="-22.591" x2="-13.803" y2="-5.776" gradientUnits="userSpaceOnUse"><stop stop-color="#5C78FA"/><stop offset=".15" stop-color="#3A2DDE"/><stop offset=".33" stop-color="#7413BD"/><stop offset=".5" stop-color="#A72579"/><stop offset=".67" stop-color="#C95453"/><stop offset=".83" stop-color="#B16E5C"/><stop offset="1" stop-color="#E0966D"/></linearGradient><filter id="filter0_i_2349_7455" x="0" y="0" width="46" height="46" filterUnits="userSpaceOnUse" color-interpolation-filters="sRGB"><feFlood flood-opacity="0" result="BackgroundImageFix"/><feBlend in="SourceGraphic" in2="BackgroundImageFix" result="shape"/><feColorMatrix in="SourceAlpha" values="0 0 0 0 0 0 0 0 0 0 0 0 0 0 0 0 0 0 127 0" result="hardAlpha"/><feOffset/><feGaussianBlur stdDeviation=".575"/><feComposite in2="hardAlpha" operator="arithmetic" k2="-1" k3="1"/><feColorMatrix values="0 0 0 0 0.641667 0 0 0 0 0.641667 0 0 0 0 0.641667 0 0 0 1 0"/><feBlend in2="shape" result="effect1_innerShadow_2349_7455"/></filter></defs></svg>