<svg width="36" height="36" viewBox="0 0 36 36" fill="none" xmlns="http://www.w3.org/2000/svg"><path d="M16.17 5.146h8.821c1.617 0 2.94.735 2.94 2.94v2.94c0 2.206-1.323 2.941-2.94 2.941H16.17c-1.618 0-2.94-.735-2.94-2.94v-2.94c0-2.206 1.322-2.941 2.94-2.941zm-5.881 16.173h8.821c1.617 0 2.94.735 2.94 2.94v2.94c0 2.206-1.323 2.941-2.94 2.941h-8.82c-1.618 0-2.94-.735-2.94-2.94v-2.94c0-2.206 1.322-2.941 2.94-2.941z" fill="#fff"/><path d="M32.342 25.73H22.051m0 0v-1.47m0 1.47v1.47M7.348 25.73h-4.41m4.41 0v1.47m0-1.47v-1.47M32.342 9.556h-4.41m0 0v-1.47m0 1.47v1.47m-14.703-1.47H2.938m10.291 0v1.47m0-1.47v-1.47m8.822 16.172c0-2.205-1.324-2.94-2.94-2.94h-8.822c-1.618 0-2.94.735-2.94 2.94m14.702 0v2.94m0 0c0 2.206-1.324 2.941-2.94 2.941h-8.822c-1.618 0-2.94-.735-2.94-2.94m0 0v-2.94M27.93 8.085c0-2.205-1.323-2.94-2.94-2.94h-8.82c-1.618 0-2.94.735-2.94 2.94m14.701 0v2.94m0 0c0 2.206-1.323 2.941-2.94 2.941H16.17c-1.618 0-2.94-.735-2.94-2.94m0 0v-2.94" stroke="#fff" stroke-width="2.036" stroke-miterlimit="10" stroke-linecap="round" stroke-linejoin="round"/></svg>