<svg width="23" height="23" viewBox="0 0 23 23" fill="none" xmlns="http://www.w3.org/2000/svg"><path d="M21.014 6.478l-3.23 12.967a2.135 2.135 0 01-2.089 1.638H3.103c-1.447 0-2.482-1.418-2.051-2.808L5.086 5.32a2.156 2.156 0 012.051-1.524h11.788c.91 0 1.667.556 1.984 1.322.182.413.22.882.105 1.361z" fill="#fff" stroke="#fff" stroke-width=".719" stroke-miterlimit="10"/><path d="M7.38 11.5h7.667m-8.625 3.833h7.667" stroke="#0F0F0F" stroke-width=".719" stroke-miterlimit="10" stroke-linecap="round" stroke-linejoin="round"/><path d="M15.33 21.084h4.58a2.123 2.123 0 002.119-2.281L21.08 5.75m-11.807.364l.997-4.14m5.424 4.15l.901-4.16" stroke="#fff" stroke-width=".719" stroke-miterlimit="10" stroke-linecap="round" stroke-linejoin="round"/></svg>