<svg width="136" height="136" viewBox="0 0 136 136" fill="none" xmlns="http://www.w3.org/2000/svg"><path d="M23.19 54.523c-.938-.278-1.925.257-2.168 1.203A48.151 48.151 0 1068.666 19.53c-.977-.02-1.757.788-1.74 1.765l.106 6.677c.016.976.821 1.751 1.798 1.781a37.935 37.935 0 11-38.001 28.873c.233-.95-.298-1.933-1.235-2.21l-6.404-1.892z" fill="url(#paint0_linear_1905_1716)"/><path d="M37.505 81.963c-.876.431-1.241 1.494-.766 2.348a34.978 34.978 0 1032.563-51.933c-.975-.056-1.773.735-1.78 1.712l-.044 6.71c-.007.976.78 1.767 1.755 1.844a24.73 24.73 0 11-23.284 37.133c-.493-.844-1.548-1.209-2.424-.777l-6.02 2.963z" fill="url(#paint1_linear_1905_1716)"/><path d="M67.874 87.349c.008.977.807 1.77 1.78 1.684a21.723 21.723 0 00-.323-43.3c-.974-.072-1.762.734-1.754 1.71l.044 5.966c.008.977.81 1.75 1.777 1.884a12.221 12.221 0 0110.546 12.012 12.22 12.22 0 01-10.365 12.168c-.966.149-1.756.933-1.75 1.91l.045 5.966z" fill="url(#paint2_linear_1905_1716)"/><defs><linearGradient id="paint0_linear_1905_1716" x1="166.295" y1="-14.595" x2="194.539" y2="180.992" gradientUnits="userSpaceOnUse"><stop stop-color="#4314E9"/><stop offset=".755" stop-color="#595CFF"/></linearGradient><linearGradient id="paint1_linear_1905_1716" x1="-277.483" y1="138.807" x2="83.269" y2="471.231" gradientUnits="userSpaceOnUse"><stop stop-color="#5C78FA"/><stop offset=".15" stop-color="#3A2DDE"/><stop offset=".33" stop-color="#7413BD"/><stop offset=".5" stop-color="#A72579"/><stop offset=".67" stop-color="#C95453"/><stop offset=".83" stop-color="#B16E5C"/><stop offset="1" stop-color="#E0966D"/></linearGradient><linearGradient id="paint2_linear_1905_1716" x1="-214.436" y1="37.626" x2="-130.486" y2="225.399" gradientUnits="userSpaceOnUse"><stop stop-color="#5C78FA"/><stop offset=".15" stop-color="#3A2DDE"/><stop offset=".33" stop-color="#7413BD"/><stop offset=".5" stop-color="#A72579"/><stop offset=".67" stop-color="#C95453"/><stop offset=".83" stop-color="#B16E5C"/><stop offset="1" stop-color="#E0966D"/></linearGradient></defs></svg>