<svg width="223" height="120" viewBox="0 0 223 120" fill="none" xmlns="http://www.w3.org/2000/svg"><path stroke="#EFF2FB" stroke-opacity=".2" stroke-linecap="round" d="M.5.5v118.976m0-.001h259.947M.5 99.054h259.947M.5 78.634h259.947M.5 58.211h259.947M.5 37.789h259.947M.5 17.369h259.947"/><path d="M13 88.48c5.666-11.83 22.995-35.092 46.99-33.492 29.994 2 29.994 33.993 59.988 23.495 29.994-10.498 36.993-49.49 58.488-48.49 21.496 1 20.996 30.994 33.993 15.497 12.998-15.497 22.996-36.493 34.993-35.993" stroke="url(#paint0_linear_1905_1699)" stroke-width="2" stroke-linecap="round"/><circle cx="177.972" cy="29.993" r="2.499" fill="#EFF2FB" fill-opacity=".2" stroke="#2D55B4"/><defs><linearGradient id="paint0_linear_1905_1699" x1="247.952" y1="8.997" x2="13" y2="88.981" gradientUnits="userSpaceOnUse"><stop stop-color="#533A71"/><stop offset="1" stop-color="#2D55B4"/></linearGradient></defs></svg>