<svg width="45" height="45" viewBox="0 0 45 45" fill="none" xmlns="http://www.w3.org/2000/svg"><rect width="45" height="45" rx="22.5" fill="#fff"/><path fill-rule="evenodd" clip-rule="evenodd" d="M27.166 17.902c-.395-.382-.963-.373-1.289-.262.213-.29.71-.526.857-.555.112.046.432.409.432.817zm1.26-1.582c-.259-1.532-3.488-.517-5.114-1.168-.031.447.5 1.163 1.01 1.428-.87.833-1.65 2.51-1.808 4.56-.157-2.05-.938-3.727-1.807-4.56.508-.265 1.04-.98 1.009-1.428-1.626.651-4.855-.364-5.116 1.168-.054.325.087.82.24.961a.746.746 0 01.62-.514c2.275-.38 4.174 3.489 2.46 5.053-.026.024-.011.068.024.068h5.14c.035 0 .05-.044.024-.068-1.715-1.564.185-5.432 2.46-5.053.45.075.592.412.62.514.153-.142.294-.636.239-.96zm.554-3.518c-.04-.144 1.293-.148 1.293.773 0 .617-.798.91-.798 1.55 0 .299.291.518.38.518-.205-1.029.645-.49.874-.298-.456-1.384.57-1.375.47-2.009-.07-.443-.963-.31-1.286-.534-.573-.398-1.25-1.946-1.697-.398.832.854.348 2.109-.71 2.109 0 0-.005.184.004.199 1.261-.068 1.701-1.09 1.47-1.91zm-14.712 2.543c.23-.193 1.079-.731.874.297.089 0 .38-.218.38-.517 0-.64-.798-.933-.798-1.55 0-.921 1.334-.917 1.293-.773-.23.82.21 1.842 1.47 1.91.01-.015.004-.199.004-.199-1.057 0-1.542-1.256-.71-2.109-.446-1.548-1.124 0-1.697.398-.323.225-1.215.09-1.286.534-.1.634.926.625.47 2.009zm3.58 2.557c.396-.382.964-.373 1.29-.262-.213-.29-.711-.526-.858-.555-.111.046-.432.409-.432.817zm5.266-8.575l-.616-.827-.615.827.616.871.615-.87zm3.511 2.503l-.437-.588-.437.588.437.574.437-.574zm3.549 16.998l-.555-.648-.555.648.555.567.555-.567zM19.247 11.83l-.438-.589-.437.588.437.575.438-.575zm-1.253 2.882h1.631c1.372 0 1.99-.93 2.176-1.735h1.396c.186.806.803 1.735 2.175 1.735h1.632s.285-.428.357-.639c.258-.761-.072-1.116-.552-1.116l-.621.62-.621-.62c-.48 0-.81.355-.552 1.116a2.3 2.3 0 00.186.366c-.58-.088-1.318-.525-1.48-1.462 0 0 .428-.75.535-1.053.386-1.091-.107-1.537-.827-1.537l-.93 1.206-.93-1.206c-.721 0-1.214.446-.828 1.537.108.303.536 1.053.536 1.053a1.762 1.762 0 01-1.48 1.462c.074-.126.152-.269.185-.366.258-.761-.07-1.116-.552-1.116l-.62.62-.622-.62c-.48 0-.809.355-.552 1.116.072.211.358.639.358.639zm16.868 5.58c-.315.175-2.162 1.13-4.529.777.025-.124.045-.25.062-.376 1.576-.208 2.856-.503 3.672-1.003.93-.571 1.337-1.935.867-2.95-.012-.025-.046-.03-.062-.008-.258.327-1.875 2.268-4.424 2.872a5.707 5.707 0 00-.036-.436c1.238-.774 2.446-1.666 3.022-2.482.87-1.234.79-2.808-.038-3.61a.037.037 0 00-.031-.01.04.04 0 00-.028.019c-.262.477-2.713 4.848-5.404 6.735a5.455 5.455 0 01-.1.068.148.148 0 00-.02.228c.31.31.504.742.504 1.221 0 .834-.583 1.527-1.352 1.677-.392.084-.956.06-1.498-.138a.037.037 0 00-.05.036v2.64c0 .042.058.052.072.012.33-.964 1.317-1.169 1.748-1.169.156 1.03.433 1.883.794 2.343.587.746 1.545.735 1.96.22a.04.04 0 00.009-.032.037.037 0 00-.018-.026c-.244-.155-1.641-1.101-1.92-2.652.11-.042.217-.09.32-.146.452.823 1.108 1.557 1.636 1.837.888.47 1.7.241 2.061-.447a.039.039 0 00-.03-.057c-.548-.048-2.233-.58-2.95-1.879.081-.083.162-.17.237-.262.75.63 1.812 1.188 2.572 1.301.889.134 1.897-.18 1.921-1.32 0-.023-.018-.042-.04-.04-.316.02-2.41.121-3.9-.823.051-.109.1-.22.144-.332 0 0 2.254.588 3.322.393 1.06-.193 1.682-1.066 1.562-2.151-.003-.027-.032-.043-.055-.03zM14.964 22.08c.045.113.093.223.145.332-1.49.944-3.583.844-3.9.823-.023-.002-.041.018-.041.04.025 1.141 1.032 1.454 1.921 1.32.76-.113 1.822-.67 2.572-1.301.076.092.156.179.238.262-.718 1.298-2.402 1.83-2.952 1.88-.026.002-.042.032-.03.056.361.688 1.174.916 2.062.447.528-.28 1.184-1.014 1.635-1.837.104.056.212.104.322.146-.28 1.55-1.677 2.497-1.921 2.652a.037.037 0 00-.017.026.04.04 0 00.008.031c.415.516 1.374.527 1.96-.22.361-.459.638-1.312.794-2.342.432 0 1.418.205 1.748 1.169.014.04.073.03.073-.013v-2.64a.038.038 0 00-.05-.035c-.543.197-1.107.222-1.498.138a1.697 1.697 0 01-1.353-1.677c0-.48.194-.911.504-1.221a.148.148 0 00-.02-.228 4.202 4.202 0 01-.1-.068c-2.69-1.886-5.14-6.254-5.404-6.734a.038.038 0 00-.06-.01c-.826.803-.907 2.376-.037 3.61.576.815 1.784 1.708 3.022 2.482a5.3 5.3 0 00-.036.436c-2.546-.603-4.163-2.542-4.423-2.87a.037.037 0 00-.063.007c-.469 1.015-.062 2.377.867 2.949.816.5 2.097.795 3.672 1.003.017.126.037.251.062.376-2.364.353-4.211-.6-4.528-.777-.024-.014-.053.003-.056.03-.12 1.086.502 1.958 1.563 2.151 1.067.195 3.32-.393 3.32-.393zm14.655 8.15l-.821-.713a1.571 1.571 0 00-.662.957c-.494.076-1.84-.253-1.71-.472 1.476-2.29.347-3.654-1.01-3.578v1.538c0 .494-.39.894-.871.894h-.937c-.672 0-1.11.746-1.11.746s-.437-.746-1.109-.746h-.937a.883.883 0 01-.871-.894v-1.538c-1.357-.076-2.487 1.288-1.01 3.578.13.216-1.255.563-1.904.476a.918.918 0 00-1.038-.251s-2.551-2.665-2.598-2.691l.021-.054c.146-.3-.077-.626-.217-.604.163-.216.17-1.162-.736-1.38.027.19.04.577.04.577s-.699-.417-1.05-.057c-.309.403.12 1.134.12 1.134s-.358.01-.535-.007c.26.968 1.13.9 1.318.709-.013.153.302.373.569.197l.117-.063c.02.03 2.505 2.62 2.505 2.62a.976.976 0 00-.131.661.95.95 0 00.716.781c.26.058.505.002.7-.125l.659.674a.287.287 0 00.226.088.296.296 0 00.181-.508c-.01-.012-.67-.688-.67-.688.544-.42 1.558-.717 2.4-.717.147 0 .216-.138.166-.273-.381-1.011.438-1.744 1.285-1.148.37.26.746.773 1.029 1.627-1.391.372-3.137 1.395-3.49 2.512-.136.432.313 1.02.859 1.138.01.002.02 0 .028-.006a.041.041 0 00.016-.026c.285-1.667 1.91-2.91 2.756-3.121l.072.21c-.922.48-1.815 1.494-2.07 2.7-.117.552.44 1.05.901 1.185a.037.037 0 00.047-.035c.088-1.524.698-2.819 1.245-3.408.014.115.026.231.033.347 0 0-.56 1.72-.56 2.975 0 .584.787.992.903 1.049.146-.057.932-.465.932-1.049 0-1.255-.56-2.975-.56-2.975.008-.116.02-.232.034-.347.546.59 1.157 1.883 1.244 3.407.001.025.024.043.047.036.461-.136 1.019-.633.902-1.185-.256-1.206-1.149-2.22-2.07-2.7l.07-.21c.847.21 2.473 1.454 2.758 3.121.002.011.007.02.016.026a.034.034 0 00.028.006c.545-.118.995-.707.858-1.138-.352-1.117-2.099-2.14-3.49-2.512.284-.854.66-1.367 1.03-1.627.846-.596 1.666.137 1.285 1.148-.051.135.018.273.166.273.951 0 2.124.38 2.588.888.296.49.844.805 1.462.737.702-.075 1.275-.658 1.354-1.377a1.583 1.583 0 00-.698-1.505l-.821.712zm-6.052-4.594c.293-.12.751-.023.736.443-.004.106.13.106.14-.002.087-.698-.34-.899-.787-.817-.056-.24-.101-.45-.153-.658-.041-.168-.056-.483.12-.483.095 0 .057.293.048.42-.008.11.028.178.11.181.051.003.115-.07.153-.117.256-.32.315-.814.015-1.052-.25-.2-.879-.051-1.052.234-.026-.108-.15-.285-.21-.362-.058-.075-.073-.127.007-.193.038-.032.152-.158.152-.288a.217.217 0 00-.225-.218c-.135 0-.285.103-.285.334a.36.36 0 00.04.165 1.384 1.384 0 00-.436.023l1.648 4.988c.471-.257.817-.664.817-1.1 0-.372-.496-.248-.738.042-.077-.472-.146-.907-.221-1.341-.021-.12.034-.163.121-.2zm-2.33-3.389l.347 1.061c-.297.078-.773.317-.773.632 0 .42.674.694 1.064.662a.306.306 0 00.063.259c-.141 0-.408.073-.496.177-.207-.213-.53-.29-.684-.16-.154.13-.159.35.003.6.112.173.154.343.028.543.47 0 .296-.674.48-.674a.934.934 0 00.045.45.329.329 0 01-.026.298c-.151.267-.387.881-.355 1.436-.154 0-.232-.042-.178-.274.02-.087-.028-.149-.092-.042a.963.963 0 00-.105.404c0 .494.534.594.738.49.59.629 1.747.46 2.135.25l-2.039-6.172c-.042-.116-.191-.06-.154.06zm-.07 5.084c-.042-.254.278-.708.686-1.146-.087.285-.033.777.137.947-.296 0-.647.061-.823.2z" fill="#0F0F0F"/></svg>