<svg width="14" height="14" viewBox="0 0 14 14" fill="none" xmlns="http://www.w3.org/2000/svg"><path d="M13.968 3.232a3.707 3.707 0 00-.366-1.183 3.643 3.643 0 00-.703-.975 3.638 3.638 0 00-.966-.688A3.695 3.695 0 008.912.263a3.758 3.758 0 00-1.27.834c-.61.606-1.217 1.215-1.825 1.824-.048.048-.095.1-.148.155h.059c.191-.015.383-.036.576-.046.274-.014.546.012.816.057.304.05.6.125.887.243.033.014.05.003.07-.02.137-.143.272-.285.412-.425.159-.16.32-.316.479-.476a1.85 1.85 0 012.805.2c.278.368.395.79.36 1.25-.038.479-.24.879-.582 1.217-.822.814-1.637 1.632-2.453 2.45-.15.151-.303.3-.489.41a1.82 1.82 0 01-.816.258 1.834 1.834 0 01-1.05-.237 1.766 1.766 0 01-.825-.997c-.011-.031-.027-.06-.047-.106-.089.072-.175.13-.246.2-.369.365-.734.732-1.1 1.098-.014.014-.034.028-.039.047-.006.021-.009.05 0 .068.02.041.051.076.076.117.248.4.568.734.956 1a3.747 3.747 0 002.42.666c.398-.03.784-.121 1.152-.277a3.42 3.42 0 001.019-.644c.222-.207.439-.422.653-.636.666-.665 1.329-1.332 1.998-1.993.288-.285.552-.585.751-.939.22-.389.375-.8.442-1.244.055-.36.062-.722.016-1.085z" fill="#fff"/><path d="M8.165 10.941c-.256.022-.513.037-.771.022a4.394 4.394 0 01-1.332-.27c-.069-.027-.109-.022-.165.036-.263.274-.533.541-.803.808a2 2 0 01-.581.422c-.475.215-.959.24-1.449.06a1.792 1.792 0 01-.999-.886 1.8 1.8 0 01-.183-1.145c.063-.375.216-.708.486-.98l.428-.433.808-.812.576-.576c.096-.098.191-.198.289-.294.148-.147.299-.29.444-.44.224-.235.477-.425.782-.54.329-.124.667-.15 1.009-.078a1.79 1.79 0 011.325 1.061c.033.073.061.15.097.239.076-.058.157-.106.222-.17.383-.378.763-.76 1.144-1.14.04-.039.037-.072.011-.114a4.25 4.25 0 00-.51-.66 3.66 3.66 0 00-1.264-.844 3.758 3.758 0 00-1.686-.258c-.408.034-.803.13-1.18.295-.342.15-.66.338-.936.592-.23.211-.455.43-.675.652-.715.71-1.429 1.423-2.14 2.137-.154.154-.297.32-.423.498A3.868 3.868 0 00.227 9 3.643 3.643 0 000 10.276a3.683 3.683 0 00.652 2.107 3.698 3.698 0 002.31 1.536c.264.055.53.083.798.081a3.8 3.8 0 00.907-.12c.281-.071.547-.19.806-.323.22-.115.43-.25.613-.416.297-.27.581-.555.868-.837.367-.36.733-.726 1.098-1.09.095-.094.185-.192.278-.287 0-.005-.003-.008-.005-.012-.052.008-.105.02-.16.025v.001z" fill="#fff"/></svg>