<svg width="14" height="14" viewBox="0 0 14 14" fill="none" xmlns="http://www.w3.org/2000/svg"><path d="M12.33 8.06a.312.312 0 01.248-.252l.91-.183a.637.637 0 000-1.25l-.91-.183a.312.312 0 01-.248-.252 5.657 5.657 0 00-.188-.687.324.324 0 01.092-.343l.697-.612a.637.637 0 00-.624-1.083l-.881.298a.32.32 0 01-.344-.093 5.354 5.354 0 00-.503-.502.324.324 0 01-.092-.344l.298-.881a.637.637 0 00-1.083-.624l-.612.697a.324.324 0 01-.343.092c-.23-.08-.462-.14-.687-.188a.312.312 0 01-.252-.248l-.183-.91a.637.637 0 00-1.25 0l-.183.91a.312.312 0 01-.252.248 5.671 5.671 0 00-.687.188.324.324 0 01-.343-.092l-.612-.697a.637.637 0 00-1.083.624l.298.881a.324.324 0 01-.093.344 5.357 5.357 0 00-.502.502.32.32 0 01-.344.093l-.881-.298a.637.637 0 00-.624 1.083l.697.612c.095.085.134.22.092.343-.08.23-.14.462-.188.687a.312.312 0 01-.248.252l-.91.183a.637.637 0 000 1.25l.91.183a.312.312 0 01.248.252c.048.225.109.458.188.687a.324.324 0 01-.092.343l-.697.612a.637.637 0 00.624 1.083l.881-.298a.32.32 0 01.344.092c.156.179.324.347.502.503.096.086.134.22.093.344l-.298.881a.637.637 0 001.083.624l.612-.697a.324.324 0 01.343-.092c.23.08.462.14.687.188a.31.31 0 01.252.248l.183.91a.637.637 0 001.25 0l.183-.91a.312.312 0 01.252-.248c.225-.048.458-.109.687-.188a.324.324 0 01.343.092l.612.697a.637.637 0 001.083-.624l-.298-.881a.324.324 0 01.092-.344c.179-.156.347-.324.503-.503a.32.32 0 01.344-.092l.881.298a.637.637 0 00.624-1.083l-.697-.612a.324.324 0 01-.092-.343c.08-.23.14-.462.188-.687zM7 11.5A4.503 4.503 0 012.5 7c0-2.482 2.018-4.5 4.5-4.5s4.5 2.018 4.5 4.5-2.018 4.5-4.5 4.5z" fill="#fff"/><path d="M7 3.138A3.865 3.865 0 003.136 7a3.865 3.865 0 003.862 3.863A3.865 3.865 0 0010.862 7 3.865 3.865 0 007 3.138zm0 6.271A2.413 2.413 0 014.59 7 2.413 2.413 0 017 4.592 2.413 2.413 0 019.407 7 2.413 2.413 0 017 9.41z" fill="#fff"/></svg>