<svg width="76" height="76" viewBox="0 0 76 76" fill="none" xmlns="http://www.w3.org/2000/svg"><foreignObject x="-54.286" y="-54.286" width="184.571" height="184.571"><div xmlns="http://www.w3.org/1999/xhtml" style="backdrop-filter:blur(27.14px);height:100%;width:100%" clip-path="url(#bgblur_0_2322_7497_clip_path)"/></foreignObject><g filter="url(#filter0_i_2322_7497)" data-figma-bg-blur-radius="54.286"><rect width="76" height="76" rx="13.571" fill="#fff" fill-opacity=".05"/><rect x=".5" y=".5" width="75" height="75" rx="13.071" stroke="url(#paint0_linear_2322_7497)"/><path d="M36.529 25.503h8.821c1.618 0 2.94.735 2.94 2.94v2.94c0 2.206-1.322 2.941-2.94 2.941h-8.82c-1.617 0-2.94-.735-2.94-2.94v-2.94c0-2.206 1.323-2.941 2.94-2.941zm-5.881 16.172h8.821c1.618 0 2.941.736 2.941 2.941v2.94c0 2.206-1.323 2.941-2.94 2.941h-8.822c-1.617 0-2.94-.735-2.94-2.94v-2.941c0-2.205 1.323-2.94 2.94-2.94z" fill="#fff"/><path d="M52.702 46.086H42.41m0 0v-1.47m0 1.47v1.47m-14.702-1.47h-4.411m4.41 0v1.47m0-1.47v-1.47m24.995-14.702H48.29m0 0v-1.47m0 1.47v1.47m-14.702-1.47H23.297m10.292 0v1.47m0-1.47v-1.47m8.821 16.172c0-2.205-1.323-2.94-2.94-2.94h-8.822c-1.617 0-2.94.735-2.94 2.94m14.702 0v2.94m0 0c0 2.206-1.323 2.941-2.94 2.941h-8.822c-1.617 0-2.94-.735-2.94-2.94m0 0v-2.941M48.29 28.443c0-2.205-1.323-2.94-2.94-2.94h-8.822c-1.617 0-2.94.735-2.94 2.94m14.702 0v2.94m0 0c0 2.206-1.323 2.941-2.94 2.941h-8.822c-1.617 0-2.94-.735-2.94-2.94m0 0v-2.94" stroke="#fff" stroke-width="2.036" stroke-miterlimit="10" stroke-linecap="round" stroke-linejoin="round"/></g><defs><linearGradient id="paint0_linear_2322_7497" x1="84.487" y1="86.351" x2="-18.412" y2="64.917" gradientUnits="userSpaceOnUse"><stop stop-color="#A97055"/><stop offset=".135" stop-color="#5F2E4F"/><stop offset=".34" stop-color="#843978"/><stop offset="1" stop-color="#5D6AF0"/></linearGradient><clipPath id="bgblur_0_2322_7497_clip_path" transform="translate(54.286 54.286)"><rect width="76" height="76" rx="13.571"/></clipPath><filter id="filter0_i_2322_7497" x="-54.286" y="-54.286" width="184.571" height="184.571" filterUnits="userSpaceOnUse" color-interpolation-filters="sRGB"><feFlood flood-opacity="0" result="BackgroundImageFix"/><feBlend in="SourceGraphic" in2="BackgroundImageFix" result="shape"/><feColorMatrix in="SourceAlpha" values="0 0 0 0 0 0 0 0 0 0 0 0 0 0 0 0 0 0 127 0" result="hardAlpha"/><feOffset/><feGaussianBlur stdDeviation=".679"/><feComposite in2="hardAlpha" operator="arithmetic" k2="-1" k3="1"/><feColorMatrix values="0 0 0 0 0.641667 0 0 0 0 0.641667 0 0 0 0 0.641667 0 0 0 1 0"/><feBlend in2="shape" result="effect1_innerShadow_2322_7497"/></filter></defs></svg>