<svg width="107" height="84" viewBox="0 0 107 84" fill="none" xmlns="http://www.w3.org/2000/svg"><rect width="106.148" height="83.402" rx="6.499" fill="url(#paint0_linear_1905_1756)"/><path fill="#EEF1FA" d="M5.414 33.035h8.124v43.326H5.414z"/><path fill="url(#paint1_linear_1905_1756)" d="M5.414 33.035h8.124v43.326H5.414z"/><path fill="#EEF1FA" d="M16.242 23.829h8.124v52.532h-8.124z"/><path fill="url(#paint2_linear_1905_1756)" d="M16.242 23.829h8.124v52.532h-8.124z"/><path fill="#EEF1FA" d="M27.078 36.825h8.124V76.36h-8.124z"/><path fill="url(#paint3_linear_1905_1756)" d="M27.078 36.825h8.124V76.36h-8.124z"/><path fill="#EEF1FA" d="M37.91 33.035h8.124v43.326H37.91z"/><path fill="url(#paint4_linear_1905_1756)" d="M37.91 33.035h8.124v43.326H37.91z"/><path fill="#EEF1FA" d="M48.742 16.245h8.124v60.114h-8.124z"/><path fill="url(#paint5_linear_1905_1756)" d="M48.742 16.245h8.124v60.114h-8.124z"/><path fill="#EEF1FA" d="M59.57 42.783h8.124V76.36H59.57z"/><path fill="url(#paint6_linear_1905_1756)" d="M59.57 42.783h8.124V76.36H59.57z"/><path fill="#EEF1FA" d="M70.406 51.448h8.124V76.36h-8.124z"/><path fill="url(#paint7_linear_1905_1756)" d="M70.406 51.448h8.124V76.36h-8.124z"/><path fill="#EEF1FA" d="M81.238 60.655h8.124v15.706h-8.124z"/><path fill="url(#paint8_linear_1905_1756)" d="M81.238 60.655h8.124v15.706h-8.124z"/><path fill="#EEF1FA" d="M92.063 29.243h8.124V76.36h-8.124z"/><path fill="url(#paint9_linear_1905_1756)" d="M92.063 29.243h8.124V76.36h-8.124z"/><defs><linearGradient id="paint0_linear_1905_1756" x1="57.407" y1="-2.708" x2="56.865" y2="102.898" gradientUnits="userSpaceOnUse"><stop stop-color="#716EED"/><stop offset=".97" stop-color="#6441C6"/></linearGradient><linearGradient id="paint1_linear_1905_1756" x1="9.476" y1="33.035" x2="9.476" y2="76.361" gradientUnits="userSpaceOnUse"><stop stop-color="#5D54BB" stop-opacity=".3"/><stop offset=".995" stop-color="#674BCF"/></linearGradient><linearGradient id="paint2_linear_1905_1756" x1="20.304" y1="23.829" x2="20.304" y2="76.362" gradientUnits="userSpaceOnUse"><stop stop-color="#5D54BB" stop-opacity=".3"/><stop offset=".995" stop-color="#674BCF"/></linearGradient><linearGradient id="paint3_linear_1905_1756" x1="31.14" y1="36.825" x2="31.14" y2="76.36" gradientUnits="userSpaceOnUse"><stop stop-color="#5D54BB" stop-opacity=".3"/><stop offset=".995" stop-color="#674BCF"/></linearGradient><linearGradient id="paint4_linear_1905_1756" x1="41.972" y1="33.035" x2="41.972" y2="76.361" gradientUnits="userSpaceOnUse"><stop stop-color="#5D54BB" stop-opacity=".3"/><stop offset=".995" stop-color="#674BCF"/></linearGradient><linearGradient id="paint5_linear_1905_1756" x1="52.804" y1="16.245" x2="52.804" y2="76.359" gradientUnits="userSpaceOnUse"><stop stop-color="#5D54BB" stop-opacity=".3"/><stop offset=".995" stop-color="#674BCF"/></linearGradient><linearGradient id="paint6_linear_1905_1756" x1="63.632" y1="42.783" x2="63.632" y2="76.361" gradientUnits="userSpaceOnUse"><stop stop-color="#5D54BB" stop-opacity=".3"/><stop offset=".995" stop-color="#674BCF"/></linearGradient><linearGradient id="paint7_linear_1905_1756" x1="74.468" y1="51.448" x2="74.468" y2="76.361" gradientUnits="userSpaceOnUse"><stop stop-color="#5D54BB" stop-opacity=".3"/><stop offset=".995" stop-color="#674BCF"/></linearGradient><linearGradient id="paint8_linear_1905_1756" x1="85.3" y1="60.655" x2="85.3" y2="76.361" gradientUnits="userSpaceOnUse"><stop stop-color="#5D54BB" stop-opacity=".3"/><stop offset=".995" stop-color="#674BCF"/></linearGradient><linearGradient id="paint9_linear_1905_1756" x1="96.124" y1="29.243" x2="96.124" y2="76.36" gradientUnits="userSpaceOnUse"><stop stop-color="#5D54BB" stop-opacity=".3"/><stop offset=".995" stop-color="#674BCF"/></linearGradient></defs></svg>