<svg width="56" height="56" viewBox="0 0 56 56" fill="none" xmlns="http://www.w3.org/2000/svg"><foreignObject x="-40" y="-40" width="136" height="136"><div xmlns="http://www.w3.org/1999/xhtml" style="backdrop-filter:blur(20px);height:100%;width:100%" clip-path="url(#bgblur_0_2322_7494_clip_path)"/></foreignObject><g filter="url(#filter0_i_2322_7494)" data-figma-bg-blur-radius="40"><rect width="56" height="56" rx="10" fill="#fff" fill-opacity=".05"/><rect x=".5" y=".5" width="55" height="55" rx="9.5" stroke="url(#paint0_linear_2322_7494)"/></g><path d="M37.014 23.478l-3.23 12.966a2.135 2.135 0 01-2.089 1.64H19.103c-1.447 0-2.482-1.42-2.051-2.809l4.035-12.956a2.157 2.157 0 012.05-1.524h11.788c.91 0 1.667.556 1.984 1.322.182.412.22.882.105 1.361z" fill="#fff" stroke="#fff" stroke-width=".719" stroke-miterlimit="10"/><path d="M23.38 28.5h7.667m-8.625 3.833h7.666" stroke="#0F0F0F" stroke-width=".719" stroke-miterlimit="10" stroke-linecap="round" stroke-linejoin="round"/><path d="M31.33 38.084h4.58a2.123 2.123 0 002.119-2.281L37.08 22.75m-11.807.364l.997-4.14m5.424 4.15l.901-4.16" stroke="#fff" stroke-width=".719" stroke-miterlimit="10" stroke-linecap="round" stroke-linejoin="round"/><defs><linearGradient id="paint0_linear_2322_7494" x1="62.253" y1="63.627" x2="-13.567" y2="47.834" gradientUnits="userSpaceOnUse"><stop stop-color="#A97055"/><stop offset=".135" stop-color="#5F2E4F"/><stop offset=".34" stop-color="#843978"/><stop offset="1" stop-color="#5D6AF0"/></linearGradient><clipPath id="bgblur_0_2322_7494_clip_path" transform="translate(40 40)"><rect width="56" height="56" rx="10"/></clipPath><filter id="filter0_i_2322_7494" x="-40" y="-40" width="136" height="136" filterUnits="userSpaceOnUse" color-interpolation-filters="sRGB"><feFlood flood-opacity="0" result="BackgroundImageFix"/><feBlend in="SourceGraphic" in2="BackgroundImageFix" result="shape"/><feColorMatrix in="SourceAlpha" values="0 0 0 0 0 0 0 0 0 0 0 0 0 0 0 0 0 0 127 0" result="hardAlpha"/><feOffset/><feGaussianBlur stdDeviation=".5"/><feComposite in2="hardAlpha" operator="arithmetic" k2="-1" k3="1"/><feColorMatrix values="0 0 0 0 0.641667 0 0 0 0 0.641667 0 0 0 0 0.641667 0 0 0 1 0"/><feBlend in2="shape" result="effect1_innerShadow_2322_7494"/></filter></defs></svg>