<svg width="14" height="14" viewBox="0 0 14 14" fill="none" xmlns="http://www.w3.org/2000/svg"><path d="M7.339 6.212v4.854h-.905V5.872l.905.34zm-3.616-.454c0-1.241.676-1.918 1.47-1.918.793 0 .905.112 1.806.565.9.453 1.129.565 1.582.565.452 0 .676-.341.676-1.018h.789c.112 1.354-.677 1.918-1.47 1.918-.793 0-1.017-.112-1.806-.564-.789-.453-1.017-.565-1.47-.565-.453 0-.677.34-.789 1.13l-.788-.113z" fill="#fff"/><path d="M7 14c-3.86 0-7-3.14-7-7s3.14-7 7-7 7 3.14 7 7-3.14 7-7 7zM7 .453A6.552 6.552 0 00.453 7 6.552 6.552 0 007 13.547 6.552 6.552 0 0013.547 7 6.552 6.552 0 007 .453z" fill="#fff"/></svg>