<svg width="16" height="16" viewBox="0 0 16 16" fill="none" xmlns="http://www.w3.org/2000/svg"><path d="M6.895 2.194h3.761c.69 0 1.254.313 1.254 1.253v1.254c0 .94-.564 1.254-1.254 1.254h-3.76c-.69 0-1.254-.314-1.254-1.254V3.447c0-.94.564-1.253 1.253-1.253zM4.388 9.089h3.76c.69 0 1.254.313 1.254 1.253v1.254c0 .94-.564 1.254-1.253 1.254H4.388c-.69 0-1.254-.314-1.254-1.254v-1.254c0-.94.564-1.253 1.254-1.253z" fill="#fff"/><path d="M13.79 10.97H9.402m0 0v-.628m0 .627v.627m-6.268-.627h-1.88m1.88 0v.627m0-.627v-.627M13.79 4.074h-1.88m0 0v-.627m0 .627v.627m-6.268-.627H1.254m4.388 0v.627m0-.627v-.627m3.76 6.895c0-.94-.564-1.253-1.253-1.253H4.388c-.69 0-1.254.313-1.254 1.253m6.268 0v1.254m0 0c0 .94-.564 1.254-1.253 1.254H4.388c-.69 0-1.254-.314-1.254-1.254m0 0v-1.254m8.776-6.895c0-.94-.564-1.253-1.254-1.253h-3.76c-.69 0-1.254.313-1.254 1.253m6.268 0v1.254m0 0c0 .94-.564 1.254-1.254 1.254h-3.76c-.69 0-1.254-.314-1.254-1.254m0 0V3.447" stroke="#fff" stroke-width=".868" stroke-miterlimit="10" stroke-linecap="round" stroke-linejoin="round"/></svg>