<svg width="10" height="10" viewBox="0 0 10 10" fill="none" xmlns="http://www.w3.org/2000/svg"><g clip-path="url(#clip0_2322_4619)" stroke-width=".306" stroke-miterlimit="10"><path d="M8.959 2.762L7.582 8.29a.91.91 0 01-.89.699h-5.37a.922.922 0 01-.874-1.197l1.72-5.524a.92.92 0 01.875-.65h5.025c.388 0 .711.237.846.564a.902.902 0 01.045.58z" fill="#fff" stroke="#fff"/><path d="M3.147 4.903h3.268M2.738 6.537h3.269" stroke="#0F0F0F" stroke-linecap="round" stroke-linejoin="round"/><path d="M6.535 8.988h1.953c.527 0 .94-.445.903-.972l-.404-5.565m-5.034.156L4.378.84m2.313 1.77L7.075.837" stroke="#fff" stroke-linecap="round" stroke-linejoin="round"/></g><defs><clipPath id="clip0_2322_4619"><path fill="#fff" d="M0 0h9.806v9.806H0z"/></clipPath></defs></svg>