<svg width="25" height="25" viewBox="0 0 25 25" fill="none" xmlns="http://www.w3.org/2000/svg"><path d="M23.877 11.854a4.512 4.512 0 00-2.599-1.544 6 6 0 00.089-.984 6.06 6.06 0 00-6.059-6.059 6.052 6.052 0 00-5.597 3.726 3.577 3.577 0 00-2.51-1.02 3.576 3.576 0 00-3.575 3.574c0 .266.036.515.089.763a4.512 4.512 0 00-3.637 4.427c0 1.241.506 2.368 1.322 3.184a4.492 4.492 0 003.184 1.322h2.613v-5.18c0-1.2.975-2.176 2.175-2.176h6.25c1.2 0 2.175.976 2.175 2.175v5.18h2.612a4.512 4.512 0 003.468-7.388z" fill="#fff"/><path d="M15.616 12.64h-6.25c-.784 0-1.42.637-1.42 1.422v6.25c0 .784.636 1.42 1.42 1.42h6.25c.785 0 1.422-.636 1.422-1.42v-6.25c0-.785-.637-1.421-1.422-1.421zm-1.223 4.155a.377.377 0 01-.533.021l-.993-.918v3.439a.377.377 0 01-.754 0v-3.439l-.992.918a.38.38 0 01-.533-.02.38.38 0 01.02-.534l1.625-1.502a.379.379 0 01.512 0l1.626 1.502a.377.377 0 01.022.533z" fill="#fff"/></svg>