<svg width="90" height="36" viewBox="0 0 90 36" fill="none" xmlns="http://www.w3.org/2000/svg"><g filter="url(#filter0_d_2348_7261)"><rect x="27.797" y="5.592" width="55.752" height="24" rx="6" fill="url(#paint0_linear_2348_7261)"/></g><path d="M3.54 9.58v15.846H0V9.58h3.54zm2.914 0h4.367l4.612 10.647h.196L20.24 9.58h4.367v15.845h-3.435V15.113h-.139L16.7 25.348h-2.338l-4.335-10.274h-.139v10.352H6.454V9.58zm28.89 15.635V9.792H40.5c1.062 0 1.972.2 2.73.602.762.402 1.348.951 1.756 1.65.41.697.613 1.493.613 2.387 0 .883-.204 1.674-.613 2.372-.408.698-.994 1.25-1.757 1.657-.757.401-1.664.602-2.721.602h-4.446v-.873h4.421c.861 0 1.597-.161 2.207-.482a3.483 3.483 0 001.405-1.333c.327-.568.491-1.215.491-1.943 0-.733-.164-1.383-.49-1.95a3.407 3.407 0 00-1.414-1.334c-.61-.321-1.346-.482-2.207-.482h-4.11v14.55h-1.022zm14.181 0V9.792h5.157c1.057 0 1.967.19 2.73.572.762.382 1.348.911 1.757 1.589.408.673.613 1.456.613 2.35 0 .883-.205 1.661-.613 2.334-.409.668-.995 1.19-1.758 1.567-.757.376-1.664.564-2.72.564h-4.618v-.88h4.593c.86 0 1.596-.149 2.206-.445.61-.296 1.079-.71 1.406-1.243.327-.537.49-1.17.49-1.897 0-.733-.163-1.371-.49-1.913-.327-.547-.798-.972-1.414-1.273-.61-.301-1.346-.452-2.206-.452h-4.111v14.55h-1.022zm6.873-6.989l4.12 6.989H59.34l-4.094-6.989h1.152zm20.779-.723c0 1.592-.3 2.982-.9 4.172-.598 1.185-1.432 2.107-2.5 2.764-1.062.658-2.288.987-3.677.987-1.395 0-2.627-.33-3.695-.987-1.062-.663-1.893-1.586-2.492-2.771-.6-1.19-.9-2.578-.9-4.165 0-1.591.3-2.98.9-4.164.605-1.185 1.438-2.106 2.5-2.764 1.063-.663 2.292-.994 3.687-.994 1.389 0 2.615.329 3.677.986 1.068.658 1.902 1.582 2.5 2.772.6 1.185.9 2.573.9 4.164zm-.997 0c0-1.43-.262-2.67-.785-3.72-.517-1.05-1.234-1.86-2.15-2.432-.915-.578-1.963-.867-3.145-.867-1.183 0-2.232.287-3.147.859-.915.567-1.635 1.378-2.157 2.432-.518 1.05-.777 2.292-.777 3.728 0 1.421.256 2.659.768 3.713.518 1.05 1.234 1.863 2.15 2.44.915.577 1.97.866 3.163.866 1.182 0 2.23-.286 3.146-.859.915-.577 1.632-1.39 2.15-2.44.522-1.049.784-2.289.784-3.72z" fill="#F9F9F9"/><defs><linearGradient id="paint0_linear_2348_7261" x1="69.816" y1="90.292" x2="17.31" y2="1.277" gradientUnits="userSpaceOnUse"><stop stop-color="#3325CD"/><stop offset="1" stop-color="#5A69F7"/></linearGradient><filter id="filter0_d_2348_7261" x="22.205" y="0" width="66.933" height="35.183" filterUnits="userSpaceOnUse" color-interpolation-filters="sRGB"><feFlood flood-opacity="0" result="BackgroundImageFix"/><feColorMatrix in="SourceAlpha" values="0 0 0 0 0 0 0 0 0 0 0 0 0 0 0 0 0 0 127 0" result="hardAlpha"/><feOffset/><feGaussianBlur stdDeviation="2.796"/><feComposite in2="hardAlpha" operator="out"/><feColorMatrix values="0 0 0 0 0.0583333 0 0 0 0 0.0583333 0 0 0 0 0.0583333 0 0 0 0.2 0"/><feBlend in2="BackgroundImageFix" result="effect1_dropShadow_2348_7261"/><feBlend in="SourceGraphic" in2="effect1_dropShadow_2348_7261" result="shape"/></filter></defs></svg>