<svg width="46" height="46" viewBox="0 0 46 46" fill="none" xmlns="http://www.w3.org/2000/svg"><g filter="url(#filter0_i_2353_7664)"><rect width="46" height="46" rx="11.5" fill="#fff" fill-opacity=".05"/></g><rect x=".48" y=".48" width="45.041" height="45.041" rx="11.02" stroke="url(#paint0_linear_2353_7664)" stroke-width=".959"/><path d="M32.349 17.867h-6.544V16h6.544v1.867zm1.614 9.333c-.414 1.21-1.897 2.8-4.77 2.8-2.873 0-5.201-1.614-5.201-5.297 0-3.649 2.174-5.525 5.11-5.525 2.881 0 4.64 1.663 5.025 4.13.073.473.102 1.11.089 1.998H26.71c.122 2.997 3.257 3.091 4.29 1.894h2.961zm-7.186-3.733h4.642c-.099-1.444-1.062-2.071-2.316-2.071-1.37 0-2.129.716-2.326 2.07zm-8.95 6.522H11.78v-13.97h6.5c5.12.076 5.217 5.082 2.544 6.446 3.235 1.176 3.344 7.524-2.999 7.524zM14.585 21.6h3.35c2.345 0 2.717-2.8-.291-2.8h-3.06v2.8zm3.17 2.8h-3.17v2.815h3.123c2.857 0 2.682-2.815.047-2.815z" fill="#fff"/><defs><linearGradient id="paint0_linear_2353_7664" x1="34.793" y1="-22.591" x2="-13.803" y2="-5.776" gradientUnits="userSpaceOnUse"><stop stop-color="#5C78FA"/><stop offset=".15" stop-color="#3A2DDE"/><stop offset=".33" stop-color="#7413BD"/><stop offset=".5" stop-color="#A72579"/><stop offset=".67" stop-color="#C95453"/><stop offset=".83" stop-color="#B16E5C"/><stop offset="1" stop-color="#E0966D"/></linearGradient><filter id="filter0_i_2353_7664" x="0" y="0" width="46" height="46" filterUnits="userSpaceOnUse" color-interpolation-filters="sRGB"><feFlood flood-opacity="0" result="BackgroundImageFix"/><feBlend in="SourceGraphic" in2="BackgroundImageFix" result="shape"/><feColorMatrix in="SourceAlpha" values="0 0 0 0 0 0 0 0 0 0 0 0 0 0 0 0 0 0 127 0" result="hardAlpha"/><feOffset/><feGaussianBlur stdDeviation=".575"/><feComposite in2="hardAlpha" operator="arithmetic" k2="-1" k3="1"/><feColorMatrix values="0 0 0 0 0.641667 0 0 0 0 0.641667 0 0 0 0 0.641667 0 0 0 1 0"/><feBlend in2="shape" result="effect1_innerShadow_2353_7664"/></filter></defs></svg>