<svg width="46" height="46" viewBox="0 0 46 46" fill="none" xmlns="http://www.w3.org/2000/svg"><g filter="url(#filter0_i_2353_7672)"><rect width="46" height="46" rx="11.5" fill="#fff" fill-opacity=".05"/></g><rect x=".48" y=".48" width="45.041" height="45.041" rx="11.02" stroke="url(#paint0_linear_2353_7672)" stroke-width=".959"/><path fill-rule="evenodd" clip-rule="evenodd" d="M26.753 15.552l3.707 3.7a5.293 5.293 0 010 7.495l-3.707 3.7a5.314 5.314 0 01-7.507 0l-3.707-3.7a5.293 5.293 0 010-7.494l3.707-3.7a5.315 5.315 0 017.507 0zm-10.29 9.605v-4.314a4.372 4.372 0 014.376-4.368h4.32a4.372 4.372 0 014.376 4.368v4.314a4.372 4.372 0 01-4.375 4.368h-4.321a4.372 4.372 0 01-4.375-4.368z" fill="#fff"/><defs><linearGradient id="paint0_linear_2353_7672" x1="34.793" y1="-22.591" x2="-13.803" y2="-5.776" gradientUnits="userSpaceOnUse"><stop stop-color="#5C78FA"/><stop offset=".15" stop-color="#3A2DDE"/><stop offset=".33" stop-color="#7413BD"/><stop offset=".5" stop-color="#A72579"/><stop offset=".67" stop-color="#C95453"/><stop offset=".83" stop-color="#B16E5C"/><stop offset="1" stop-color="#E0966D"/></linearGradient><filter id="filter0_i_2353_7672" x="0" y="0" width="46" height="46" filterUnits="userSpaceOnUse" color-interpolation-filters="sRGB"><feFlood flood-opacity="0" result="BackgroundImageFix"/><feBlend in="SourceGraphic" in2="BackgroundImageFix" result="shape"/><feColorMatrix in="SourceAlpha" values="0 0 0 0 0 0 0 0 0 0 0 0 0 0 0 0 0 0 127 0" result="hardAlpha"/><feOffset/><feGaussianBlur stdDeviation=".575"/><feComposite in2="hardAlpha" operator="arithmetic" k2="-1" k3="1"/><feColorMatrix values="0 0 0 0 0.641667 0 0 0 0 0.641667 0 0 0 0 0.641667 0 0 0 1 0"/><feBlend in2="shape" result="effect1_innerShadow_2353_7672"/></filter></defs></svg>