<svg width="46" height="46" viewBox="0 0 46 46" fill="none" xmlns="http://www.w3.org/2000/svg"><g filter="url(#filter0_i_2353_7676)"><rect width="46" height="46" rx="11.5" fill="#fff" fill-opacity=".05"/></g><rect x=".48" y=".48" width="45.041" height="45.041" rx="11.02" stroke="url(#paint0_linear_2353_7676)" stroke-width=".959"/><path d="M16.53 22.097s7.028-3.073 9.466-4.155c.935-.433 4.104-1.818 4.104-1.818s1.462-.606 1.34.865c-.04.606-.365 2.727-.69 5.021-.488 3.247-1.016 6.796-1.016 6.796s-.081.996-.772 1.17c-.69.172-1.828-.607-2.031-.78-.163-.13-3.048-2.078-4.104-3.03-.285-.26-.61-.78.04-1.385a160.109 160.109 0 004.267-4.329c.487-.52.975-1.731-1.057-.26-2.885 2.122-5.729 4.113-5.729 4.113s-.65.433-1.869.043c-1.219-.39-2.64-.91-2.64-.91s-.976-.648.69-1.341z" fill="#fff"/><defs><linearGradient id="paint0_linear_2353_7676" x1="34.793" y1="-22.591" x2="-13.803" y2="-5.776" gradientUnits="userSpaceOnUse"><stop stop-color="#5C78FA"/><stop offset=".15" stop-color="#3A2DDE"/><stop offset=".33" stop-color="#7413BD"/><stop offset=".5" stop-color="#A72579"/><stop offset=".67" stop-color="#C95453"/><stop offset=".83" stop-color="#B16E5C"/><stop offset="1" stop-color="#E0966D"/></linearGradient><filter id="filter0_i_2353_7676" x="0" y="0" width="46" height="46" filterUnits="userSpaceOnUse" color-interpolation-filters="sRGB"><feFlood flood-opacity="0" result="BackgroundImageFix"/><feBlend in="SourceGraphic" in2="BackgroundImageFix" result="shape"/><feColorMatrix in="SourceAlpha" values="0 0 0 0 0 0 0 0 0 0 0 0 0 0 0 0 0 0 127 0" result="hardAlpha"/><feOffset/><feGaussianBlur stdDeviation=".575"/><feComposite in2="hardAlpha" operator="arithmetic" k2="-1" k3="1"/><feColorMatrix values="0 0 0 0 0.641667 0 0 0 0 0.641667 0 0 0 0 0.641667 0 0 0 1 0"/><feBlend in2="shape" result="effect1_innerShadow_2353_7676"/></filter></defs></svg>