<svg width="46" height="46" viewBox="0 0 46 46" fill="none" xmlns="http://www.w3.org/2000/svg"><g filter="url(#filter0_i_2353_7668)"><rect width="46" height="46" rx="11.5" fill="#fff" fill-opacity=".05"/></g><rect x=".48" y=".48" width="45.041" height="45.041" rx="11.02" stroke="url(#paint0_linear_2353_7668)" stroke-width=".959"/><path d="M20.559 11H19.25l-.887 3.382L17.447 11H16.11l.83 2.395c.315.873.572 1.765.77 2.671v3.484h1.308v-3.484L20.56 11zm3.46 6.518v-2.221a2.508 2.508 0 00-.363-1.452 1.73 1.73 0 00-2.115-.485 1.73 1.73 0 00-.604.485 2.493 2.493 0 00-.364 1.452v2.22a2.48 2.48 0 00.364 1.452 1.73 1.73 0 002.115.486 1.73 1.73 0 00.604-.486c.266-.436.393-.942.363-1.451zm-1.163.217c0 .596-.175.886-.553.886-.378 0-.552-.29-.552-.886v-2.67c0-.596.174-.886.552-.886.378 0 .553.29.553.885v2.671zm5.482 1.858v-6.43h-1.164v4.906c-.261.363-.508.552-.741.552-.233 0-.247-.087-.276-.276-.013-.15-.013-.3 0-.45v-4.732h-1.164v5.08c-.013.323.02.646.102.959a.711.711 0 00.756.478 1.876 1.876 0 001.309-.71v.696l1.178-.073zm-3.665 6.503a.829.829 0 00-.581.276v3.876a.813.813 0 00.582.276c.334 0 .494-.276.494-.857v-2.714c0-.566-.16-.857-.494-.857zm4.275 0c-.392 0-.581.29-.581.886v.58h1.148v-.58c.015-.595-.189-.886-.567-.886z" fill="#fff"/><path d="M31.77 22.855a2.394 2.394 0 00-2.064-1.873 64.082 64.082 0 00-7.14-.261 64.083 64.083 0 00-7.139.261 2.4 2.4 0 00-2.079 1.873 20.389 20.389 0 00-.334 4.5 20.377 20.377 0 00.334 4.5 2.408 2.408 0 002.065 1.872c2.378.22 4.766.307 7.154.261a64.42 64.42 0 007.139-.261 2.416 2.416 0 002.064-1.872 20.39 20.39 0 00.335-4.5 20.389 20.389 0 00-.334-4.5zm-13.304 1.291h-1.454v7.258h-1.221v-7.258h-1.352v-1.204h4.027v1.204zm3.49 7.258h-1.149v-.696a1.847 1.847 0 01-1.323.784.714.714 0 01-.741-.48 3.203 3.203 0 01-.102-.943v-4.935h1.149v4.674c-.01.15-.01.3 0 .45 0 .174.116.276.276.276.16 0 .48-.175.727-.538v-4.862h1.134l.029 6.27zm4.362-1.901a5.12 5.12 0 01-.116 1.277.915.915 0 01-.916.712 1.572 1.572 0 01-1.193-.697v.61h-1.148v-8.449h1.148v2.787a1.556 1.556 0 011.193-.682.917.917 0 01.916.711c.094.42.133.849.116 1.278v2.453zm4.362-1.06h-2.297v1.133c0 .595.189.885.581.885a.495.495 0 00.51-.465 7.116 7.116 0 000-.783h1.177v.914c-.032.25-.122.488-.262.697a1.598 1.598 0 01-1.454.682 1.662 1.662 0 01-1.454-.653 2.464 2.464 0 01-.363-1.452v-2.206a2.464 2.464 0 01.363-1.452 1.642 1.642 0 011.454-.653 1.6 1.6 0 011.367.653c.266.436.393.942.364 1.452l.014 1.248z" fill="#fff"/><defs><linearGradient id="paint0_linear_2353_7668" x1="34.793" y1="-22.591" x2="-13.803" y2="-5.776" gradientUnits="userSpaceOnUse"><stop stop-color="#5C78FA"/><stop offset=".15" stop-color="#3A2DDE"/><stop offset=".33" stop-color="#7413BD"/><stop offset=".5" stop-color="#A72579"/><stop offset=".67" stop-color="#C95453"/><stop offset=".83" stop-color="#B16E5C"/><stop offset="1" stop-color="#E0966D"/></linearGradient><filter id="filter0_i_2353_7668" x="0" y="0" width="46" height="46" filterUnits="userSpaceOnUse" color-interpolation-filters="sRGB"><feFlood flood-opacity="0" result="BackgroundImageFix"/><feBlend in="SourceGraphic" in2="BackgroundImageFix" result="shape"/><feColorMatrix in="SourceAlpha" values="0 0 0 0 0 0 0 0 0 0 0 0 0 0 0 0 0 0 127 0" result="hardAlpha"/><feOffset/><feGaussianBlur stdDeviation=".575"/><feComposite in2="hardAlpha" operator="arithmetic" k2="-1" k3="1"/><feColorMatrix values="0 0 0 0 0.641667 0 0 0 0 0.641667 0 0 0 0 0.641667 0 0 0 1 0"/><feBlend in2="shape" result="effect1_innerShadow_2353_7668"/></filter></defs></svg>