<svg width="98" height="50" viewBox="0 0 98 50" fill="none" xmlns="http://www.w3.org/2000/svg"><path d="M22.387.008L22.338 0h-.016c-.358.008-.83.17-1.042.888-.114.364-.114.783-.106 1.171l.236 7.308c.008.258.163.468.383.508a.31.31 0 00.122 0 .35.35 0 00.195-.08.565.565 0 00.22-.38l.985-7.219.008-.032c.049-.363.081-.783.008-1.163-.146-.735-.594-.944-.944-.993zM.053 28.898l.016.048.008.008c.155.315.505.67 1.254.565.382-.056.765-.226 1.115-.395l6.578-3.295c.236-.113.358-.34.3-.557a.281.281 0 00-.048-.113.533.533 0 00-.155-.145.583.583 0 00-.44-.04l-7.016 2.163-.033.016c-.35.113-.749.259-1.066.485-.619.436-.619.928-.513 1.26zM8.695 4.581l-.04.024v.008l-.008.008c-.27.235-.53.654-.237 1.349.147.355.416.678.668.969l4.868 5.49c.17.194.423.259.619.154a.513.513 0 00.097-.073.463.463 0 00.106-.185.539.539 0 00-.073-.428L10.82 5.703l-.016-.032c-.196-.307-.44-.654-.741-.904-.586-.493-1.066-.372-1.368-.186zM.658 15.347l-.016.048v.016c-.081.347-.032.84.619 1.22.334.193.74.306 1.115.387L9.58 18.56c.253.057.497-.04.594-.242a.318.318 0 00.033-.121.381.381 0 00-.033-.21.618.618 0 00-.317-.307l-6.83-2.689-.032-.016c-.342-.13-.75-.266-1.14-.29-.749-.041-1.066.338-1.197.662zm27.907 13.481h-6.952l6.423-10.118h.537v10.118h-.008zm6.423 0V9.836h-6.854l-13.578 19.21v5.289h13.513v5.345h6.919v-5.345h1.71v-5.507h-1.71z" fill="#A5A5A5"/><path d="M43.944 33.439l.082-21.27c0-1.67-.472-2.26-2.06-2.3l-5.275-.033v18.992h1.694v5.507H36.69v5.345h16.33v-6.25h-9.077v.009zM54.56 39.68h6.3V19.64c0-1.147-.114-2.22-2.043-2.196-1.92.024-4.257 0-4.257 0V39.68zm0-25.241h6.3V9.836h-6.3v4.603zm19.023-.625h.496V9.252h-.7c-3.646 0-8.498.694-8.498 6.702v1.486H62.31v4.602h2.572v17.636h6.3V22.042h2.898V17.44h-2.897v-1.195c0-1.793 1.237-2.43 2.4-2.43zm6.32 12.509l.073-.347c.325-1.534 1.856-4.134 5.51-4.134 3.648 0 5.178 2.6 5.512 4.134l.073.347H79.903zm17.387 2.503c0-6.936-5.096-12.168-11.852-12.168-6.488 0-11.771 5.37-11.771 11.966 0 6.509 5.332 11.798 11.893 11.798 2.336 0 4.542-.695 6.382-2.003 1.824-1.235 3.338-3.06 4.404-5.313H89.89c-.92 1.122-2.1 2.14-4.323 2.14-2.98 0-5.258-1.833-5.674-4.563l-.049-.33h17.331c.057-.42.114-.784.114-1.527zm-2.556 10.507a1.246 1.246 0 01.586-1.074 1.13 1.13 0 01.603-.17c.22 0 .415.057.602.17a1.1 1.1 0 01.432.452c.106.194.155.404.155.622 0 .226-.058.436-.164.63a1.121 1.121 0 01-.44.452 1.114 1.114 0 01-.593.161c-.22 0-.415-.056-.603-.17a1.216 1.216 0 01-.431-.452 1.43 1.43 0 01-.147-.621zm.212 0c0 .185.04.355.122.516a.948.948 0 00.358.38.938.938 0 00.505.145.92.92 0 00.505-.145c.154-.097.268-.226.358-.38.081-.161.122-.33.122-.516s-.04-.356-.122-.517a.95.95 0 00-.358-.38.919.919 0 00-.505-.145.978.978 0 00-.497.137.902.902 0 00-.358.38c-.09.161-.13.339-.13.525zm.74.129v.565h-.252v-1.413h.473c.17 0 .309.04.399.113.097.08.146.186.146.323 0 .121-.057.218-.18.283a.27.27 0 01.14.145c.024.065.04.137.04.234 0 .089 0 .153.008.194 0 .04.008.073.024.097v.024h-.26c-.016-.04-.024-.145-.024-.323 0-.08-.017-.145-.058-.186-.04-.04-.097-.056-.187-.056h-.268zm0-.226h.212a.432.432 0 00.212-.049.15.15 0 00.081-.137c0-.08-.016-.13-.056-.17-.041-.032-.115-.048-.212-.048h-.236v.404zM29.11 45.17v2.647h-.275V45.17h.274zm.721 0v.245h-1.717v-.246h1.717zm2.503 1.16v.243h-1.32v-.244h1.32zm-1.27-1.16v2.647h-.284V45.17h.284zm1.513 0v2.647h-.283V45.17h.283zm2.539 2.404v.243h-1.188v-.243h1.188zm-1.13-2.405v2.648h-.278V45.17h.278zm.975 1.159v.245h-1.033v-.245h1.033zm.14-1.159v.246h-1.173v-.246h1.173zm2.64.001v2.647h-.278V45.17h.278zm1.267 0h.287l.919 2.236.916-2.237h.29l-1.095 2.648H40.1l-1.093-2.648zm-.093 0h.255l.038 1.56v1.087h-.293V45.17zm2.343 0h.254v2.647h-.292V46.73l.038-1.56zm1.515 0h.288l.919 2.236.916-2.237h.29l-1.096 2.648h-.224l-1.093-2.648zm-.092 0h.254l.039 1.56v1.087h-.293V45.17zm2.342 0h.255v2.647h-.293V46.73l.038-1.56zm2.686 0h.276v1.863a.904.904 0 01-.11.479.655.655 0 01-.295.262.981.981 0 01-.397.08 1.02 1.02 0 01-.41-.08.637.637 0 01-.287-.262.942.942 0 01-.105-.479V45.17h.276v1.864c0 .147.022.262.066.346a.402.402 0 00.185.178.67.67 0 00.275.053.67.67 0 00.275-.053.39.39 0 00.183-.178.735.735 0 00.068-.346V45.17zm3.369 0v2.647h-.295l-1.419-2.14v2.14h-.295V45.17h.295l1.422 2.145V45.17h.292zm2.542 2.404v.243h-1.188v-.243h1.188zm-1.13-2.405v2.648h-.278V45.17h.278zm.975 1.159v.245h-1.033v-.245h1.033zm.14-1.159v.246h-1.173v-.246h1.173zm3.551 1.985a.556.556 0 00-.026-.176.332.332 0 00-.085-.14.612.612 0 00-.166-.118 1.893 1.893 0 00-.266-.113 2.19 2.19 0 01-.298-.126 1.051 1.051 0 01-.227-.16.64.64 0 01-.146-.209.72.72 0 01-.049-.274c0-.104.017-.198.053-.284a.656.656 0 01.393-.37.858.858 0 01.307-.052c.166 0 .308.037.424.11a.726.726 0 01.266.293c.061.12.092.252.092.393h-.276a.683.683 0 00-.056-.283.445.445 0 00-.168-.195.5.5 0 00-.28-.073.523.523 0 00-.267.062.39.39 0 00-.159.164.505.505 0 00-.022.393.41.41 0 00.095.134c.043.042.097.08.164.117.068.035.149.069.243.102.125.04.234.085.326.134a.86.86 0 01.227.171.6.6 0 01.135.218c.03.082.045.175.045.279a.731.731 0 01-.056.292.612.612 0 01-.156.22.71.71 0 01-.246.14.993.993 0 01-.618.002.764.764 0 01-.466-.399.809.809 0 01-.073-.354h.28c0 .1.015.185.046.255a.485.485 0 00.306.271.73.73 0 00.209.031.589.589 0 00.269-.056.384.384 0 00.167-.159.474.474 0 00.059-.24zm1.336-1.984l.704 1.378.708-1.379h.33l-.893 1.655v.993h-.29v-.993l-.894-1.655h.335zm3.813 1.984a.56.56 0 00-.026-.176.332.332 0 00-.085-.14.612.612 0 00-.166-.118 1.888 1.888 0 00-.265-.113 2.19 2.19 0 01-.298-.126 1.062 1.062 0 01-.228-.16.641.641 0 01-.145-.209.72.72 0 01-.05-.274c0-.104.018-.198.054-.284a.648.648 0 01.154-.224.684.684 0 01.238-.146.853.853 0 01.307-.052.723.723 0 01.69.404.84.84 0 01.093.392H62.3a.675.675 0 00-.056-.283.446.446 0 00-.167-.195.503.503 0 00-.28-.073.524.524 0 00-.268.062.39.39 0 00-.158.164.505.505 0 00-.022.393.41.41 0 00.094.134.75.75 0 00.164.117c.068.035.15.069.244.102.125.04.234.085.326.134a.87.87 0 01.227.171c.06.063.105.136.135.218.03.082.045.175.045.279a.731.731 0 01-.056.292.601.601 0 01-.157.22.706.706 0 01-.245.14.994.994 0 01-.618.002.764.764 0 01-.466-.399.809.809 0 01-.073-.354h.28c0 .1.015.185.045.255a.485.485 0 00.306.271c.068.02.138.031.21.031a.588.588 0 00.268-.056.383.383 0 00.168-.159.474.474 0 00.058-.24zm2.067-1.984v2.647h-.275V45.17h.275zm.722 0v.245h-1.717v-.246h1.717zm2.385 2.404v.243H66.24v-.243h1.239zM66.3 45.169v2.648h-.281V45.17h.281zm1.02 1.16v.244h-1.08v-.244h1.08zm.144-1.16v.246H66.24v-.246h1.224zm1.086.001h.288l.919 2.236.917-2.237h.289l-1.095 2.648h-.224L68.55 45.17zm-.092 0h.255l.038 1.56v1.087h-.293V45.17zm2.343 0h.254v2.647h-.292V46.73l.038-1.56zm25.411-.072v.648h-.144v-.648h.144zm.159 0v.116h-.457v-.116h.457zm.199 0h.12l.113.447.114-.447h.114l-.178.648h-.1l-.184-.648zm-.065 0h.12l.022.469v.18h-.142v-.65zm.476 0h.12v.648h-.142v-.18l.022-.468zM74.505 46.32a4.415 4.415 0 00-.357.492 2.381 2.381 0 00-.246.536c-.02.07-.037.142-.052.216-.015.07-.023.142-.023.216a.575.575 0 00.157.395.77.77 0 00.395.201 3.158 3.158 0 001.02.007c.194-.03.385-.069.574-.119.169-.04.335-.089.5-.149a2.89 2.89 0 00.476-.208c.03-.015.057-.018.082-.008.025.01.045.025.06.045.015.025.02.052.015.082a.089.089 0 01-.053.067c-.04.02-.077.037-.111.052a5.071 5.071 0 01-1.281.41c-.2.04-.4.067-.604.082a2.521 2.521 0 01-.611-.03 1.374 1.374 0 01-.455-.156.703.703 0 01-.313-.343.713.713 0 01-.067-.268c-.005-.09 0-.182.015-.276.015-.094.037-.186.067-.276l.105-.26c.094-.209.208-.405.342-.589a7.032 7.032 0 01.998-1.073c.2-.169.403-.33.611-.484a9.474 9.474 0 011.826-1.066c.189-.084.382-.154.581-.208.094-.025.189-.045.283-.06a1.86 1.86 0 01.29-.037 1.01 1.01 0 01.269.022.404.404 0 01.328.418.888.888 0 01-.075.305c-.044.104-.1.206-.164.306l-.164.238a.11.11 0 01-.074.052.219.219 0 01-.082-.015.135.135 0 01-.045-.06c-.01-.024-.005-.052.015-.081.08-.115.152-.224.216-.328.04-.07.077-.144.112-.224a.46.46 0 00.045-.253.151.151 0 00-.112-.134.883.883 0 00-.186-.037c-.174-.01-.348.01-.522.06-.174.049-.34.106-.499.17-.209.085-.46.21-.752.373-.289.164-.587.353-.895.566a12.74 12.74 0 00-.894.693 7.01 7.01 0 00-.745.738zm6.516.633c.03-.015.055-.018.075-.008.02.01.034.027.044.052a.12.12 0 01.008.075c-.005.024-.023.047-.052.067a2.955 2.955 0 01-.61.313 4.697 4.697 0 01-.344.119 1.696 1.696 0 01-.313.067 3.12 3.12 0 01-.432.015.908.908 0 01-.403-.112.993.993 0 01-.134.112l-.141.082a.669.669 0 01-.313.082.302.302 0 01-.15-.038.215.215 0 01-.096-.126.347.347 0 01-.015-.201.555.555 0 01.082-.194.639.639 0 01.134-.171c.05-.055.1-.1.15-.135a.448.448 0 01.595.082c.02.02.03.045.03.075.04.055.052.112.037.171a.494.494 0 01-.037.09.61.61 0 00.238.074c.09.005.177.008.261.008.124 0 .248-.015.373-.045.129-.035.25-.075.365-.12a3.73 3.73 0 00.343-.163c.109-.06.21-.117.305-.172zm-2.54.655a.892.892 0 00.186-.082c.06-.04.114-.084.163-.134a.276.276 0 01-.044-.156.22.22 0 01.044-.134.216.216 0 00-.193.037.652.652 0 00-.164.141c-.03.04-.06.085-.09.134-.03.05-.04.1-.03.15.006.04.02.059.045.059a.262.262 0 00.082-.015z" fill="#A5A5A5"/><path d="M85.197 46.965c.034-.02.064-.027.089-.022a.1.1 0 01.067.037c.015.015.02.035.015.06-.005.025-.022.045-.052.06a6.329 6.329 0 01-.641.305 6.015 6.015 0 01-.64.209 3.81 3.81 0 01-.59.111c-.183.02-.35.018-.498-.007a.594.594 0 01-.239-.082.335.335 0 01-.134-.209.394.394 0 010-.186.702.702 0 01.067-.179.344.344 0 00-.067.053 11.058 11.058 0 00-.313.246 3.024 3.024 0 01-.238.186 2 2 0 01-.164.111c-.065.035-.124.035-.18 0a.133.133 0 01-.074-.082.475.475 0 010-.119.736.736 0 01.09-.216l.06-.09a.6.6 0 00.052-.096.857.857 0 00-.21.112 12.27 12.27 0 01-.185.126l-.224.164c-.07.05-.144.1-.223.15a1.21 1.21 0 01-.082.044.356.356 0 01-.097.015.12.12 0 01-.075-.022c-.025-.02-.04-.053-.044-.097a.327.327 0 01.074-.216 3.558 3.558 0 01.171-.254.086.086 0 01.015-.022l.023-.023a.363.363 0 01.037-.052c.02-.024.042-.037.067-.037.03 0 .052.01.067.03a.1.1 0 01.037.067c.01.025.005.052-.014.082l-.045.067-.03.03a8.149 8.149 0 00-.06.119c.115-.08.229-.161.343-.246a1.78 1.78 0 01.365-.209l.097-.03a.22.22 0 01.097-.007c.035 0 .064.01.09.03.024.015.041.042.051.082.015.07-.002.147-.052.231-.05.08-.094.164-.134.253.06-.04.117-.082.171-.126.06-.045.117-.09.172-.135.07-.054.136-.109.201-.163.07-.055.142-.105.216-.15.05-.024.107-.05.171-.074a.178.178 0 01.18.023c.064.05.071.106.022.17-.04.055-.087.125-.142.21-.05.084-.062.16-.037.23.02.055.064.092.134.112.074.02.137.03.186.03.288 0 .609-.047.961-.142a5.18 5.18 0 001.096-.462z" fill="#A5A5A5"/><path d="M87.98 46.944c.035-.005.063.003.082.023.02.014.03.034.03.06 0 .02-.007.041-.022.066-.015.02-.04.032-.075.037a8.578 8.578 0 00-1.005.202c-.338.084-.666.176-.984.275a1.406 1.406 0 01-.41.35.302.302 0 01-.149.038c-.05.005-.091-.018-.126-.067a.193.193 0 01-.03-.127.2.2 0 01.067-.112.556.556 0 01.156-.097c.06-.024.117-.047.172-.067l.111-.044c.02-.03.038-.06.053-.09.02-.035.022-.064.007-.09-.01-.024-.03-.031-.06-.022a.24.24 0 00-.096.045.667.667 0 00-.097.067l-.09.075a2.79 2.79 0 00-.238.223 5 5 0 00-.216.246 9.53 9.53 0 00-.454.551c-.145.19-.289.38-.433.574l-.29.402-.09.12a.23.23 0 01-.074.052c-.025.01-.05.005-.075-.015a.116.116 0 01-.06-.06c-.01-.05.008-.101.053-.156a1.41 1.41 0 00.104-.142l.403-.566c.129-.184.258-.37.387-.559l.372-.551c.125-.189.231-.385.32-.589.016-.03.036-.047.06-.052a.081.081 0 01.067.015.158.158 0 01.06.067c.015.025.015.052 0 .082a2.49 2.49 0 01-.156.306l.089-.09a3.81 3.81 0 01.209-.164.525.525 0 01.238-.111.218.218 0 01.231.081c.065.07.085.167.06.291a12.457 12.457 0 011.9-.477z" fill="#A5A5A5"/><path d="M90.812 46.959a.08.08 0 01.074-.008.095.095 0 01.06.037c.015.02.02.045.015.075 0 .025-.015.044-.045.06a8.92 8.92 0 01-1.028.528 3.018 3.018 0 01-.373.127 1.99 1.99 0 01-.32.045 2.008 2.008 0 01-.179.007.828.828 0 01-.186-.022.547.547 0 01-.32-.268.81.81 0 01-.068-.194 4.42 4.42 0 01-.268.26 1.01 1.01 0 01-.305.187.48.48 0 01-.187.037c-.07 0-.124-.035-.164-.104a.249.249 0 01-.022-.112c0-.045.008-.09.022-.134a1.006 1.006 0 01.097-.23.802.802 0 01.164-.187.744.744 0 01.224-.134.62.62 0 01.246-.038c.084.005.161.04.23.105a.111.111 0 01.105.007c.04.02.057.05.052.09a.455.455 0 000 .163c.015.06.037.117.067.172.035.05.077.094.127.134a.466.466 0 00.193.067.93.93 0 00.365-.037c.16-.045.326-.102.5-.172a4.786 4.786 0 00.924-.462zm-3.092.663c.03 0 .072-.018.126-.053a6.19 6.19 0 00.164-.119c.06-.05.12-.102.179-.156.06-.055.11-.104.149-.15l-.045-.022a.323.323 0 00-.171-.014.307.307 0 00-.156.074.833.833 0 00-.164.194.536.536 0 00-.097.223c0 .015.005.023.015.023z" fill="#A5A5A5"/><path d="M93.69 46.97c.03-.02.057-.025.082-.015.025.005.042.02.052.045.01.02.01.045 0 .075a.11.11 0 01-.052.074 9.135 9.135 0 01-.596.328 6.338 6.338 0 01-.32.156 3.222 3.222 0 01-.298.112c-.125.04-.254.075-.388.104-.134.03-.266.035-.395.015a.527.527 0 01-.208-.074.28.28 0 01-.127-.179.334.334 0 010-.171.991.991 0 01.06-.172l-.246.142-.239.149a2.708 2.708 0 01-.238.127 4.178 4.178 0 01-.157.081.283.283 0 01-.178.015c-.05-.015-.08-.04-.09-.074a.211.211 0 010-.112.24.24 0 01.045-.112c.02-.04.04-.072.06-.096a22.783 22.783 0 00.328-.395.113.113 0 01.089-.045c.035 0 .064.022.09.067.019.035.014.07-.016.104a2.147 2.147 0 01-.067.09c-.035.04-.067.08-.097.119-.035.04-.067.08-.097.12l-.067.088c.134-.054.266-.124.395-.208.134-.085.263-.164.388-.239l.156-.089c.055-.035.11-.065.164-.09a.428.428 0 01.075-.022.08.08 0 01.074.008c.03.02.047.047.052.082.005.03 0 .06-.015.09a1.453 1.453 0 01-.171.238.367.367 0 00-.097.268c0 .035.017.062.052.082.03.015.062.025.097.03h.104c.12 0 .236-.015.35-.045.12-.035.237-.072.35-.112.08-.03.17-.067.269-.112a8.035 8.035 0 00.581-.29c.094-.055.177-.107.246-.157z" fill="#A5A5A5"/><path d="M96.89 46.95c.04-.01.07-.007.089.008a.09.09 0 01.045.06.1.1 0 01-.015.074.09.09 0 01-.06.053l-.358.111c-.382.13-.76.269-1.132.417-.373.15-.738.313-1.095.492l-.075.134a5.596 5.596 0 01-.812 1.17c-.1.104-.21.209-.335.313a.873.873 0 01-.402.209.372.372 0 01-.32-.075.381.381 0 01-.157-.29.404.404 0 01.037-.202.775.775 0 01.104-.186.983.983 0 01.142-.156c.05-.05.097-.095.141-.135.17-.144.348-.275.537-.394.189-.12.38-.231.574-.336l.394-.2c.055-.085.1-.18.135-.284.04-.104.077-.22.111-.35-.07.04-.136.082-.2.127-.065.04-.132.079-.202.119-.07.04-.144.072-.224.097a.297.297 0 01-.223-.03c-.07-.04-.11-.09-.12-.15a.407.407 0 01.023-.2c.02-.07.05-.137.09-.201.04-.065.074-.117.104-.157a.092.092 0 01.074-.037c.03-.005.055 0 .075.015a.09.09 0 01.052.052c.01.025.005.052-.015.082l-.067.104-.045.075a.605.605 0 00-.082.186c-.005.03.005.05.03.06.025.01.052.007.082-.008l.09-.037a2.94 2.94 0 00.126-.075c.045-.025.087-.05.127-.074l.179-.127a.501.501 0 01.2-.097c.055-.01.093-.002.113.023a.2.2 0 01.037.104.37.37 0 01-.008.127c-.01.044-.017.082-.022.111-.01.05-.02.09-.03.12l-.03.089-.037.09c-.01.03-.025.066-.044.111.387-.184.782-.353 1.184-.506.402-.154.807-.296 1.215-.425zm-3.241 1.99c.139-.194.263-.385.372-.574l-.335.18c-.17.099-.335.2-.5.305a3.322 3.322 0 00-.461.372c-.045.04-.087.085-.127.134a.616.616 0 00-.104.157.205.205 0 00.007.194c.04.064.095.094.164.089a.418.418 0 00.142-.052.871.871 0 00.134-.082c.144-.1.275-.216.395-.35.114-.13.22-.264.32-.403l-.007.03z" fill="#A5A5A5"/></svg>