<svg width="83" height="42" viewBox="0 0 83 42" fill="none" xmlns="http://www.w3.org/2000/svg"><mask id="mask0_4917_5807" style="mask-type:luminance" maskUnits="userSpaceOnUse" x="0" y="0" width="83" height="42"><path d="M82.22 0H0v42h82.22V0z" fill="#fff"/></mask><g mask="url(#mask0_4917_5807)"><path d="M.389 42.007v-3.704l1.565-1.598h3.138v5.302H4.05V40.42H1.437v1.587H.389zm1.048-2.64H4.05v-1.603H2.477l-1.04 1.066v.537zm4.402 2.64v-5.302h1.048v2.125h1.564l1.05-1.06v-1.067h1.04V38.3l-1.04 1.056 1.04 1.061v1.59h-1.04v-1.06l-1.05-1.05H6.887v2.11H5.84zm5.376 0v-5.302H15.4l.518.538v1.587l-.518.526.518.532v1.59l-.518.529h-4.185zm1.048-1.06h2.613v-1.05h-2.613v1.05zm0-2.11h2.613v-1.066h-2.613v1.067zm4.324 3.17v-3.704l1.565-1.598h3.139v5.302h-1.042V40.42h-2.613v1.587h-1.049zm1.049-2.64h2.613v-1.603h-1.573l-1.04 1.066v.537zm4.402 2.64v-5.302h1.048l1.829 2.567 1.857-2.567h1.009v5.302h-1.049v-3.578l-1.367 2.035h-.878l-1.401-2.035v3.578h-1.048zm6.415 0v-3.704l1.567-1.598h3.13v5.302h-1.04V40.42H29.5v1.587h-1.047zm1.049-2.64h2.614v-1.603h-1.574L29.5 38.83l.002.537zm4.4 2.64v-5.302h4.185l.518.538v2.648l-.518.529h-3.142v1.587h-1.043zm1.043-2.647h2.624v-1.596h-2.624v1.596zm4.333 2.647v-5.302h1.054v3.527l2.613-3.527h1.041v5.302h-1.041V38.47l-2.613 3.537h-1.054zm5.447 0v-5.302h1.049v2.125h2.614v-2.125h1.04v5.302h-1.04v-2.118h-2.614v2.118h-1.049zm5.45 0v-5.302h4.695v5.302h-1.04v-4.243h-2.608v4.243h-1.048zm5.447 0v-5.302h4.185l.518.538v2.648l-.518.529H56.67v1.587h-1.048zm1.048-2.64h2.613v-1.603H56.67v1.603zm4.327 2.12v-4.244l.518-.538h3.666l.518.538v4.236l-.518.528h-3.666l-.518-.52zm1.049-.54h2.613V37.77h-2.613v3.177zm4.399 1.06v-5.302h4.447v1.06h-3.399v1.065h3.137v1.058h-3.137v1.051h3.399v1.068h-4.447zm5.118 0v-5.302h1.049v2.125h1.559l1.049-1.06v-1.067h1.041V38.3l-1.041 1.056 1.041 1.061v1.59H75.22v-1.06l-1.05-1.05h-1.558v2.11h-1.049zm5.16-4.236v-1.06h4.687v1.06h-1.812v4.236H78.55v-4.243l-1.827.007zM.552 31.89l3.605 1.105a2.676 2.676 0 001.61.01L9.1 32.02a2.67 2.67 0 011.608.01l3.325 1.017c.522.168 1.083.17 1.607.009l3.336-.983a2.682 2.682 0 011.608.009l1.399.43.663 1.159-2.072-.633a2.673 2.673 0 00-1.608-.01l-3.335.984a2.672 2.672 0 01-1.608-.01l-3.325-1.018a2.672 2.672 0 00-1.607-.008l-3.336.982a2.671 2.671 0 01-1.608-.01L.28 32.765a.414.414 0 01-.276-.515l.025-.084a.414.414 0 01.523-.277zm1.601-2.092l3.008.922c.437.137.906.137 1.343 0l2.781-.82a2.236 2.236 0 011.343 0l2.77.864c.435.14.904.143 1.342.008l2.783-.82a2.232 2.232 0 011.341 0l1.167.357.553.967-1.724-.529a2.237 2.237 0 00-1.343-.007l-2.783.82a2.234 2.234 0 01-1.341-.007l-2.775-.85a2.232 2.232 0 00-1.341-.007l-2.783.82a2.238 2.238 0 01-1.343-.008l-3.218-.98a.346.346 0 01-.228-.43l.021-.07a.343.343 0 01.427-.23z" fill="#A4A4A4"/><path fill-rule="evenodd" clip-rule="evenodd" d="M30.813 22.137l4.921-10.334 5.1-10.708-22.37 21.042h12.349zm15.659-10.334l4.922 10.334h12.363L41.373 1.095l5.1 10.708z" fill="#A4A4A4"/><path fill-rule="evenodd" clip-rule="evenodd" d="M41.256.58l5.37 11.274 5.37 11.275H30.517l5.368-11.275L41.256.58z" fill="#A4A4A4"/><path d="M18.131 21.907h46.35c-2.38 4.171-4.763 8.34-7.149 12.51H24.896l-7.159-12.51h.394zm45.565.46H18.53l6.63 11.59h31.91l6.625-11.59z" fill="#A4A4A4"/><path d="M41.306.424a79021.89 79021.89 0 0110.895 22.878H30.004l11.1-23.306.202.428zm4.962 11.467L41.103 1.046 30.725 22.849H51.48l-5.212-10.958z" fill="#A4A4A4"/><path fill-rule="evenodd" clip-rule="evenodd" d="M18.13 22.137h45.96l-6.888 12.048H25.027l-6.896-12.048z" fill="#A4A4A4" stroke="#E4E4E5" stroke-width=".133" stroke-miterlimit="10"/><path fill-rule="evenodd" clip-rule="evenodd" d="M41.102 14.682l1.218 2.332 1.217 2.334h-4.869l1.217-2.334 1.217-2.332z" fill="#E4E4E5"/><path fill-rule="evenodd" clip-rule="evenodd" d="M31.172 21.906l9.931-20.85 5.167 10.845 4.765 10.005H31.172zm33.31 0L41.102 0c-7.708 7.252-15.659 14.653-23.366 21.906l7.16 12.51h32.435c2.386-4.17 4.77-8.34 7.15-12.51zm-12.728.46h11.942l-6.63 11.59H45.027v.177H41.66l.103-.183h-1.279l.132.231h-3.42v-.23H25.157l-6.63-11.59h33.227v.005zM42.193 2.22l20.91 19.658H51.555L42.193 2.22zM19.116 21.877L40.012 2.22l-9.36 19.658H19.116z" fill="#A4A4A4"/><path d="M18.131 21.907h46.35c-2.38 4.171-4.763 8.34-7.149 12.51H24.896l-7.159-12.51h.394zm45.565.46H18.53l6.63 11.59h31.91l6.625-11.59z" fill="#A4A4A4"/><path fill-rule="evenodd" clip-rule="evenodd" d="M46.268 11.901L41.102 1.056l-9.93 20.85h3.321l6.622-13.865 6.623 13.865h3.295l-4.765-10.005zM30.451 22.366H18.524l1.744 3.046H30.82v8.544h3.544v-8.544h4.282l2.458 4.666 2.438-4.666h4.298v8.544h3.545v-8.544H61.95l1.74-3.046H30.45zm10.166 11.587l-1.87-3.285-1.71-2.993v6.28l3.58-.002zm.986 0l1.87-3.285 1.71-2.993v6.28l-3.58-.002zM30.08 20.875l7.048-14.802-15.736 14.802h8.687zm22.033.001h8.7L45.06 6.068l7.053 14.808z" fill="#E4E4E5"/><path d="M81.667 31.89l-3.607 1.105a2.674 2.674 0 01-1.608.01l-3.335-.983a2.672 2.672 0 00-1.608.01l-3.323 1.017a2.687 2.687 0 01-1.61.009l-3.333-.983a2.682 2.682 0 00-1.608.009l-1.4.43-.664 1.158 2.072-.632a2.673 2.673 0 011.608-.01l3.336.984a2.673 2.673 0 001.607-.01l3.323-1.018a2.676 2.676 0 011.61-.008l3.334.982a2.67 2.67 0 001.607-.01l3.868-1.184a.416.416 0 00.276-.515l-.025-.084a.413.413 0 00-.52-.277zm-1.6-2.093l-3.008.921a2.236 2.236 0 01-1.343 0l-2.788-.812a2.234 2.234 0 00-1.341 0l-2.776.85c-.435.14-.903.142-1.34.008l-2.784-.821a2.238 2.238 0 00-1.342 0l-1.167.358-.553.967 1.725-.53a2.24 2.24 0 011.341-.006l2.783.819c.438.135.907.133 1.343-.007l2.773-.85a2.24 2.24 0 011.343-.006l2.783.819c.437.135.905.133 1.341-.007l3.225-.988a.346.346 0 00.228-.43l-.02-.071a.345.345 0 00-.423-.214z" fill="#A4A4A4"/></g></svg>