<svg width="239" height="28" viewBox="0 0 239 28" fill="none" xmlns="http://www.w3.org/2000/svg"><path d="M234.555.464h3.519v27.072h-3.519V.464zm-29.184 27.072V.464h8.895c2.14 0 4.1.348 5.879 1.044 1.779.67 3.3 1.611 4.563 2.823a12.095 12.095 0 012.978 4.254c.722 1.65 1.083 3.43 1.083 5.337 0 1.986-.374 3.816-1.122 5.492a12.95 12.95 0 01-3.016 4.293c-1.264 1.212-2.746 2.153-4.448 2.823-1.701.67-3.519 1.006-5.453 1.006h-9.359zm3.519-1.702h4.255c2.114 0 3.906-.348 5.375-1.044 1.496-.722 2.72-1.65 3.674-2.785a10.955 10.955 0 002.089-3.79c.438-1.418.657-2.823.657-4.215 0-1.547-.258-3.03-.773-4.448a10.894 10.894 0 00-2.282-3.79c-.98-1.108-2.205-1.985-3.674-2.63-1.47-.644-3.159-.966-5.066-.966h-4.255v23.668zM178.771.464h8.779c1.727 0 3.158.245 4.292.735 1.135.464 2.024 1.057 2.669 1.779.67.696 1.134 1.456 1.392 2.281.284.825.426 1.586.426 2.282 0 .774-.129 1.573-.387 2.398a6.887 6.887 0 01-1.238 2.243c-.567.696-1.302 1.276-2.204 1.74-.877.464-1.934.735-3.171.813v.154l.386.194c.31.154.567.348.774.58.232.232.515.606.851 1.121.361.516.838 1.25 1.431 2.205.593.928 1.43 2.178 2.513 3.751a27.49 27.49 0 001.045 1.47c.335.412.683.773 1.044 1.083a4.35 4.35 0 001.16.657c.412.155.889.232 1.431.232h.387l.386-.077v1.43a3.048 3.048 0 01-1.083.387c-.36.052-.825.078-1.392.078-.773 0-1.444-.103-2.011-.31a5.804 5.804 0 01-1.469-.812 8.307 8.307 0 01-1.238-1.276 34.874 34.874 0 01-1.122-1.624l-3.055-4.525a78.134 78.134 0 00-1.199-1.818 5.473 5.473 0 00-1.083-1.199 3.508 3.508 0 00-1.314-.657c-.465-.13-1.058-.194-1.78-.194h-1.701v11.95h-3.519V.465zm3.519 1.702v11.68h3.983c1.032 0 1.934-.181 2.707-.542.8-.361 1.47-.825 2.011-1.393a5.872 5.872 0 001.199-1.933 5.785 5.785 0 00.426-2.127 5.56 5.56 0 00-.464-2.282 4.62 4.62 0 00-1.277-1.78c-.567-.515-1.25-.914-2.049-1.198-.774-.284-1.65-.425-2.63-.425h-3.906zM157.055.464h17.48V2.59h-13.961v9.707h11.989v1.78h-11.989v11.33h13.961v2.128h-17.48V.464zm-28.902 0h4.177l9.282 22.276h.155L150.778.464h2.011l-10.984 27.072h-2.32L128.153.464zm-20.228 19.105H94.583l-3.404 7.967H89.4L100.848.464h1.934l12.607 27.072h-3.751l-3.713-7.967zm-.812-1.74l-6.072-13.034h-.154l-5.57 13.033h11.796zM83.383.464h1.78V28h-.194L63.505 6.845h-.155v20.69h-1.779V0h.194l21.464 21.155h.154V.465zm-31.311 0h1.779V28h-.193L32.193 6.845h-.154v20.69h-1.78V0h.194l21.464 21.155h.155V.465zM18.525 19.569H5.182L1.78 27.536H0L11.447.464h1.934L25.99 27.536h-3.751l-3.713-7.967zm-.812-1.74L11.64 4.794h-.155L5.917 17.828h11.796z" fill="#A5A5A5"/></svg>