<svg width="136" height="35" viewBox="0 0 136 35" fill="none" xmlns="http://www.w3.org/2000/svg"><g clip-path="url(#clip0_4914_5506)"><path fill-rule="evenodd" clip-rule="evenodd" d="M77.487.252c-1.418.368-2.358.923-3.345 1.975-1.071 1.14-1.577 2.244-1.86 4.058l-.21 1.352.203 1.225c.442 2.661 1.875 4.654 4.084 5.68l1.128.525h2.066c1.136 0 2.414-.105 2.839-.234 1.047-.318 2.766-1.47 3.144-2.11l.31-.521V7.92l-.344-.31-.343-.31h-5.7l-.376.374c-.206.206-.376.5-.376.655 0 .154.17.45.376.655l.376.374h4.32v2.415l-.61.454c-.885.658-1.933.947-3.428.945l-1.315-.002-.988-.432c-1.076-.471-2.004-1.391-2.432-2.414-.731-1.743-.67-4.264.14-5.848.46-.896 1.673-1.924 2.596-2.2.981-.293 2.906-.274 3.648.035.604.252 2.014 1.645 2.014 1.99 0 .1.21.32.468.488.567.37 1.315.23 1.6-.3l.2-.373-.213-.794c-.287-1.07-1.516-2.227-2.93-2.76-1.35-.51-3.716-.655-5.042-.31zm15.872.016c-2.826.784-4.585 2.799-5.103 5.848l-.228 1.343.223 1.427c.421 2.701 1.714 4.519 3.981 5.6l1.221.581 2.16-.005 2.16-.005 1.105-.438c.663-.264 1.47-.79 2.019-1.318l.915-.879V7.92l-.343-.31-.343-.31h-5.7l-.376.374c-.207.206-.376.5-.376.655 0 .154.17.45.376.655l.376.374h4.32v2.376l-.335.302c-.185.167-.756.489-1.269.716l-.932.413-1.409.005-1.408.004-.995-.437c-1.954-.86-2.96-2.692-2.932-5.344l.016-1.497.432-.99c.529-1.212 1.758-2.337 2.904-2.657.463-.129 1.427-.2 2.156-.16l1.318.075.523.385c.287.212.838.8 1.224 1.305.838 1.098 1.283 1.34 1.93 1.046l.468-.213V3.051l-.556-.764C99.548.453 96.065-.483 93.359.268zm35.088-.017c-1.363.384-2.328 1.152-2.893 2.301l-.494 1.006.08 1.104.08 1.104.517.675c.675.88 1.448 1.256 4.239 2.056 2.774.796 3.397 1.132 3.733 2.01l.254.666-.289.69-.289.69-.806.363c-.899.407-2.466.483-3.581.175-.795-.22-1.859-1.073-2.329-1.866-.171-.288-.519-.619-.773-.734l-.461-.21-.469.306-.469.306.097.721c.279 2.067 2.709 3.547 5.826 3.547 2.004 0 3.322-.39 4.305-1.274.961-.865 1.276-1.599 1.274-2.979l-.001-1.082-.421-.694c-.651-1.07-1.548-1.604-3.897-2.317-4.087-1.242-4.321-1.39-4.321-2.753V3.34l.529-.526c.359-.358.874-.598 1.609-.75l1.08-.224.934.223.934.224.974 1.103.974 1.102h1.052l.211-.462.212-.463-.323-.842c-.613-1.6-2.28-2.541-4.695-2.653-.914-.043-1.87.028-2.403.179zM28.531.468c.799.248 1.928 1.147 2.303 1.834l.183.336-.903-.456c-1.216-.613-2.778-1.059-3.709-1.058-1.483.001-2.502 1.096-2.013 2.165.26.57.502.584.543.033.038-.505.691-1.076 1.231-1.076.485 0 1.742.613 2.455 1.198l.537.44-.848.78c-.903.83-1.411 1.704-1.576 2.715-.147.902.2.984 1.293.307.522-.323.974-.564 1.003-.534.029.03-.057.37-.19.756-.648 1.874-2.103 2.785-5.301 3.32-1.118.188-2.54.527-3.158.754-2.099.77-2.97.933-5.024.933-1.39 0-2.247.089-2.713.283-.86.359-1.182.253-2.009-.659-1.035-1.141-1.178-.138-.194 1.36l.462.704-.271.523c-.15.287-.4 1.193-.555 2.012-.482 2.532-.962 3.363-2.516 4.356-.553.354-1.086.898-1.355 1.383-1.441 2.601-3.977 5.477-5.327 6.038-.355.148-.698.405-.762.572-.24.624-.116 1.916.224 2.335l.34.419.693-.807c.381-.443.693-.954.693-1.134 0-.528 2.12-3.036 3.513-4.159 1.667-1.341 2.831-1.894 4.564-2.167.775-.123 1.599-.347 1.832-.498.635-.415.514-.103-.421 1.084-.846 1.073-2.167 2.208-3.268 2.806-.324.175-.679.554-.79.842-.211.549-.113 1.684.17 1.966.292.29 1.789-1.01 1.991-1.73.288-1.025 2.365-2.956 4.188-3.892 2.305-1.185 3.965-1.766 4.96-1.738l.865.025.324-.844c.178-.465.382-.845.453-.845.072 0 .078.568.015 1.263s-.028 2.127.077 3.182l.192 1.919-.333 1.076c-.183.592-.754 1.869-1.27 2.838l-.935 1.761.31.812c.172.447.424.812.561.812.35 0 1.2-1.051 1.337-1.652.687-3.017 1.316-4.979 1.956-6.102.18-.316.378-1.038.44-1.604.061-.566.237-1.45.39-1.966l.28-.935.805-.244c.442-.134 1.277-.531 1.855-.882l1.05-.639.946.358c.52.197 1.368.414 1.884.482.516.069 1.044.19 1.173.269l.234.144-.327 1.004c-.566 1.742-2.209 4.093-2.858 4.093-.55 0-.833 1.88-.378 2.5l.239.325.895-1.033c.492-.569 1.022-1.393 1.178-1.834.319-.904 1.514-2.99 2.456-4.288.346-.477.629-1.04.629-1.252 0-.247-.387-.684-1.08-1.22-.594-.46-1.39-1.16-1.77-1.555l-.689-.72 1.012-2.06c.943-1.92 1.963-5.136 1.963-6.191 0-.297-.175-.533-.53-.716-.56-.29-1.131-.861-.854-.857.09.001.7.17 1.354.374.655.205 1.433.372 1.729.372h.538l.316.663c.174.365.558.789.854.941.627.323.623.33.256-.546-.372-.888-.38-.87.376-.87.669 0 1.415-.524 1.402-.983-.013-.482-.518-1.123-1.415-1.797-.51-.383-1.331-1.282-1.826-1.999-.495-.716-1.129-1.417-1.409-1.558-.28-.141-.89-.617-1.354-1.058C30.944.659 29.915.184 28.702.2l-.995.012.824.256zm35.182.038c-.502.416-5.105 12.719-5.105 13.645 0 .424.116.684.363.816.987.526 1.48.02 2.26-2.315l.605-1.806 2.912.052 2.913.051.686 1.865.687 1.865.494.277.495.276.492-.32c.29-.19.49-.493.487-.738-.005-.589-4.598-12.835-5.03-13.415l-.357-.478-.748-.056c-.508-.038-.877.052-1.154.28zm41.424.014l-.319.352v13.54l.376.374c.512.51 1.024.47 1.489-.119l.389-.493-.003-6.479-.002-6.478-.237-.468c-.305-.605-1.237-.73-1.693-.229zm5.815.01l-.311.342v13.7l.295.295c.584.581 1.457.207 1.692-.727.06-.238.081-2.633.047-5.321-.034-2.689-.046-4.889-.028-4.889s1.561 2.433 3.427 5.405l3.394 5.405.576.238.577.238.505-.375.504-.376.049-6.883.05-6.883-.213-.256c-.295-.353-1.194-.321-1.507.054l-.257.309-.094 5.243-.094 5.243-3.172-5.092c-1.745-2.8-3.336-5.299-3.536-5.552-.447-.566-1.441-.628-1.904-.118zM46.144.654l-.31.309v13.44l.465.304.465.303 3.339-.07 3.34-.07.932-.423c.512-.233 1.092-.568 1.288-.744.452-.408.978-1.453 1.13-2.245.294-1.538-.763-3.725-2.018-4.177l-.66-.238.558-.338c.878-.532 1.304-1.394 1.304-2.641.001-1.473-.494-2.4-1.642-3.073l-.893-.523-3.494-.061-3.495-.061-.309.308zm1.797 3.604l.054 2.012 2.066-.016 2.066-.016.6-.31c1.614-.836 1.584-2.739-.055-3.421-.407-.17-1.352-.26-2.705-.26h-2.079l.053 2.011zm15.704 1.628c-.568 1.6-.99 2.95-.938 3.002.154.153 4.166.11 4.166-.044 0-.227-1.924-5.555-2.065-5.716-.07-.081-.594 1.16-1.163 2.758zM47.992 8.271c-.056.147-.079 1.273-.05 2.502l.054 2.235 2.348-.013 2.348-.014.564-.295c.31-.162.733-.48.94-.708l.374-.413v-1.98l-.375-.413c-.742-.817-1.392-1.003-3.801-1.088l-2.299-.08-.103.267zm1.952 11.862c-1.947.597-3.75 2.352-4.384 4.267-.427 1.29-.571 3.536-.307 4.798.507 2.43 1.793 4.113 3.889 5.09l1.202.56 1.456.1 1.456.099 1.214-.311c.668-.17 1.622-.57 2.12-.889 1.552-.992 2.306-2.853 1.463-3.613-.577-.52-1.213-.231-2.089.95-.952 1.284-1.87 1.747-3.473 1.753-1.492.006-2.7-.42-3.565-1.258-.957-.926-1.42-2.062-1.537-3.778l-.1-1.436.308-1.054c.405-1.386 1.31-2.537 2.457-3.125l.928-.476 1.418.007c1.971.01 2.206.15 4.139 2.468.385.462 1.283.569 1.657.196.613-.61.062-2.212-1.104-3.207-1.528-1.303-4.878-1.838-7.148-1.141zm15.586-.043c-1.14.423-2.326 1.193-2.978 1.933-2.268 2.573-2.436 7.374-.36 10.254 2.047 2.84 6.661 3.577 9.687 1.548 1.114-.747 1.97-1.85 2.532-3.264l.43-1.082v-4.305l-.428-1.076c-.564-1.418-2.002-2.973-3.368-3.639l-1.067-.52-1.88-.052c-1.245-.034-2.114.035-2.568.203zm12.625.301l-.386.385v13.449l.295.294c.35.348 1.227.387 1.546.07.158-.157.226-1.17.226-3.357V28.1l3.115-.06 3.114-.059.267-.363c.36-.493.335-.785-.11-1.227l-.375-.375h-6.012v-3.93h6.879l.34-.249c.384-.28.456-1.163.121-1.497-.152-.151-1.524-.237-4.428-.276l-4.207-.057-.386.384zm12.012.01l-.376.375V33.98l.293.416a.993.993 0 00.834.416c.348 0 .648-.15.835-.416l.293-.416v-5.906h5.74l.416-.291c.234-.163.418-.489.418-.738 0-.25-.184-.576-.418-.738l-.417-.292h-5.74v-3.93h6.761l.377-.375c.206-.205.375-.5.375-.655 0-.154-.169-.449-.375-.655l-.376-.374h-8.265l-.376.374zm12.252-.083l-.418.291v13.568l.226.224.225.225h8.866l.226-.225c.124-.123.225-.443.225-.711 0-.268-.101-.588-.225-.711l-.226-.225h-7.25V28.1l3.209-.06 3.208-.059.267-.363c.361-.493.335-.785-.11-1.227l-.375-.375h-6.199v-3.93h6.95l.376-.375c.206-.205.375-.5.375-.655 0-.154-.169-.449-.375-.655l-.376-.374h-8.182l-.417.291zm12.398 0l-.418.291v13.429l.295.294.296.294h8.743l.311-.343c.403-.443.394-.834-.028-1.215l-.339-.305-3.559-.051-3.559-.051-.052-2.293-.053-2.293h6.126l.417-.291c.233-.163.418-.489.418-.738 0-.25-.185-.576-.418-.738l-.417-.292h-6.116v-3.93h6.867l.417-.292c.234-.162.418-.488.418-.738s-.184-.575-.418-.738l-.417-.291h-8.098l-.417.291zm-48.372 1.66c-1.227.328-2.186 1.151-2.858 2.452l-.564 1.091.001 1.792v1.791l.444.979c.536 1.183 1.79 2.383 2.776 2.656.398.11 1.194.2 1.767.201l1.044.001.97-.481c1.84-.914 2.789-2.895 2.63-5.492-.158-2.61-1.35-4.37-3.362-4.965-1.162-.344-1.642-.349-2.848-.026z" fill="#A5A5A5"/></g><defs><clipPath id="clip0_4914_5506"><path fill="#fff" d="M0 0h136v35H0z"/></clipPath></defs></svg>