<svg width="122" height="35" viewBox="0 0 122 35" fill="none" xmlns="http://www.w3.org/2000/svg"><g clip-path="url(#clip0_4914_5476)"><path d="M121.406 20.19h-3.081v3.059h3.081V20.19zM4.565 33.556H.2v-17.33h4.365c2.396 0 4.364 1.954 4.364 4.332v1.445c0 1.047-.228 1.953-1.112 2.888.713.764 1.112 1.84 1.112 2.888v1.444c0 2.379-1.94 4.333-4.364 4.333zm1.483-12.998c0-.793-.656-1.444-1.483-1.444H3.138v4.333h1.427c.798 0 1.483-.652 1.483-1.473v-1.416zm0 7.221c0-.793-.656-1.472-1.483-1.472H3.138v4.332h1.427c.798 0 1.483-.623 1.483-1.444V27.78zm8.7 5.777c-2.396 0-4.364-1.954-4.364-4.333v-8.665c0-2.378 1.968-4.332 4.364-4.332s4.365 1.954 4.365 4.332h-2.91c0-.793-.627-1.444-1.455-1.444-.798 0-1.455.623-1.455 1.444v8.665c0 .793.628 1.445 1.455 1.445.799 0 1.455-.623 1.455-1.445h2.91c0 2.379-1.969 4.333-4.365 4.333zm10.184 0c-2.396 0-4.365-1.954-4.365-4.333v-8.665c0-2.378 1.969-4.332 4.365-4.332s4.364 1.954 4.364 4.332v6.06h-5.819v2.605c0 .793.628 1.445 1.455 1.445.799 0 1.455-.623 1.455-1.445h2.91c0 2.379-1.969 4.333-4.365 4.333zm1.426-12.998c0-.793-.627-1.444-1.455-1.444-.798 0-1.454.623-1.454 1.444v3.2h2.88v-3.2h.03zM45.157 35v-1.444H39.28V35h-2.882v-4.332h1.484v-10.11c0-2.378 1.968-4.332 4.364-4.332h5.82v2.888h-1.455V30.64h1.455v4.333h-2.91V35zm-1.483-15.886h-1.455c-.77 0-1.484.623-1.484 1.444v10.11h2.91V19.114h.029zm9.812 14.442c-2.396 0-4.364-1.954-4.364-4.333v-8.665c0-2.378 1.968-4.332 4.364-4.332 2.397 0 4.365 1.954 4.365 4.332v8.665c0 2.379-1.94 4.333-4.364 4.333zm1.455-12.998c0-.793-.627-1.444-1.455-1.444-.798 0-1.454.623-1.454 1.444v8.665c0 .793.627 1.445 1.455 1.445.798 0 1.454-.623 1.454-1.445v-8.665zM69.86 33.556V21.21l-3.822 6.57-3.822-6.57v12.346h-2.91v-17.33h3.366l3.366 5.777 3.366-5.777h3.337v17.33h-2.88zm11.639-1.104c-.771.708-1.826 1.104-2.91 1.104-2.396 0-4.364-1.954-4.364-4.333v-2.888c0-2.379 1.968-4.332 4.364-4.332h1.455v-1.445c0-.793-.628-1.444-1.455-1.444-.799 0-1.455.623-1.455 1.444h-2.91c0-2.378 1.969-4.332 4.365-4.332s4.364 1.954 4.364 4.332v8.665c0 .793.628 1.445 1.455 1.445v2.888c-1.112 0-2.14-.396-2.91-1.104zm-1.484-7.561H78.56c-.798 0-1.454.623-1.454 1.444v2.888c0 .793.627 1.445 1.454 1.445.8 0 1.455-.623 1.455-1.445v-4.332zM12.75 6.003h-.399a.389.389 0 00-.399.397v.424c.114-.028.257-.056.4-.056a1.2 1.2 0 011.197 1.19v2.038a1.2 1.2 0 01-1.198 1.19 1.2 1.2 0 01-1.198-1.19V6.4a1.2 1.2 0 011.198-1.19h.4c.228 0 .4-.17.4-.396h.798a1.2 1.2 0 01-1.198 1.19zm0 1.954a.389.389 0 00-.399-.396c-.2 0-.399.17-.399.368v2.067c0 .227.171.396.4.396.228 0 .399-.17.399-.396V7.957zm7.617 4.843h-1.226v-.793h1.255c.228 0 .37-.17.37-.397v-.453a1.697 1.697 0 01-.399.057 1.2 1.2 0 01-1.198-1.19V6.4h.799v3.596c0 .226.171.396.4.396.199 0 .399-.17.399-.368V6.4h.798v5.182c0 .68-.513 1.217-1.198 1.217zm9.471-5.607v3.992h-.798V7.193h-.229c-.17 0-.37.113-.399.311l-.542 3.681h-1.084v-.764l.4.028.456-3.087c.085-.566.599-.962 1.17-.962h1.454v.793h-.428zm6.875 3.992a1.201 1.201 0 01-1.198-1.189V7.589c0-.651.542-1.19 1.198-1.19.656 0 1.198.539 1.198 1.19v2.407c0 .651-.542 1.19-1.198 1.19zm.4-3.596a.389.389 0 00-.4-.396c-.229 0-.4.17-.4.396v2.407c0 .226.171.396.4.396.228 0 .4-.17.4-.396V7.589zm7.815 3.596V9.486a1.938 1.938 0 01-.399.057 1.2 1.2 0 01-1.198-1.19V6.372h.799v1.983c0 .226.17.396.4.396.199 0 .398-.17.398-.368v-2.01h.8v4.785h-.8v.028zm7.816 0v-2.01h-.827v2.01h-.799V6.4h.799v2.01h.799V6.4h.798v4.785h-.77zm8.216-.283a1.23 1.23 0 01-.799.312 1.201 1.201 0 01-1.198-1.19v-.793a1.2 1.2 0 011.198-1.189h.4v-.396a.389.389 0 00-.4-.397.39.39 0 00-.4.397h-.798a1.2 1.2 0 011.198-1.19 1.2 1.2 0 011.198 1.19v2.407a.39.39 0 00.4.396v.793c-.314-.057-.6-.142-.8-.34zm-.428-2.095h-.4a.39.39 0 00-.4.396v.793a.39.39 0 00.4.396c.229 0 .4-.17.4-.396v-1.19zm9.328-1.614v3.992h-.799V9.571h-.4l-.94 1.614h-.942l1.084-1.897a1.15 1.15 0 01-.428-.906v-.793c0-.651.542-1.19 1.198-1.19h1.598v.794h-.371zm-.799 0h-.4a.389.389 0 00-.399.396v.793a.39.39 0 00.4.396h.4V7.193z" fill="#A5A5A5"/><path d="M114.303 21.72H95.447v8.75h18.856v-8.75z" fill="#1E1E1E"/><path d="M97.36 11.893c0-4.106 4.079-4.219 4.079-6.088 0-1.388-2.368-2.549-3.224-3.2L100.212 0c2.196 1.642 4.507 2.775 4.507 5.805 0 4.106-4.022 4.163-4.022 6.032 0 1.387 2.311 2.548 3.166 3.2l-1.997 2.661c-2.168-1.642-4.507-2.775-4.507-5.805zm7.387 0c0-4.106 4.079-4.219 4.079-6.088 0-1.388-2.368-2.549-3.224-3.2L107.6 0c2.196 1.642 4.506 2.775 4.506 5.805 0 4.106-4.021 4.163-4.021 6.032 0 1.387 2.31 2.548 3.166 3.2l-1.997 2.661c-2.196-1.642-4.507-2.775-4.507-5.805zM92.31 23.588v-5.012h3.366v1.699h18.428v-1.7h3.366v5.013c0 5.522-4.508 9.996-10.07 9.996h-5.049c-5.534 0-10.041-4.474-10.041-9.996zm15.09 6.683c3.708 0 6.704-3.03 6.704-6.683H95.676c0 3.653 2.995 6.683 6.703 6.683h5.021zM.815 7.332l-.807.801 2.541 2.523.807-.8L.815 7.331z" fill="#A5A5A5"/><path d="M2.55 7.332L.007 9.855l.807.801 2.541-2.523-.807-.8zm77.94.006l-.807.801 2.541 2.523.807-.8-2.541-2.524z" fill="#A5A5A5"/><path d="M82.225 7.338l-2.542 2.523.807.801 2.54-2.522-.806-.8z" fill="#A5A5A5"/></g><defs><clipPath id="clip0_4914_5476"><path fill="#fff" d="M0 0h121.406v35H0z"/></clipPath></defs></svg>