<svg width="82" height="37" viewBox="0 0 82 37" fill="none" xmlns="http://www.w3.org/2000/svg"><path d="M0 36.793v-17.39a.17.17 0 01.171-.17h1.991c.17 0 .254.244.133.364C1.67 20.213.9 21.377.9 22.917c0 1.826.808 2.122 2.128 2.122h3.416c4.317 0 5.544-2.653 5.544-3.668 0-.829-.527-1.436-.964-1.823-.122-.108-.051-.315.112-.315h4.704c.094 0 .17.076.166.17-.042.854-.411 2.259-2.124 3.732-.978.841-2.444 1.449-3.55 1.837-.185.064-.14.348.055.348h2.447c3.168 0 2.138 2.505 1.7 3.356-.48.937-1.009 2.021-1.514 3.044-1.226 2.484.241 3.044 1.996 3.574 1.28.387 1.4.969 1.445 1.485a.17.17 0 01-.171.185h-3.386c-3.323 0-2.33-2.513-1.879-3.402.45-.89.49-1 1.53-2.935s0-2.2-1.017-2.2H1.085a.169.169 0 00-.169.17v3.7c0 2.475.958 3.711 1.673 4.33.127.11.053.337-.115.337H.171a.171.171 0 01-.171-.17zm19.684.176H17.44a.171.171 0 01-.171-.171V19.405a.17.17 0 01.167-.17c.526-.005 1.459 0 2.252.002.166 0 .241.221.12.333-1.259 1.159-1.639 2.804-1.639 3.882v1.423a.17.17 0 00.171.171h13.665c.094 0 .17.101.17.007v-1.601c0-1.656-1.016-3.137-1.722-3.902-.106-.115-.026-.313.13-.313h2.229c.094 0 .171.077.171.172v17.389a.171.171 0 01-.171.17H30.56a.173.173 0 01-.12-.295c.724-.721 1.736-1.93 1.736-4.043v-4.018a.17.17 0 00-.172-.17H18.341a.17.17 0 00-.172.17v4.018c0 1.82.952 3.276 1.646 4.013.11.117.029.326-.131.326zm16.422-17.736h-1.81a.187.187 0 00-.19.186v17.357a.19.19 0 00.193.187c4.396-.038 6.049-1.417 8.13-7.998 1.626-5.14 4.629-6.427 6.08-6.339a.175.175 0 01.163.179V33.53c0 1.318-.723 2.438-1.297 3.066-.12.132-.03.367.149.367h1.827c.105 0 .19-.081.19-.186V19.423a.187.187 0 00-.19-.188c-2.638.057-5.255 1.368-7.17 8.407-1.337 4.914-4.054 5.908-6.984 5.948a.187.187 0 01-.19-.188v-9.855c0-1.84.656-3.196 1.263-3.908.12-.141.02-.406-.164-.406zm32.427 0h-1.809a.187.187 0 00-.19.186v17.357c0 .105.087.188.192.187 4.397-.038 6.05-1.417 8.131-7.998 1.626-5.14 4.628-6.424 6.08-6.335a.175.175 0 01.162.179V33.53c0 1.318-.723 2.438-1.297 3.066-.12.132-.03.367.15.367h1.827c.105 0 .19-.081.19-.186V19.423a.187.187 0 00-.19-.188c-2.638.057-5.255 1.368-7.17 8.407-1.337 4.914-4.054 5.908-6.984 5.948a.187.187 0 01-.19-.188v-9.855c0-1.84.656-3.196 1.262-3.908.12-.141.02-.406-.164-.406zm-18.002.19v17.351c0 .105.085.19.19.19h1.824c.176 0 .266-.228.15-.36-.6-.687-1.285-1.936-1.285-3.954V22.53c0-.105.083-.189.188-.189h10.604c1.391 0 2.427.478 2.994.873.14.098.362 0 .362-.171v-3.62a.19.19 0 00-.19-.19H50.722a.19.19 0 00-.19.19z" fill="#A5A5A5"/><path fill-rule="evenodd" clip-rule="evenodd" d="M28.76 15.17V4.06c0-3.533-2.071-4.053-3.546-4.053-4.141 0-8.313 3.011-9.255 7.395-.71 3.307-1.355 6.679-1.566 7.625a.185.185 0 01-.183.144h-2.17a.19.19 0 00-.19.19v2.679c0 .105.085.19.19.19h18.259a.19.19 0 00.19-.19v-2.68a.19.19 0 00-.19-.19h-1.54zm-1.005 0H15.473a.19.19 0 01-.187-.227c.24-1.156.933-4.554 1.29-6.086.52-2.237 2.364-5.255 9.109-5.255 1.317 0 2.07.473 2.07 1.86v9.709zm21.179-6.472v.069l.003.177c.032 1.582.186 9.283-9.414 9.283-8.816 0-9.036-7.537-9.036-9.113 0-1.577.722-9.114 9.036-9.114 9.443 0 9.416 7.428 9.411 8.698zm-.69.069c0-2.965-2.447-5.582-8.721-5.582-5.805 0-8.345 3.09-8.345 5.929 0 2.838 1.569 5.928 8.345 5.928 6.775 0 8.721-3.31 8.721-6.275z" fill="#A5A5A5"/><path d="M55.374 18.228h-6.21a.19.19 0 01-.187-.218l2.007-13.67c.22-1.44.721-4.32 3.325-4.32 2.451 0 2.824 1.524 3.577 3.531l2.489 6.695 2.546-6.694C63.287 2.374 64.129.02 66.293.02c2.464 0 2.98 2.354 3.263 3.531l2.133 14.46a.19.19 0 01-.189.218h-6.055c-.09 0-.17-.064-.17-.154-.004-.462.324-1.276 1.709-1.77 1.556-.554 3.395-1.032 3.043-3.405l-1.098-7.425c-.095-.746-.524-2.239-2.636-2.239s-2.829 1.67-3.164 2.48l-2.255 5.872 2.024 5.444a.888.888 0 01-.832 1.197h-3.44a.888.888 0 01-.83-1.203l2.07-5.442-2.201-6.109c-.251-.746-1.01-2.239-3.356-2.239-1.982 0-2.562 1.493-2.604 2.24L50.576 12.9c-.094.84.245 2.649 2.353 3.153 1.88.45 2.502 1.418 2.615 1.988.02.103-.065.188-.17.188z" fill="#A5A5A5"/></svg>