<svg width="78" height="78" viewBox="0 0 78 78" fill="none" xmlns="http://www.w3.org/2000/svg"><path fill-rule="evenodd" clip-rule="evenodd" d="M35.058 18.07c-5.966.939-11.305 3.752-15.662 8.252l-1.079 1.115-.639.025c-.804.032-.858.091-.466.512.46.495.403.71-.174.654-.27-.027-.491-.061-.491-.077 0-.015-.328-.045-.73-.066-.507-.027-.754.025-.81.17-.091.24-.59.279-.727.056-.154-.25-.4-.17-.353.114a.745.745 0 01-.068.442c-.163.26.169.41.428.194l.22-.182v.18c0 .1.153.168.34.153.187-.015.578-.02.869-.009l.529.02-.226.142c-.124.078-.379.104-.566.057-.466-.117-.43.156.063.48l.405.265-.67.35c-.731.382-1.87.495-1.764.174.034-.104.193-.211.353-.24.297-.051.667-.426.667-.675 0-.077-.136-.105-.302-.061-.166.043-.342.014-.391-.065-.054-.087-.181-.068-.319.046l-.23.19-.207-.284-.208-.284-.292.264-.293.264-.304-.163c-.461-.246-.901-.196-1.072.123l-.152.285-1.175.095a31.02 31.02 0 01-1.515.094c-1.26-.003-1.59.003-1.927.035-.207.02-.377.082-.377.14 0 .056-.187.1-.416.096a2.737 2.737 0 00-.869.173l-.453.178.293.216c.362.266.644.276.727.026l.064-.188.275.226c.273.226.599.289 1.576.302.285.004.611.085.725.18l.207.17.222-.317c.22-.315.325-.32 1.2-.07.25.07.691.125.982.12l.529-.007.048-.416c.05-.431.507-.589.718-.247.057.093.392.296.743.451l.64.283 1.331-.45c.732-.248 1.348-.434 1.367-.414.019.02-.403.922-.938 2.002-1.487 3-2.451 6.376-2.738 9.58l-.113 1.271-1.285.444-1.284.443-.982-.06c-.679-.041-1.318-.21-2.066-.543-1.711-.762-1.77-.65-1.247 2.337.188 1.07.318 2.489.325 3.528l.01 1.738-.328 1.185c-.18.652-.43 1.384-.556 1.627l-.229.442.572-.072a42.52 42.52 0 011.78-.156c2.034-.139 5.596-1.186 6.1-1.792.152-.183-.061-1.612-.24-1.612-.047 0-1.124.306-2.392.68-1.268.374-2.38.68-2.47.68-.27 0-.19-.839.105-1.105.149-.135.88-.49 1.624-.79 1.669-.67 2.521-1.157 2.93-1.677.364-.463.404-1.082.096-1.5l-.217-.293-.425.27c-.234.148-1.234.68-2.223 1.183l-1.797.913-.127-.2c-.112-.176-.153-.59-.197-1.975l-.01-.34.906-.163c1.813-.328 2.936-.829 3.944-1.758.66-.608.862-1.19.493-1.418-.39-.241.227-4.35 1.02-6.787.84-2.582 2.567-6.198 3.05-6.384.108-.042.652.13 1.21.384.556.253 1.148.486 1.314.518l.302.059-.501.313c-.276.173-.845.36-1.264.415-.42.055-.725.14-.677.187.047.048.463.04.923-.018l.836-.104.644-.541c1.44-1.21 3.134-1.497 6.01-1.018.912.153 1.743.329 1.845.392l.185.114-.374.402-.373.402-.832-.078c-.457-.043-.967-.122-1.133-.176-.166-.054-.08.027.191.18l.494.279-.191.206-.192.206.29-.103c.16-.057.59-.17.958-.253a6.43 6.43 0 001.253-.448c.7-.357 1.246-.376 2.108-.072.833.294 1.56.286 3.11-.032l1.259-.26.396.373.396.373 1.235.075 1.235.076.044 1.586c.024.873.008 1.731-.036 1.908-.102.413-.408.527-3.408 1.268-3.016.745-3.706.992-4.077 1.464l-.284.361.156.448c.086.247.117.55.07.673-.13.339-.8.273-1.065-.105l-.231-.33.184-.236.185-.237-.264.207c-.791.62.482 1.716 1.34 1.154l.382-.25-.094-.56-.095-.56.348-.321c.191-.177.62-.396.952-.486 1.162-.317 1.287-.159.372.474-.83.575-.788 1.475.07 1.475h.305l-.336-.235c-.453-.318-.422-.572.125-1.032.503-.423 2.174-1 2.898-1h.456l-.188.227c-.103.124-.299.227-.434.227-.354 0-1.181.537-1.37.887-.087.165-.117.408-.066.541.132.344.656.601.844.414.1-.1.043-.184-.167-.251-.579-.183-.264-.892.475-1.07l.416-.1v.294c0 .339.446.796.776.796.123 0 .349.09.501.202l.278.203-.35.245-.35.246.274.105c.331.127.684-.289.684-.807v-.353l-.415-.147c-1.154-.409-1.145-.703.032-1.159.496-.191.92-.349.944-.349.024 0 .044.172.044.382v.381l.445.09c.887.177 1.13.895.415 1.228l-.331.154.264.108c.39.158.696-.012.805-.447.138-.549-.004-.803-.611-1.093l-.534-.254v-.4c0-.232.161-.55.386-.76l.385-.363.141.223c.078.122.142.34.144.482.003.426.49 1.318.768 1.406.142.045.5-.061.796-.236.627-.37 1.358-.348 1.432.042.051.27-.28.468-1.068.636l-.415.09v.356c0 .48.35.75.786.605l.347-.114-.378-.094c-.591-.146-.47-.525.185-.58l.563-.046.32-.406.318-.406.214.293c.282.386.271.48-.101.851-.433.433-.228.568.28.183l.413-.313-.024-.483c-.031-.632-.56-1.177-1.327-1.37-1.227-.31-1.259-.443-.085-.355 2.353.175 3.242.801 2.41 1.695-.17.183-.266.404-.212.492.055.087-.01.24-.145.338l-.244.179.823.028c.56.02.88-.04 1.002-.189.218-.262-.022-.293-.28-.036l-.18.181-.165-.163-.164-.164.244-.471c.134-.259.364-.47.511-.47.369 0 .631-.296.631-.711 0-.191.024-.348.052-.348.161 0 1.006.494 1.006.588 0 .06-.204.262-.453.446-.25.185-.454.459-.454.61 0 .53.888 1.02 1.133.623.053-.086-.047-.134-.234-.113-.18.02-.4-.076-.491-.214l-.164-.252.207-.25c.114-.136.404-.35.643-.474l.437-.226.747.248c.411.137.815.374.897.528l.149.279-.237.237c-.273.273-.173.306.248.08.187-.1.292-.316.292-.6 0-.499-.375-.812-1.171-.978l-.491-.102v-.285c0-.317-.546-.699-.632-.442-.032.095-.326.06-.782-.096-.462-.157-.664-.292-.547-.365.302-.186-1.147-.318-2.962-.269l-1.673.045-.534-.407c-.294-.224-.649-.647-.788-.941l-.253-.534.043-1.477.043-1.476.684-.08c.376-.042.897-.23 1.158-.416l.475-.338.796.171c1.436.308 2.541.083 4.27-.869.237-.13.823-.273 1.303-.317l.872-.079.568.52.568.521-.18.337-.18.337.282-.177.283-.176.474.245c.26.135.563.243.67.241.109-.002-.055-.121-.363-.264-.464-.216-1.453-1.335-1.298-1.468.024-.022.725.052 1.556.165.831.112 1.788.166 2.127.119.736-.102 1.535.196 2.278.847.284.25.667.452.851.45l.335-.005-.302-.167c-.392-.217-.982-.753-.982-.891 0-.06.56-.074 1.246-.031.689.042 1.509.004 1.832-.085l.584-.163.23.23a.599.599 0 00.55.146c.174-.047.457-.124.628-.172l.31-.087.77 1.484c1.672 3.22 2.602 6.522 3.003 10.66l.099 1.017-.364.138c-.2.076-.462.258-.584.405l-.22.266.013 1.374c.024 2.56.447 3.648 1.621 4.174l.601.269-.599.306c-.95.484-2.1 1.463-2.785 2.37-.347.46-.596.872-.552.915.043.044.545-.029 1.114-.161 1.537-.357 3.555-1.504 4.993-2.84l.477-.442.149.28c.082.154.295.773.473 1.375.178.601.475 1.269.659 1.482.394.458 1.392.653 1.914.374l.339-.182-.074-.326c-.04-.18-.285-.922-.544-1.649-.259-.727-.47-1.577-.47-1.889.002-.614.936-5.404 1.282-6.573l.213-.718-.181.002c-.1 0-.487.094-.86.207-.744.225-5.839.803-5.965.677-.043-.043-.147-.787-.232-1.653-.313-3.208-1.219-6.501-2.558-9.304l-.734-1.537.318-.084a.677.677 0 01.572.146c.271.245 1.047.236 1.227-.014.071-.099.208-.09.396.027l.287.178.581-.2c.58-.2.874-.525.49-.543-.11-.006-.039-.075.159-.154.364-.146 2.169.199 2.525.482.09.072.43.149.755.17.326.022.637.104.693.181.061.085.192.067.326-.044l.223-.185.062.184c.04.122.162.142.354.06.162-.068.48-.109.709-.09.228.017.416-.039.416-.125 0-.087.11-.116.247-.063.17.065.225.028.176-.118-.038-.117-.269-.272-.511-.345a5.247 5.247 0 01-.7-.261.7.7 0 00-.49-.042c-.129.049-.234.014-.234-.078 0-.095-.263-.167-.604-.167-.332 0-.604-.064-.604-.143 0-.22.27-.334.377-.16.153.248.378.018.378-.386 0-.407-.143-.468-.43-.181-.119.12-.225.133-.294.037-.166-.232-1.054-.508-1.369-.426-.174.046-.32-.022-.378-.174-.136-.353-.432-.116-.316.252l.097.304-.317-.1-.317-.102v.237c0 .13-.075.237-.167.237-.092 0-.29.156-.44.347-.15.19-.52.48-.821.642l-.548.295-.108-.174c-.059-.095-.38-.195-.712-.221-1.095-.087-2.026-.88-1.34-1.144.156-.06.34.031.505.25l.26.343.342-.183c.188-.1.607-.158.93-.127.323.03.588.003.588-.062 0-.064-.087-.117-.193-.117-.107 0-.414-.201-.683-.447-.27-.246-.584-.412-.699-.368-.114.044-.249.015-.298-.066-.055-.089-.31-.095-.658-.017l-.567.13-.21-.21c-.3-.298-.113-.636.527-.944.547-.265.721-.618.257-.522l-.237.049.098-.255.097-.255-.226.087c-.125.048-.574.133-.997.19-.446.059-.805.191-.852.315-.056.146-.214.184-.502.121-.23-.05-.46-.027-.509.052-.049.08-1.058-.819-2.243-1.995-2.602-2.584-4.29-3.813-7.292-5.307-3.947-1.966-6.83-2.657-11.409-2.735l-2.946-.05-1.436.226zm.605.52c-5.692.785-11.255 3.544-15.168 7.523-1.04 1.057-1.175 1.41-.494 1.28.437-.084.557.072.392.51l-.123.325-.615.104-.615.104v.417c0 .515.561 1.376 1.063 1.63.205.103.706.19 1.114.19l.741.003-.27-.299c-.149-.164-.33-.262-.401-.218-.072.045-.216.028-.32-.037a.943.943 0 00-.34-.13c-.277-.023-.951-.354-1.052-.516-.057-.093.028-.16.203-.16.166 0 .344-.068.396-.151.051-.084.297-.152.547-.152h.454l-.027-.264c-.047-.464.002-.533.242-.334l.235.195.085-.327.085-.327h.427c.235 0 .467-.065.516-.145.122-.196.951-.115 1.563.152.335.146.528.351.582.616l.08.397h.717l-.14-.246c-.078-.135-.37-.512-.65-.838l-.51-.592-.554.021c-.305.012-.555-.003-.555-.033 0-.029.177-.169.393-.31.428-.281 1.677-.428 1.81-.214.045.074.214.134.375.134.42 0 .362.284-.093.457-.486.184-.351.443.2.385.289-.03.428-.14.461-.367l.049-.324.275.148.276.148.18-.217c.116-.14.333-.187.603-.133.235.047.467.01.524-.082.143-.232.387-.208.387.037 0 .116.18.214.416.227.228.012.518.033.642.046.653.07 1.044-.042 1.134-.325l.096-.303.433.076c.477.084.655-.069.513-.44-.11-.283-.53-.315-.786-.059l-.18.182-.177-.177-.177-.176.29-.091c.16-.05.426-.167.592-.258.765-.421 2.308-.564 2.513-.233l.118.191.446-.262c.58-.343.625-.334.625.114 0 .386.206.505.382.22.06-.098.166-.106.274-.021.34.266.967.333 1.142.122.093-.112.485-.248.87-.3.386-.053.793-.172.904-.265l.202-.168.095.248.095.248.2-.165.198-.166.265.404.264.404-.367.283-.368.283.347.003c.191.002.531-.09.756-.204.416-.211.998-.234 1.185-.047.058.057.293.104.523.104.231 0 .462.069.515.153.12.194.376.045.376-.218 0-.13-.153-.18-.447-.146-.245.029-.488-.014-.538-.096-.05-.08-.24-.149-.422-.152l-.33-.005.24-.184c.131-.1.21-.268.175-.373-.035-.103.01-.188.1-.188.09 0 .164.104.164.232v.232l.292-.157c.161-.086.472-.156.69-.156.219 0 .53-.07.69-.157a.57.57 0 01.587.001l.294.158.154-.266c.093-.159.157-.187.16-.07.002.108.12.176.26.151.15-.025.336.112.446.33l.19.372.149-.373c.094-.235.153-.28.159-.125.005.137.128.297.273.357l.265.107-.302.125c-.166.068-.565.129-.887.135l-.584.01.091.34c.05.187.092.391.093.454.005.27.456.084.456-.19 0-.165.068-.301.15-.301.084 0 .152.102.152.226 0 .322.213.282.706-.131l.427-.358.486.072c.322.048.567-.01.728-.171.316-.316.385-.308.994.104.282.191.631.393.777.449.145.056.264.163.264.24 0 .207-.638.333-.84.165-.119-.098-.237-.076-.356.068-.112.135-.123.25-.031.306.181.113 2.285-.072 2.285-.2 0-.05-.204-.183-.453-.293-.615-.272-.594-.627.037-.634.27-.002.623-.104.785-.226.161-.122.552-.222.869-.222h.575v-.514l.173.173c.097.097.365.135.605.087l.431-.086v.337c0 .226.07.31.21.257.114-.044.356.023.535.149.18.126.431.188.56.14.144-.056.208-.019.168.1-.034.103-.193.2-.352.216l-.78.076c-.27.026-.492.132-.492.236 0 .104-.136.189-.302.189-.166 0-.303.068-.303.151 0 .083-.102.151-.226.151-.125 0-.227-.077-.227-.172v-.171l-.867.101c-1.04.123-1.31.32-.734.539.533.203 2.442.203 2.82 0l.292-.156v.484l.321-.102c.198-.063.368-.026.442.094l.12.195.201-.163c.11-.09.337-.193.503-.23.21-.048.085-.127-.416-.262-.395-.106-.717-.252-.717-.326 0-.168.043-.166.521.015l.39.149.285-.285c.323-.322.92-.553.92-.355 0 .072.237.104.528.07.603-.07.624-.106.276-.456-3.832-3.85-8.6-6.457-13.876-7.587l-1.511-.323-2.947-.053c-1.62-.029-3.388.008-3.928.083zm5.017 7.092c.208.334.355.292.22-.062-.05-.128-.161-.233-.247-.233-.1 0-.09.108.027.295zm-.484.31c0 .082.068.15.15.15a.152.152 0 00.152-.15.152.152 0 00-.151-.152.152.152 0 00-.151.151zm-4.215.31c-.205.171-.476.264-.63.215-.147-.046-.308-.019-.358.062-.157.254.174.33.812.186.398-.089.648-.084.708.014.054.087.345.111.68.058.355-.057.585-.034.585.059a.152.152 0 01-.151.153.152.152 0 00-.151.151c0 .083.122.151.272.151.15 0 .346.074.436.164.11.11.196.114.26.01a.187.187 0 00-.068-.253c-.105-.065-.068-.17.105-.297l.268-.196-.2-.241c-.11-.133-.26-.205-.332-.16-.072.044-.272.005-.445-.088l-.316-.169-.197.165c-.212.175-.69.064-.69-.16 0-.21-.194-.152-.588.176zm-2.495-.032c-.05.08-.225.11-.39.068a1.087 1.087 0 00-.567.024l-.267.103.291.163c.16.09.478.158.706.151.23-.006.452.085.498.205.136.354.574.264.518-.107-.056-.371-.652-.83-.79-.607zm10.276.264c-.054.14-.059.295-.011.342.117.117.608-.204.57-.372-.055-.25-.46-.228-.559.03zm-3.684.389c.078.234.553.273.609.05.02-.083-.123-.173-.32-.201-.244-.035-.335.013-.289.15zm6.615-.025c0 .083.102.15.227.15s.227-.067.227-.15c0-.083-.102-.151-.227-.151s-.227.068-.227.15zm-7.855.255c.001.15.06.366.132.479l.13.205v-.397c0-.218-.06-.433-.132-.478-.073-.045-.131.041-.13.191zm9.3.091c.058.15.142.233.189.187.046-.047 0-.169-.104-.271l-.187-.187.103.271zm-17.991.41c.051.082.161.15.244.15.084 0 .11-.067.058-.15-.051-.084-.161-.152-.244-.152-.083 0-.11.068-.058.151zm-13.907.158c-.143.232.053.382.247.188.109-.108.111-.193.008-.256-.085-.053-.2-.022-.255.068zm17.911-.008c0 .084-.195.152-.434.152-.394 0-.914.364-.752.526.037.037.454-.077.929-.252.869-.32 1.118-.577.56-.577-.167 0-.303.068-.303.152zm-5.629.105c-.336.088-.334.239.007.547l.27.245.376-.195c.206-.108.456-.168.555-.136.098.034.3-.008.449-.092l.27-.152-.378-.143c-.222-.084-.482-.088-.633-.01-.156.083-.291.076-.348-.017-.098-.158-.133-.16-.567-.047zm2.435.203c.38.316.777.393.777.151 0-.19-.51-.46-.86-.454l-.274.006.357.297zm27.595-.099c-.3.21-.396.245-.676.245-.32 0-.118.237.41.486.384.18.61.212.738.106.209-.174.44.066.294.304-.15.243.163.312.454.1l.278-.204-.271-.414c-.15-.228-.4-.448-.557-.49-.157-.04-.248-.134-.202-.208.124-.201-.132-.16-.468.075zm-1.643.184c-.103.267.003.514.22.514.181 0 .187-.559.007-.67-.075-.046-.177.024-.227.156zm-31.522.042c0 .42 1.523.776 1.918.448.106-.088.381-.119.611-.067l.418.094-.37-.212c-.204-.116-.452-.18-.552-.142a.242.242 0 01-.28-.092c-.139-.224-.798-.203-.883.028l-.069.189-.2-.19c-.23-.217-.593-.251-.593-.056zm19.07.2c-.266.266-.223.417.159.56.42.158.605-.078.365-.463-.204-.327-.28-.34-.524-.097zm4.89-.046c-.05.083-.346.145-.655.138-.597-.014-1.394.241-1.394.446 0 .175 1.683.076 1.87-.11.085-.086.283-.156.44-.156.156 0 .257-.08.224-.18-.08-.242-.369-.324-.484-.138zm-31.013.177c-.097.098-.14.272-.097.386.052.134-.027.209-.222.209-.25 0-.486.262-.486.54 0 .036.31.064.69.064h.688l-.114-.184c-.062-.1-.151-.41-.197-.688l-.084-.505-.178.178zm32.673.163l.103.325-.308-.08c-.2-.053-.482.064-.805.333l-.497.415.255.255.254.254.42-.219c.231-.12.579-.388.773-.596l.353-.378-.17-.317c-.223-.418-.511-.412-.378.008zm10.898.005l-.085.325-.215-.178c-.25-.207-.747-.068-.663.185a.238.238 0 00.233.155c.097-.008.38-.025.63-.038l.453-.023v-.293c0-.422-.253-.517-.353-.133zm-7.656.094c0 .234.366.484.71.484.385 0 .442-.148.166-.424-.202-.202-.876-.248-.876-.06zm-21.435.353l-.202.322.186.115a.729.729 0 00.421.08c.269-.04.439-.386.19-.386-.09 0-.164-.102-.164-.227 0-.324-.197-.28-.431.096zm19.018.054c-.195.208-.319.413-.275.457.14.14.576-.103.576-.321 0-.116.069-.21.152-.21a.152.152 0 00.15-.152c0-.256-.232-.168-.603.226zm-23.63.158c-.117.303.345.485.522.205.204-.323.166-.438-.148-.438-.157 0-.326.105-.375.233zm20.32.128l-.174.209.25.095c.253.098.664-.138.664-.38 0-.211-.55-.155-.74.076zm-21.473.093c0 .083-.104.15-.232.15h-.232l.156.293c.232.432.913.861 1.555.978l.567.104v-.234a.23.23 0 00-.227-.233c-.125 0-.227-.068-.227-.151 0-.084-.102-.152-.226-.152-.125 0-.227-.133-.227-.297 0-.163-.132-.367-.292-.453-.37-.198-.615-.2-.615-.005zm7.858-.025c0 .212.17.31.393.225.315-.121.256-.351-.09-.351-.167 0-.303.056-.303.126zm-13.298.143c0 .066.187.226.416.358.5.288 2.455.514 2.455.284 0-.162-.189-.21-.642-.164-.145.015-.264-.045-.264-.133 0-.089-.2-.161-.445-.161-.244 0-.486-.068-.538-.151-.11-.177-.982-.206-.982-.033zm20.476.184c-.052.083.012.151.142.151.13 0 .235-.068.235-.151 0-.083-.064-.151-.142-.151-.078 0-.184.068-.235.151zm1.707.03l.181.182.182-.182.181-.181h-.725l.181.181zm3.657.088c0 .178.128.28.378.3l.378.032-.188-.3c-.233-.374-.568-.393-.568-.032zm4.28.025c-.514.13-.977.279-1.03.333-.19.193 1.401.3 2.012.136.655-.177.863-.36.702-.62-.067-.108-.156-.109-.284-.003-.103.085-.25.102-.327.037-.077-.065-.56-.012-1.073.117zm4.333.106c-.29.205-.55.431-.574.501-.076.213 1.127.346 1.47.163.358-.192.43-.495.087-.363l-.227.087v-.394c0-.476-.075-.475-.756.006zm-30.373-.103l-.378.116.73.335c.402.184.771.295.82.246.093-.093-.556-.854-.707-.828a7.274 7.274 0 00-.465.13zm6.286.096c-.052.136-.19.206-.313.158-.48-.184-.357.21.178.574.481.327 1.556.546 1.556.318 0-.296-.436-.9-.778-1.077-.519-.268-.53-.268-.643.027zm8.369.14a.458.458 0 01-.472.14c-.303-.096-.409.288-.128.461.154.095 1.032-.507 1.048-.718.014-.194-.247-.125-.448.116zm14.293-.096c-.053.085-.178.124-.28.088-.1-.037-.353.067-.561.23l-.378.296.468.003c.445.003 1.122-.496.931-.687-.046-.047-.127-.015-.18.07zm-36.328.25c-.432.227-.268.343.664.47l.713.099-.069-.206c-.038-.113-.268-.283-.511-.377l-.443-.172-.354.186zm19.8-.13l-.198.079.259.286c.344.38.547.363.487-.041-.05-.35-.225-.452-.548-.324zm21.486.117c-.052.135-.062.278-.022.318.128.128.584-.117.529-.284-.091-.272-.408-.293-.507-.034zm2.21-.088c0 .252.45.505.715.402l.267-.103-.378-.21c-.444-.248-.605-.271-.605-.09zm-27.472.174c-.595.133-.701.22-.556.454.064.105.286.14.544.09.403-.081 2.128.086 3.004.29l.377.09-.477-.427a1.636 1.636 0 00-1.759-.28c-.176.077-.335.04-.453-.105l-.182-.223-.498.111zm12.547.147c.211.339.256.352.55.165.294-.186.072-.468-.369-.468h-.37l.189.303zm21.21-.174c-.046.073-.246.102-.446.064-.2-.039-.408.001-.462.088-.124.2.98.526 1.83.54.911.015 1.363-.507.478-.553-.196-.01-.445-.086-.553-.168l-.197-.15-.085.328c-.047.18-.153.327-.236.327-.082 0-.11-.1-.064-.222.094-.246-.135-.465-.265-.254zm-37.49.175c-.14.226.028.407.451.489.483.092.487-.083.01-.396-.226-.148-.405-.184-.462-.093zm14.431.216c0 .395-.32.71-.419.414-.082-.245-.413-.223-.633.042l-.183.22.359.09c.197.05.544.021.769-.065l.41-.155v-.457c0-.252-.069-.457-.152-.457-.083 0-.15.165-.15.368zm12.695-.143l-.168.202.323.103c.4.127 1.443-.054 1.261-.22-.261-.237-1.241-.297-1.416-.085zm2.858.056l-.348.281.31.166.31.166.272-.198c.166-.121.235-.297.177-.448-.123-.321-.293-.314-.721.033zm-51.668.035l-.227.161.403-.087c.246-.054.427-.018.463.09.07.209.57.056.57-.174 0-.204-.918-.197-1.209.01zm53.969-.022c.065.195.272.23.29.05.007-.061-.07-.137-.17-.17-.099-.034-.153.02-.12.12zm-33.728.164c-.284.175-.177.25.537.38.65.117.654.102.063-.267-.245-.152-.469-.195-.6-.113zm16.857.146c-.15.166-.199.302-.107.302.271 0 .938-.34.938-.478 0-.242-.56-.124-.831.176zm-34.227-.021c0 .194.831.512 1.16.443l.276-.057-.303-.162c-.456-.244-1.133-.378-1.133-.224zm29.164.172c.293.19.454.19.454 0 0-.083-.153-.15-.34-.149l-.34.003.226.146zm.756 0l-.227.146.634.003c.348.001.675-.066.726-.149.121-.196-.83-.196-1.133 0zm1.511.151c0 .083.106.151.236.151s.193-.068.142-.15c-.052-.084-.158-.152-.236-.152-.078 0-.142.068-.142.151zm-8.613.287c0 .225.889.465 1.367.369.61-.122.56-.295-.12-.408-.804-.133-1.247-.118-1.247.04zm5.742.318c0 .083.234.15.52.15.286 0 .562-.067.613-.15.057-.092-.15-.152-.52-.152-.337 0-.613.069-.613.152zm17.907.451c-.052.086.008.111.143.06.261-.1.31-.21.092-.21-.078 0-.184.068-.234.15zM39.29 37.648c0 .427.257.801.642.935.347.12.336.07-.122-.606-.513-.756-.52-.76-.52-.329zm-2.653.042c-.161.118-.24.267-.176.332.065.064.267-.032.45-.215.369-.37.181-.45-.274-.117zm7.658.556c.297.283.576.616.62.74l.078.227.284-.167c.686-.404.272-1.044-.777-1.201l-.745-.112.54.514zm4.968 5.685l-.68.23-2.468.02-2.47.019-.302.374-.303.374.088.532c.049.293.16.788.248 1.1l.16.567h.292c.16 0 1.046-.177 1.967-.393.922-.216 1.713-.355 1.759-.31.26.26-.236 1.04-1.31 2.063-.657.623-1.26 1.313-1.344 1.533l-.15.4.393.075c.216.041.943-.087 1.615-.284.671-.197 1.306-.36 1.41-.361.12-.002.189.22.189.616v.62l-.441.411c-.284.266-1.118.642-2.352 1.063l-1.91.65-.233.355c-.246.375-.562 1.563-.447 1.678.037.037.907-.138 1.932-.39 4.264-1.049 4.944-1.353 5.247-2.346.078-.258.187-1.307.24-2.331l.099-1.862-.18-.216a.684.684 0 00-.463-.216c-.156 0-.283-.069-.283-.152 0-.084.306-.87.68-1.745.374-.875.68-1.759.68-1.963v-.37l-.491.014c-.27.008-.798.118-1.172.245zm-20.845.722l-4.45.653-.163.223c-.262.36-.031 2.83.315 3.359l.286.436-.003 1.82-.003 1.82-.473 1.008-.473 1.007.351.088c.561.141 2.374-.3 2.653-.645.135-.167.287-.655.338-1.085.05-.43.163-.867.248-.97.085-.103.661-.437 1.28-.742l1.123-.556.755-.903c.968-1.16 1.546-2.178 2.191-3.86.572-1.494.791-2.34.6-2.32-.069.008-2.128.308-4.575.667zm32.774-.536c-1.644.498-2.91 1.926-4.47 5.038-.533 1.063-1.035 1.892-1.116 1.842-.081-.05-.147-.307-.148-.573-.002-1.159-.623-4.727-.887-5.09-.448-.62-1.217-1.059-1.854-1.059h-.583v.29c0 .158.177 1.025.393 1.926.217.9.43 2.235.475 2.965l.082 1.328-.348 1.787c-.192.982-.305 1.898-.253 2.034.152.397 1.12.305 2.117-.201 1.214-.616 2.185-1.467 3.224-2.825l.884-1.154.104 1.239c.13 1.562.313 2.11.898 2.71.787.804 2.272 1.053 2.366.397.025-.17-.165-.803-.422-1.406a11.193 11.193 0 01-.642-2.297l-.175-1.2.179-1.398c.149-1.169.667-3.305 1.033-4.258.1-.264-.193-.297-.857-.096zm-40.413.385l-1.058.347-2.569.18c-2.802.196-3.422.372-3.784 1.073-.29.562-.282 1.795.015 2.22.275.392.665.425 1.277.109l.439-.227.075.491c.36 2.351.176 4.248-.585 6.041l-.11.261 1.26-.083c4.69-.31 5.053-.383 5.592-1.119.152-.207.285-.65.295-.982.01-.332.087-1.313.17-2.18l.152-1.576-.282-.208c-.182-.134-.463-.175-.788-.115l-.505.094.405-.652c.654-1.053 1.739-3.38 1.739-3.73v-.322l-.34.015c-.187.008-.816.172-1.398.363zm14.017-.038c-.082.104-.326.81-.54 1.569-.632 2.23-1.752 5.124-2.767 7.15-.52 1.039-.933 1.902-.916 1.92.03.03.885-.153 1.93-.414.866-.216 1.533-.762 2.114-1.73l.54-.901.971-.33c.534-.18 1.113-.333 1.287-.34l.316-.01.184 1.033c.227 1.268.605 1.929 1.175 2.053.555.12 2.467.348 2.467.293 0-.023-.167-.288-.371-.588-.445-.655-.992-2.053-1.097-2.803l-.076-.54.776-.558c.996-.716 1.37-1.332 1.372-2.252 0-.395-.036-.718-.08-.718-.044 0-.294.243-.555.54-.407.464-1.818 1.418-2.103 1.423-.051 0-.248-.798-.437-1.774-.189-.977-.403-1.892-.475-2.034-.078-.152-.719-.446-1.567-.718-1.584-.507-1.927-.55-2.148-.27zm34.202 1.847c-.959.395-1.865 1.16-1.997 1.686-.117.466.331 1.243.783 1.357.407.102 1.596-.28 1.859-.596.155-.187.47-1.843.472-2.48.002-.419-.018-.418-1.117.033zm-50.338.409l-.752.502-.036 1.058-.037 1.058.525-.59c.498-.558 1.2-2.085 1.099-2.389-.026-.078-.386.084-.8.36zm10.96-.175c-.209.072-.872.273-1.474.448l-1.096.317v1.354c0 .853.06 1.354.16 1.354.297 0 1.846-1.58 2.432-2.48.766-1.175.764-1.264-.023-.993zm6.574 2.195c-.313.876-.539 1.622-.503 1.657.035.036.418-.048.85-.186.501-.16.785-.336.786-.487.002-.531-.364-2.577-.46-2.577-.059 0-.361.717-.673 1.593zm-17.169 2.83c-.465.268-.959.58-1.095.694-.248.206-.36 1.228-.134 1.228.416 0 2.073-1.386 2.395-2.002l.217-.416-.268.005c-.148.003-.65.224-1.115.491zm27.82 5.277c0 .066.2.12.444.12s.478-.054.52-.12c.04-.067-.16-.121-.445-.121-.286 0-.52.054-.52.12zm-42.376.66c-.309.31-.3.651.023 1.01l.26.287-.253.442-.253.442h.215c.119 0 .322-.204.45-.454.291-.562.645-.587.708-.049.027.222.133.432.237.466l.189.062V57.27h-.67c-.406 0-.762.093-.906.237zm2.331.972v1.209h.454v-2.116h1.188l.097.306c.054.168.078.622.054 1.009-.028.45.022.726.14.765l.183.061V57.27H6.8v1.209zm3.4-1.028c-.425.24-.523.428-.526.997-.003.57.56 1.24 1.041 1.24 1.138 0 1.678-1.234.902-2.06-.361-.385-.926-.456-1.417-.177zm2.494.943c0 .619.068 1.167.15 1.218.09.056.152-.124.152-.444v-.538h1.36v.529c0 .29.068.529.151.529.088 0 .151-.504.151-1.21 0-.704-.063-1.208-.151-1.208-.083 0-.151.242-.151.538v.537l-.642-.046-.643-.047-.047-.49c-.09-.943-.33-.484-.33.632zm3.09-.753c-.424.424-.465.82-.15 1.431.237.457.507.616 1.048.616.404 0 .97-.382.807-.545-.064-.063-.196-.035-.295.064-.47.47-1.327-.024-1.327-.767 0-.71.86-1.156 1.327-.689.099.098.231.127.295.063.18-.18-.423-.544-.902-.544-.257 0-.582.15-.802.37zm2.5.838c0 .705.064 1.209.152 1.209.083 0 .151-.2.151-.445 0-.664.22-.678.728-.046.25.311.506.515.569.453.062-.063-.093-.37-.345-.684l-.459-.57.437-.524c.604-.724.232-.77-.403-.05l-.514.581-.007-.566c-.003-.312-.074-.567-.157-.567-.088 0-.151.504-.151 1.209zm3.123-1.098c-.043.07-.254.595-.47 1.165-.385 1.024-.393 1.467-.017.953.125-.171.395-.265.765-.265s.64.094.764.264c.385.527.351.074-.077-1.027-.397-1.023-.756-1.428-.965-1.09zm2.102.126c-.322.322-.299.718.06 1.043l.297.27-.222.316c-.255.365-.282.552-.079.552.078 0 .263-.204.41-.454.148-.249.39-.453.538-.453h.27v.453c0 .25.067.454.15.454.089 0 .152-.504.152-1.21V57.27h-.67c-.406 0-.762.093-.906.237zm4.103-.066c-.143.08-.26.325-.26.542 0 .218-.109.516-.24.662-.51.562.254 1.288.958.912l.293-.157.174.174.174.174v-.172a.35.35 0 00-.151-.266c-.1-.062-.09-.208.025-.425l.176-.33-.259.213-.259.214-.248-.248-.249-.249.332-.353c.401-.427.408-.508.063-.693a.542.542 0 00-.53.002zm3.215 1.045v1.217l.755-.035c.885-.04 1.009-.243.19-.311l-.567-.047-.049-.34-.048-.34h.615c.773 0 .812-.268.048-.331l-.566-.047-.049-.34-.048-.34h.615c.338 0 .615-.068.615-.15 0-.084-.34-.152-.756-.152h-.755v1.216zm2.267-.007v1.209h.519c1.072 0 1.627-.513 1.113-1.028l-.182-.181.182-.181c.515-.516.008-1.028-1.018-1.028h-.614v1.209zm2.598-.076l.02 1.134h.202c.123 0 .202-.176.202-.454v-.453h.523c.498 0 .837-.297.837-.735 0-.35-.503-.625-1.14-.625h-.664l.02 1.133zm2.77-.807l-.415.327.083.616c.094.707.534 1.149 1.142 1.149.925 0 1.455-.933 1.014-1.784-.374-.724-1.133-.852-1.824-.308zm2.672.833c.029.76.11 1.18.233 1.221l.189.063v-2.157l.642.046.642.047.045 1.02c.063 1.43.333 1.277.333-.19v-1.208H41.09l.044 1.159zm2.84.05v1.209h.755c.877 0 1.027-.262.189-.331l-.567-.047-.048-.34-.048-.34h.615c.772 0 .811-.268.048-.331l-.567-.047-.048-.34-.048-.34h.615c.338 0 .615-.068.615-.15 0-.084-.34-.152-.756-.152h-.755v1.209zm2.417.012v1.222l.19-.061c.103-.034.426-.41.717-.838.29-.428.58-.78.642-.783.063-.003.114.369.114.826 0 .475.067.83.157.83.215 0 .122-2.3-.095-2.372-.09-.03-.43.34-.756.82l-.59.873-.046-.87c-.069-1.317-.333-1.038-.333.353zm3.119-.908l-.399.313v1.165l.399.314c.468.368 1.148.408 1.418.082.244-.294.075-.476-.218-.233-.344.286-.884.13-1.14-.33l-.232-.415.232-.416c.256-.459.796-.615 1.14-.33.293.243.462.062.218-.233-.27-.325-.95-.285-1.418.083zm2.321.896c0 .705.063 1.209.151 1.209.084 0 .153-.153.154-.34.001-.187.067-.442.147-.567l.144-.227.234.333c.332.47.68.8.843.8.236 0 .158-.24-.176-.54a2.626 2.626 0 01-.467-.57l-.151-.282.497-.512.497-.513h-.249c-.136 0-.43.238-.652.529-.222.29-.463.529-.536.529-.074 0-.134-.238-.134-.53 0-.29-.068-.528-.15-.528-.089 0-.152.504-.152 1.209zm3.075-.956c-.054.152-.257.678-.453 1.17-.355.896-.348 1.301.014.805.125-.17.395-.264.764-.264.37 0 .64.094.765.264.392.538.372.041-.042-1.038-.434-1.13-.849-1.5-1.048-.937zm2.244-.072c-.261.262-.222.99.061 1.148l.243.136-.246.476-.247.477.193-.001c.106 0 .309-.205.45-.454.341-.599.725-.598.725.001 0 .25.068.454.151.454.088 0 .151-.504.151-1.21V57.27h-.65c-.357 0-.73.082-.83.181zm3.597 1.028c0 .705.063 1.209.15 1.209.084 0 .152-.193.152-.428 0-.661.156-.675.688-.062.638.735.85.531.244-.233l-.464-.587.457-.554c.61-.74.207-.728-.428.013l-.486.566-.005-.566c-.003-.312-.074-.567-.157-.567-.088 0-.151.504-.151 1.209zm2.266-1.108c0 .056.207.467.459.913.457.81.473 1.102.061 1.102-.12 0-.217.068-.217.15 0 .084.135.152.3.152h.3l.609-1.21c.418-.831.543-1.208.4-1.208-.115 0-.325.306-.468.68-.143.374-.309.68-.368.68-.06 0-.257-.306-.44-.68-.282-.584-.636-.905-.636-.579zm2.57-.015c0 .047.175.316.39.597l.39.512-.411.54c-.528.692-.33.922.216.252l.412-.504.392.505c.216.278.443.456.505.396.061-.06-.071-.349-.295-.642l-.406-.533.406-.533c.528-.691.32-.91-.226-.239l-.417.51-.338-.473c-.3-.422-.619-.622-.619-.388zm2.72 1.123c0 .705.062 1.209.15 1.209.084 0 .151-.238.151-.53v-.528h1.36v.529c0 .29.069.529.152.529.088 0 .15-.504.15-1.21 0-.704-.062-1.208-.15-1.208-.084 0-.151.242-.151.538v.537l-.643-.046-.642-.047-.047-.49c-.094-.977-.33-.464-.33.717zm2.984-1.046c-.338.197-.34.713-.004 1.083l.26.288-.253.442-.254.442h.216c.119 0 .321-.204.45-.454.291-.562.644-.587.708-.049.026.222.133.432.237.466l.189.062V57.27l-.643.005c-.353.002-.76.073-.906.158zm-43.596.097c-.257.092-.24.647.02.647.114 0 .285-.093.38-.207l.17-.207-.19-.15c-.105-.083-.276-.12-.38-.083zM4.74 57.8c-.145.377.064.68.47.68h.382v-.907h-.383c-.21 0-.422.102-.47.227zm5.471.01c-.32.321-.3 1.02.04 1.326.331.301.833.325 1.06.052.244-.295.265-1.096.035-1.373-.256-.309-.828-.31-1.135-.004zm13.703-.14c-.346.145-.212.647.2.75.451.114.72-.09.643-.49-.053-.28-.482-.41-.843-.26zm9.54.123c-.124.32.062.536.461.536.395 0 .766-.359.618-.598-.147-.238-.983-.19-1.08.062zm2.662.233v.454h.36c.197 0 .443-.102.547-.227l.188-.227-.188-.226c-.104-.125-.35-.227-.548-.227h-.36v.453zm2.562-.218c-.107.13-.195.431-.195.672 0 .24.088.543.195.672.449.54 1.367.071 1.367-.698 0-.723-.936-1.165-1.367-.646zm18.744-.008l-.188.227.188.226c.104.125.35.227.548.227h.359v-.907h-.36c-.197 0-.443.102-.547.227zm14.228-.093c-.343.217-.14.692.318.745l.414.048v-.927l-.264.002c-.146.002-.356.06-.468.132zm-50.232.474c-.261.625-.215.752.276.752.424 0 .476-.314.15-.903l-.206-.373-.22.524zm33.613-.076c-.27.592-.22.828.175.828.488 0 .561-.117.364-.582-.265-.625-.349-.663-.54-.246zm-27.803.94c.05.431.354.587.705.36l.204-.13-.275-.322c-.392-.459-.692-.415-.634.092zm6.319-.036v.397l.491-.048.491-.047v-.605l-.491-.047-.491-.047v.397z" fill="#A5A5A5"/></svg>