<svg width="126" height="43" viewBox="0 0 126 43" fill="none" xmlns="http://www.w3.org/2000/svg"><path fill-rule="evenodd" clip-rule="evenodd" d="M74.245 34.086c0 .24-.02.486-.01.72.05 1.306.109 2.61.162 3.917.02.378.02.757 0 1.135a3.405 3.405 0 01-.14.81 1.296 1.296 0 01-1.577.95 1.266 1.266 0 01-1.146-1.348c-.01-1.333.011-2.667 0-3.998 0-2.918-.015-5.835-.04-8.753 0-.603-.101-1.201-.124-1.804a9.5 9.5 0 01.028-1.506 1.135 1.135 0 011.457-1.025c.242.061.477.148.7.26a.908.908 0 01.617.857c.013.501.107 1 .109 1.501 0 1.634-.02 3.268-.025 4.902 0 .24-.098.503.162.765a1.93 1.93 0 00.175-.374c.146-.688.257-1.381.422-2.064.3-1.272.825-2.48 1.55-3.566a6.13 6.13 0 013.996-2.58 9.444 9.444 0 015.44.648 4.48 4.48 0 012.551 2.726 17.22 17.22 0 011.203 5.568c.064.903.074 1.809.029 2.712a8.488 8.488 0 01-1.886 4.826 7.185 7.185 0 01-2.444 1.84 7.667 7.667 0 01-6.065.303 6.374 6.374 0 01-4.047-4.17 23.817 23.817 0 01-.628-2.554c-.058-.256-.035-.54-.249-.726l-.22.028zm12.83-.667h-.064a5.97 5.97 0 000-.826c-.134-.942-.236-1.894-.458-2.816a18.297 18.297 0 00-.879-2.709 1.906 1.906 0 00-1.856-1.297c-.2-.01-.4-.037-.596-.082a4.108 4.108 0 00-4.937 2.69 12.63 12.63 0 00-.709 2.756 9.193 9.193 0 00-.256 1.855 8.114 8.114 0 00.828 3.477 4.445 4.445 0 005.142 2.446 4.98 4.98 0 003.606-3.93c.08-.517.12-1.042.18-1.564h-.002zm-21.644-7.534l-3.776-.107a8.456 8.456 0 00-.162 3.091c.107 1.226.076 2.46-.092 3.678-.089.924-.22 1.845-.254 2.769a12.732 12.732 0 01-.456 3.115 6.654 6.654 0 01-.324.92 3.824 3.824 0 01-4.209 2.334 3.616 3.616 0 01-.74-.125 1.131 1.131 0 01-.897-1.093c-.003-.17.033-.34.105-.494a1.66 1.66 0 011.98-1.18 1.074 1.074 0 001.237-.741c.327-.79.518-1.63.567-2.485.095-1.1.196-2.201.269-3.302.042-.648.042-1.305.048-1.96.012-1.18.02-2.361.023-3.543 0-.553-.018-1.106 0-1.657-.013-.4.017-.8.089-1.195a1.1 1.1 0 01.919-.95c.156-.024.316-.015.468.028 1.267.17 2.548.205 3.822.104 1.045-.1 2.104-.057 3.16-.067a.869.869 0 011.001.8c.057.468.084.94.08 1.413 0 .15-.02.302-.023.45-.039 1.81-.097 3.617-.107 5.426 0 1.506.05 3.01.073 4.516.013.93.024 1.86.02 2.792a7.215 7.215 0 01-.457 2.35 2.67 2.67 0 01-.117.277 1.052 1.052 0 01-1.908.162 2.586 2.586 0 01-.405-1.945 32.092 32.092 0 00-.045-5.489c-.03-.948.11-1.903.123-2.854.005-1.655-.011-3.307-.011-5.038zm44.761 9.056a.791.791 0 00-.183-.089c-.988-.097-1-.103-1.447.785a617.143 617.143 0 00-2.711 5.453.934.934 0 01-.432.56.917.917 0 01-.702.088 1.397 1.397 0 01-1.504-1.379 1.41 1.41 0 01.193-.728c.036-.094.075-.187.119-.277.375-.794.754-1.587 1.133-2.383.378-.796.754-1.634 1.133-2.47-.162-.127-.263-.226-.382-.305a2.546 2.546 0 01-1.156-2.02c-.089-1.428-.162-2.858-.162-4.288a5.498 5.498 0 011.088-3.227 3.022 3.022 0 012.127-1.289c1.456-.19 2.942-.259 4.417-.355.903-.058 1.222.636 1.376 1.482a1.97 1.97 0 010 .376c-.039 1.882-.084 3.766-.117 5.646-.056 3.242-.107 6.484-.153 9.726a1.208 1.208 0 01-.687 1.235 1.86 1.86 0 01-1.8.026 1.252 1.252 0 01-.455-1.276c.101-1.676.222-3.352.334-5.025 0-.09-.01-.178-.029-.266zm.029-9.139a7.142 7.142 0 00-1.852.073 1.214 1.214 0 00-1.12.956 4.981 4.981 0 00-.291 1.847c.058.724.097 1.459.15 2.178.062.851.361 1.148 1.23 1.189.476.02.954.011 1.431 0a2.36 2.36 0 00.454-.115l-.002-6.128zm-14.429-.05l-.18 3.427c.648.013 1.219 0 1.78.045a4.62 4.62 0 014.316 3.271 6.39 6.39 0 01.238 1.555c.042 1.134.029 2.26.031 3.39.01.302-.008.604-.054.902a3.454 3.454 0 01-3.354 3.101 8.465 8.465 0 01-2.913.04c-.416-.07-.852-.01-1.276-.041a2.786 2.786 0 01-.879-.163 1.222 1.222 0 01-.825-1.219c.013-2.71-.016-5.42 0-8.13.013-1.758.084-3.515.14-5.272.025-.752.075-1.503.117-2.255a1.403 1.403 0 011.376-1.383c1.327-.032 2.653-.02 3.98-.019.628 0 1.253.018 1.881.032a1.135 1.135 0 011.19.924 1.338 1.338 0 01-.681 1.659c-.282.105-.579.16-.88.162-.75.014-1.503-.013-2.256-.02-.544-.01-1.094-.006-1.751-.006zm-.295 12.955c.606.052 1.103.12 1.598.125.35-.007.697-.052 1.036-.135a1.094 1.094 0 00.81-.726c.108-.28.166-.577.17-.877-.025-1.178-.082-2.354-.135-3.53a1.116 1.116 0 00-.725-1.056 7.201 7.201 0 00-1.579-.44c-.9-.117-1.08.076-1.133 1.008-.01.15-.01.301-.01.452a6356.9 6356.9 0 00-.024 4.367l-.001.81-.007.002zm22.717-12.832c-.698 0-1.345.016-1.991 0a3.622 3.622 0 01-1.031-.162 1.226 1.226 0 01-.851-1.01 1.235 1.235 0 01.553-1.201 2.364 2.364 0 011.466-.477c1.427.052 2.856.1 4.283.112.776 0 1.553-.107 2.328-.084.473.02.938.122 1.376.301a1.285 1.285 0 01.707 1.501 1.197 1.197 0 01-1.262 1.059c-.725 0-1.457-.054-2.179-.081h-.562c-.031.199-.05.4-.058.601.042 2.31.011 4.625.162 6.928.134 2.012.047 4.017.102 6.024a3.03 3.03 0 01-.35 1.522 1.432 1.432 0 01-1.871.64 1.025 1.025 0 01-.664-.924 2.948 2.948 0 010-.376c.127-1.757.018-3.514-.009-5.271-.047-2.939-.083-5.876-.123-8.815.006-.076-.01-.156-.026-.287zm-40.107-6.331a7.016 7.016 0 01-4.586-1.59 8.21 8.21 0 01-2.565-3.987 12.857 12.857 0 01-.614-4.012c-.05-2.626.73-5.201 2.227-7.357A5.993 5.993 0 0176.485.166c1.83-.276 3.7-.073 5.429.59.65.253 1.213.69 1.618 1.258a8.584 8.584 0 011.86 4.292c.206 1.587.38 3.18.486 4.778a7.73 7.73 0 01-.366 2.566 8.407 8.407 0 01-1.534 3.156 4.943 4.943 0 01-.849.841 9.589 9.589 0 01-2.99 1.588 14.66 14.66 0 01-2.032.309zm4.885-8.754a17.357 17.357 0 00-.636-4.354 9.003 9.003 0 00-.665-1.738 2.645 2.645 0 00-1.703-1.403 9.417 9.417 0 00-1.425-.342 4.267 4.267 0 00-2.701.505 4.084 4.084 0 00-1.839 2.296 13.93 13.93 0 00-.783 4.446 9.068 9.068 0 001.15 4.609c.266.52.701.933 1.234 1.17a5.658 5.658 0 003.321.405 4.496 4.496 0 003.675-3.102 6.58 6.58 0 00.372-2.492zm29.134-3.851c.586-.658 1.051-1.198 1.533-1.72.696-.75 1.387-1.504 2.104-2.226a5.298 5.298 0 001.148-1.546 2.043 2.043 0 012.25-1.148.946.946 0 01.834.695.946.946 0 01.025.381c-.016 1.093-.05 2.186-.071 3.276-.04 1.917-.078 3.833-.113 5.75-.041 2.451-.096 4.904-.102 7.355 0 .941-.279 1.382-1.441 1.317a1.454 1.454 0 01-1.39-1.212 5.883 5.883 0 01-.028-1.251c.039-.733.146-1.46.162-2.197.031-1.246 0-2.498.023-3.744.026-1.516.081-3.03.121-4.54v-.554a2.236 2.236 0 00-.272.218c-1.457 1.656-2.899 3.323-4.37 4.968-.27.293-.422.676-.427 1.075-.051 1-.19 1.995-.238 2.994-.046.91-.026 1.827-.018 2.74a1.353 1.353 0 01-1.067 1.528 1.386 1.386 0 01-1.73-.854 1.491 1.491 0 01-.146-.58c0-.802.026-1.6.07-2.402.039-.688.149-1.373.162-2.061.034-1.158.012-2.32.032-3.477.04-2.52.091-5.037.137-7.556 0-.178.01-.358.026-.535a1.568 1.568 0 01.908-1.228 1.561 1.561 0 011.52.132c.194.147.33.357.384.594.073.302.102.614.086.925-.034 1.359-.088 2.717-.131 4.075.014.22.019.44.019.808zM90.427 9.286c.045 1.538.07 3.08.147 4.613a6.29 6.29 0 00.296 1.565 1.498 1.498 0 001.046 1.03 1.492 1.492 0 001.421-.363c.387-.34.681-.774.855-1.26.128-.323.246-.669.395-.991.187-.412.341-.506.785-.456a1.435 1.435 0 011.457 1.297c.056.33.054.667-.009.995a4.31 4.31 0 01-3.33 3.447 4.976 4.976 0 01-2.312.06 3.926 3.926 0 01-2.786-2.187 5.52 5.52 0 01-.626-2.44c-.046-2.755-.1-5.526-.12-8.29-.005-.958.041-1.916.14-2.869A3.543 3.543 0 0189.96.453a4.785 4.785 0 016.118 1.84c.175.31.361.614.523.93.263.571.35 1.208.25 1.829-.04.239-.154.46-.325.632a1.47 1.47 0 01-2.165-.193 2.951 2.951 0 01-.301-.593c-.1-.248-.177-.506-.255-.76a1.687 1.687 0 00-1.603-1.413 1.681 1.681 0 00-.75.148 1.227 1.227 0 00-.824.81 2.95 2.95 0 00-.162.915c-.014 1.563 0 3.122 0 4.683l-.04.005zm10.767-6.05h-.68l-1.669.026a1.617 1.617 0 01-1.156-.44 1.19 1.19 0 01-.02-1.764 2.104 2.104 0 011.555-.649c2.314.015 4.627.008 6.941.04.397.006.79.086 1.158.237a1.382 1.382 0 01.724.79 1.38 1.38 0 01-.052 1.07 1.119 1.119 0 01-1.083.745 170.6 170.6 0 00-1.468-.026h-1.372a2.579 2.579 0 00-.06.428c.03 2.184-.021 4.377.126 6.548.152 2.269.057 4.538.112 6.808a2.55 2.55 0 01-.309 1.348 1.422 1.422 0 01-1.36.796 1.224 1.224 0 01-1.214-.861 1.224 1.224 0 01-.045-.528c.046-1.311.127-2.627.063-3.936-.162-3.183-.206-6.367-.191-9.552v-1.08zm-38.186-.11c-.02.264-.045.459-.047.648a9444.7 9444.7 0 00-.016 13.571 1.74 1.74 0 01-.379 1.242 1.265 1.265 0 01-2.128-.162 2.272 2.272 0 01-.43-1.514c.041-.712.132-1.422.127-2.132 0-1.269-.084-2.535-.102-3.804-.018-1.27-.014-2.584 0-3.876.021-1.783.076-3.566.089-5.35.01-1.134.071-1.233 1.206-1.382.308-.042.62-.062.93-.058 1.734.026 3.468.055 5.201.099.751.019.934.228.936.972v.268c-.04.953-.424 1.392-1.37 1.475-.597.04-1.196.048-1.794.024-.729.005-1.454-.044-2.223-.021z" fill="#A5A5A5"/><path d="M3.71 21.286A12.366 12.366 0 010 12.516a12.38 12.38 0 013.616-8.81A12.346 12.346 0 0112.413.085 12.332 12.332 0 0121.171 3.8l3.375 3.379-17.46 17.487-3.375-3.38z" fill="#A5A5A5"/><path d="M45.258 3.788a12.147 12.147 0 00-16.94-.325l-.365.362a.902.902 0 00-.021 1.297l3.222 3.422a.941.941 0 001.295.042l.016-.017.026-.02.301-.299.031-.037.023-.023a5.368 5.368 0 017.508.1 5.384 5.384 0 01.075 7.519 5.292 5.292 0 01-3.735 1.607 5.282 5.282 0 01-3.863-1.619l-8.32-8.675-.024.023L7.085 24.59l17.404 17.43 20.768-20.798a12.319 12.319 0 003.608-8.715 12.334 12.334 0 00-3.608-8.716v-.004z" fill="#A5A5A5"/></svg>