<svg width="106" height="35" viewBox="0 0 106 35" fill="none" xmlns="http://www.w3.org/2000/svg"><g clip-path="url(#clip0_4915_5513)"><mask id="mask0_4915_5513" style="mask-type:luminance" maskUnits="userSpaceOnUse" x="0" y="0" width="106" height="35"><path d="M105.479 0H0v35h105.479V0z" fill="#fff"/></mask><g mask="url(#mask0_4915_5513)"><path d="M49.283 10.471c-1.629 0-2.932.326-4.119.977a6.213 6.213 0 00-2.047 2.374V10.68h-4.654v23.501h4.77V20.64c0-1.839.535-3.258 1.512-4.235.978-.978 2.28-1.513 3.91-1.513h2.047v-4.42h-1.42zm25.13 6.492c-.442-1.303-1.187-2.49-2.164-3.583-.861-1.094-2.048-1.839-3.467-2.49a13.492 13.492 0 00-4.77-.86c-2.164 0-4.119.534-5.84 1.628-1.722 1.094-3.142 2.49-4.12 4.328-.976 1.838-1.512 3.909-1.512 6.282 0 2.374.536 4.445 1.513 6.283.977 1.838 2.373 3.35 4.235 4.444 1.721 1.094 3.793 1.629 6.166 1.629 2.536 0 5.538-1.117 7.678-3.141.954-.884 1.723-1.838 2.165-2.932l-4.003-1.955c-.651 1.094-1.419 1.839-2.373 2.49-.977.652-2.164.977-3.584.977-1.419 0-2.605-.325-3.676-.977-1.094-.768-1.955-1.629-2.49-2.815-.372-.815-.581-1.699-.651-2.7h17.428c.116-.325.21-1.954.21-2.28 0-1.512-.21-2.909-.745-4.328zm-13.868-1.955c.977-.651 2.164-.977 3.467-.977s2.373.326 3.35.977c.978.652 1.723 1.513 2.165 2.607.302.628.465 1.326.488 2.047H57.59c.116-.674.302-1.28.535-1.838.581-1.187 1.442-2.164 2.42-2.816zM80.347 34.09V10.68h4.863v23.386h-4.863v.023zm21.988.208c-2.49 0-4.328-.652-5.747-2.048-1.42-1.42-2.048-3.35-2.048-5.84V15.008h-4.118v-4.421h.651c1.094 0 1.955-.326 2.606-.977.652-.652.861-1.513.861-2.606V5.165h4.863v5.422h5.306v4.444h-5.306v11.146c0 .768.117 1.512.442 2.048.21.535.652.977 1.304 1.303.535.325 1.303.442 2.28.442h.768c.233 0 .535-.117.861-.117v4.235c-.442.117-.861.117-1.304.21h-1.419z" fill="#A5A5A5"/><path d="M.325 34.09V10.68h4.863v23.386H.325v.023zm31.646-19.826a8.833 8.833 0 00-3.141-3.141c-1.303-.768-2.816-1.094-4.538-1.094-1.721 0-3.164.442-4.444 1.21-.954.558-1.722 1.28-2.28 2.21v-2.768h-4.654v23.291h4.863V20.104c0-1.186.21-2.164.652-3.025a4.823 4.823 0 011.838-1.954c.768-.442 1.722-.652 2.7-.652.976 0 1.954.117 2.698.652.768.535 1.42 1.093 1.838 1.954.443.861.652 1.839.652 3.025v13.868h4.886v-15.17c0-1.723-.325-3.235-1.07-4.538zM16.194 0h-5.608l1.536 1.536 4.072 4.072 1.535 1.536V1.536C17.753.698 17.055 0 16.194 0zM1.536 0h5.607L5.609 1.536 1.536 5.608 0 7.167V1.536A1.55 1.55 0 011.536 0z" fill="#5F5F5F"/></g></g><defs><clipPath id="clip0_4915_5513"><path fill="#fff" d="M0 0h105.479v35H0z"/></clipPath></defs></svg>