<svg width="134" height="27" viewBox="0 0 134 27" fill="none" xmlns="http://www.w3.org/2000/svg"><path fill-rule="evenodd" clip-rule="evenodd" d="M2.427.831L0 1.648v23.436l2.519.838c1.386.461 2.549.838 2.585.838.037 0 .067-.388.067-.862v-.861l2.018-.021 2.018-.02-1.972-.027-1.972-.027-.024-11.561-.023-11.562.136-.037.136-.037-.159-.01-.158-.011V0l-.16.007c-.086.004-1.25.375-2.584.824zm78.942.352c-3.521.437-6.108 2.252-7.041 4.941l-.252.725-.005 1.27c-.002.821.04 1.43.122 1.723.328 1.175 1.296 2.493 2.366 3.218 1.218.827 2.52 1.305 5.944 2.185 3.056.785 3.957 1.128 4.682 1.783.201.182.452.497.558.7l.192.37-.007.634c-.008.765-.177 1.193-.661 1.677-.744.744-1.748 1.084-3.406 1.155l-1.183.05-.768-.153c-1.346-.267-2.403-.878-2.987-1.726-.294-.429-.613-1.344-.689-1.978l-.05-.43h-5.005l.063.747c.295 3.54 2.365 5.927 6.07 7 2.158.626 5.157.678 7.455.13 3.528-.843 5.642-2.941 6.134-6.09.11-.702.057-1.969-.112-2.674-.305-1.279-1.403-2.734-2.723-3.612-.972-.646-1.93-.986-4.99-1.767-4.395-1.123-5.398-1.512-5.835-2.262l-.185-.317V7.03l.255-.434c.325-.552.943-1.009 1.695-1.253l.59-.191 1.134.007c1.23.007 1.908.137 2.694.518.885.428 1.536 1.39 1.7 2.51l.062.43h5.005l-.055-.748c-.073-.993-.261-1.684-.696-2.562-1.037-2.096-3.172-3.488-6.125-3.993-1.022-.175-3.05-.242-3.946-.13zm-72.056.51c-.033.034-.06 5.3-.06 11.702v11.642h4.993l-.024-7.802c-.014-4.29-.005-7.799.02-7.797.025.003.757 1.156 1.626 2.563 1.721 2.784 6.44 10.376 7.47 12.015l.641 1.02h5.231l-.023-11.679-.023-11.679-2.426-.024-2.426-.024-.023 7.86-.023 7.86-3.441-5.523c-1.893-3.037-4.097-6.574-4.899-7.858L14.47 1.633h-2.55c-1.401 0-2.575.027-2.608.06zm21.801.071c0 .072.29 1.022.642 2.11a39774.565 39774.565 0 015.818 17.942l1.03 3.175h5.88l3.877-11.656 3.877-11.657-2.638-.024c-1.451-.013-2.655-.008-2.675.012-.02.02-1.201 3.664-2.625 8.098-1.424 4.434-2.624 8.122-2.665 8.197l-.076.136-.048-.136c-.026-.075-.576-1.81-1.223-3.855a6583.694 6583.694 0 00-3.414-10.767c-.265-.833-.508-1.558-.54-1.61-.04-.064-.93-.096-2.64-.096h-2.58v.131zm23.012-.071c-.034.033-.061 5.3-.061 11.702v11.642h17.87v-4.262l-6.327-.024-6.327-.023v-5.715l5.647-.023 5.647-.024v-3.99h-11.34V5.987h12.431l-.024-2.154-.024-2.155-8.716-.023c-4.793-.013-8.743.004-8.776.038zM93.978 3.81v2.177h6.985v19.05h5.17l.023-9.502.023-9.503 3.515-.023 3.516-.024V1.633H93.978V3.81zm25.502-2.017c-.048.089-1.686 4.385-3.641 9.548s-3.918 10.34-4.362 11.505a100.686 100.686 0 00-.807 2.156c0 .02 1.168.027 2.596.013l2.596-.024.246-.68c.136-.374.544-1.527.908-2.563l.661-1.882h8.761l.451 1.338c.248.736.644 1.9.88 2.585l.429 1.248h5.351l-.04-.114c-.022-.062-1.992-5.328-4.379-11.702l-4.339-11.588h-5.225l-.086.16zM6.418 1.791c.461.017 1.217.017 1.678 0 .462-.016.084-.03-.839-.03-.923 0-1.3.014-.84.03zm2.395.386c0 .125.021.176.046.114a.35.35 0 000-.227c-.025-.063-.046-.012-.046.113zm111.758 9.502a345.54 345.54 0 00-1.494 4.241c-.02.108 5.836.176 5.928.07.033-.039-.156-.682-.419-1.43-.263-.749-.916-2.637-1.45-4.196-.535-1.56-.998-2.835-1.03-2.835-.032 0-.723 1.868-1.535 4.15z" fill="#A5A5A5"/></svg>