<svg width="36" height="42" viewBox="0 0 36 42" fill="none" xmlns="http://www.w3.org/2000/svg"><g clip-path="url(#clip0_4917_5790)" fill="#A5A5A5"><path d="M8.747.35l-1.732 1.1L5.283.35H.086v31.487l3.465 1.994V3.806h1.732V34.83l3.464 1.994V3.806h1.732v34.016l3.464 1.993V.351H8.747zm6.928 0v40.463l1.732 1 1.733-1V3.805h1.732v36.013l3.464-1.997V.349h-8.66zm19.055 0h-8.663v.003h-.002v10.01L29.53 8.37V3.806h1.732v5.255l-5.194 2.992v3.99l5.194-2.991v16.782l-1.728.995-.004.004v-15.02l-3.464 1.998v19.006l8.66-4.992V12.442l-1.038-1.793 1.038-1.794.003-8.505zm-8.664 39.455v-.413a.49.49 0 00.197-.039.64.64 0 00.162-.106.515.515 0 00.115-.145.336.336 0 00.04-.162h.572v2.755h-.612v-1.89h-.474zm3.619.283c-.02.074-.044.141-.067.2-.028.067-.063.13-.1.185l-.867 1.22h-.69l.63-.866a1.28 1.28 0 01-.457-.078 1.078 1.078 0 01-.355-.217.918.918 0 01-.312-.688.97.97 0 01.083-.401.979.979 0 01.229-.327c.098-.09.216-.166.355-.217.138-.05.288-.078.457-.078.17 0 .324.027.462.078.138.051.256.127.355.217.099.094.174.205.229.327.051.126.079.26.079.4 0 .088-.012.17-.031.245zm-.636-.425a.533.533 0 00-.106-.154.55.55 0 00-.158-.102.534.534 0 00-.544.102.464.464 0 00-.103.154.416.416 0 00-.04.181c0 .067.012.13.04.19.023.059.06.105.103.149a.518.518 0 00.351.134.54.54 0 00.198-.035.434.434 0 00.153-.1.511.511 0 00.106-.149.507.507 0 000-.37zm2.371-.066a.412.412 0 00-.225-.197.516.516 0 00-.177-.028.516.516 0 00-.348.106.66.66 0 00-.185.288l-.612-.06a.994.994 0 01.134-.33 1.203 1.203 0 011.433-.48c.126.051.237.118.332.2a.945.945 0 01.217.288c.05.11.074.224.074.343 0 .157-.035.29-.11.397-.075.106-.166.2-.28.276a2.338 2.338 0 01-.367.197c-.134.055-.26.11-.375.16-.118.052-.22.111-.3.17a.328.328 0 00-.146.216h1.57v.55h-2.181v-.471c0-.157.04-.291.118-.406.075-.11.173-.208.292-.29.115-.083.24-.154.379-.217.138-.06.264-.118.383-.177a1.75 1.75 0 00.292-.181.287.287 0 00.114-.224.295.295 0 00-.032-.13zm1.584 2.14a1.262 1.262 0 01-.367-.204.948.948 0 01-.233-.288.685.685 0 01-.083-.318.65.65 0 01.265-.551.913.913 0 01.268-.138v-.04a.741.741 0 01-.21-.125.678.678 0 01-.141-.182.555.555 0 01-.063-.283.63.63 0 01.071-.287.801.801 0 01.21-.256.984.984 0 01.327-.177c.13-.044.277-.067.438-.067.162 0 .308.023.439.067.13.043.24.102.332.177a.8.8 0 01.205.256.63.63 0 01.07.287.56.56 0 01-.063.283.7.7 0 01-.35.308v.04a.81.81 0 01.45.346c.054.09.082.204.082.342a.684.684 0 01-.083.318.948.948 0 01-.233.288c-.099.082-.22.15-.367.204a1.439 1.439 0 01-.48.075c-.178 0-.342-.024-.484-.075zm.706-.511a.535.535 0 00.17-.087.408.408 0 00.102-.118.285.285 0 00.036-.134.277.277 0 00-.036-.133.422.422 0 00-.102-.122.653.653 0 00-.17-.087.781.781 0 00-.45 0 .535.535 0 00-.165.087.382.382 0 00-.107.122.287.287 0 00-.036.133c0 .044.012.09.036.134a.37.37 0 00.107.118.482.482 0 00.166.087.677.677 0 00.224.035.675.675 0 00.225-.035zm.08-1.322c.074-.067.11-.138.11-.217 0-.078-.035-.15-.11-.216a.436.436 0 00-.305-.099.437.437 0 00-.304.099c-.075.067-.11.138-.11.216 0 .079.035.15.11.217a.435.435 0 00.304.098c.13 0 .229-.031.304-.098z"/></g><defs><clipPath id="clip0_4917_5790"><path fill="#fff" d="M0 0h35.127v41.981H0z"/></clipPath></defs></svg>