<svg width="200" height="35" viewBox="0 0 200 35" fill="none" xmlns="http://www.w3.org/2000/svg"><mask id="mask0_4915_5542" style="mask-type:luminance" maskUnits="userSpaceOnUse" x="0" y="0" width="200" height="35"><path d="M199.437 0H0v35h199.437V0z" fill="#fff"/></mask><g mask="url(#mask0_4915_5542)" fill="#A5A5A5"><path d="M110.516 31.329H96.944v3.67h13.572v-3.67zm47.639-25.453c1.697 0 3.073-1.316 3.073-2.938 0-1.623-1.376-2.938-3.073-2.938s-3.073 1.315-3.073 2.938c0 1.622 1.376 2.938 3.073 2.938zm18.317 3.317c-4.025 0-6.005 2.328-6.661 3.299l-2.726-2.463h-.81v21.133h4.655V18.548c.006-2.565 1.215-5.214 4.828-5.214 3.613 0 4.809 2.649 4.809 5.214l.013 12.62h4.661V17.763c-.006-4.494-2.784-8.576-8.775-8.576l.006.006zm-156.587 0c-3.118 0-4.7 1.62-5.413 2.726-.99-1.562-2.726-2.726-5.42-2.726-3.523 0-5.162 1.974-5.792 3.048L.81 10.029H0v21.133h4.655V17.583c.006-2.565.829-4.25 3.227-4.25 2.398 0 3.195 1.685 3.195 4.25v13.579h4.63V17.583c0-2.565.81-4.25 3.214-4.25s3.195 1.685 3.195 4.25v13.579h4.629V16.773c0-4.494-2.205-7.586-6.853-7.586l-.007.006zm51.8 3.247c-.63-.9-2.713-3.253-7.24-3.253-6.724 0-10.305 5.105-10.305 11.405 0 6.3 3.362 11.405 10.087 11.405 4.584 0 6.628-2.462 7.258-3.433l2.874 2.598h.81V10.029h-.81l-2.674 2.411zm-6.84 15.423c-3.923 0-5.813-3.253-5.813-7.264 0-4.012 1.89-7.265 5.812-7.265 3.922 0 5.812 3.253 5.812 7.265 0 4.011-1.89 7.264-5.812 7.264zM192.757 0c-4.385 0-6.68 2.964-6.68 6.622s2.302 6.622 6.68 6.622 6.68-2.964 6.68-6.622S197.135 0 192.757 0zm0 11.643c-3.298 0-5.028-2.25-5.028-5.028 0-2.777 1.73-5.027 5.028-5.027 3.298 0 5.028 2.25 5.028 5.027 0 2.778-1.73 5.028-5.028 5.028z"/><path d="M189.922 6.622c0 1.678 1.228 3.04 3.054 3.04.855 0 1.504-.36 2.224-.784v-1.28h-.373c-.791.425-1.279.554-1.594.554-1.106 0-1.691-.688-1.691-1.53 0-.843.585-1.53 1.691-1.53.315 0 .803.128 1.594.552h.373v-1.28c-.72-.423-1.369-.783-2.224-.783-1.826 0-3.054 1.363-3.054 3.04zM160.65 10.03h-4.822v21.132h4.822V10.029zM89.898 27.735c-2.295 0-3.639-1.19-3.639-3.362V13.97h8.249v-3.94h-8.249V5.618h-.347l-8.531 7.702v.643h4.05v10.974c0 4.63 3.658 7.06 7.876 7.06 1.954 0 4.095-.714 5.825-1.858v-4.295h-.444c-1.755 1.176-3.337 1.884-4.79 1.884v.006zM41.256 9.193c-7.085 0-10.942 4.81-10.942 11.406 0 6.596 4.448 11.405 11.623 11.405 1.974 0 4.327-.572 7.079-1.614v-4.063h-.534c-2.462.906-4.558 1.434-6.532 1.434-3.452 0-6.41-1.775-6.86-5.388h16.182c.065-.604.103-1.196.103-1.774 0-6.397-3.279-11.406-10.12-11.406zm-6.082 9.168C35.656 15.378 37.527 13 40.915 13c3.388 0 5.503 2.482 5.503 5.362H35.174zm105.854-9.168c-7.136 0-10.711 5.105-10.711 11.406 0 6.3 3.575 11.405 10.711 11.405 7.137 0 10.711-5.105 10.711-11.405 0-6.3-3.574-11.406-10.711-11.406zm0 18.67c-3.921 0-5.979-3.253-5.979-7.264 0-4.012 2.058-7.265 5.979-7.265 3.922 0 5.979 3.253 5.979 7.265 0 4.011-2.057 7.264-5.979 7.264zm-30.731-7.264c0 6.3 3.362 11.405 11.122 11.405 2.013 0 3.691-.489 6.519-1.627v-4.256h-.553c-3.471 1.472-4.352 1.736-5.824 1.736-4.276 0-6.404-3.253-6.404-7.265s2.128-7.265 6.404-7.265c1.472 0 2.353.264 5.824 1.736h.553v-4.256c-2.828-1.138-4.506-1.627-6.519-1.627-7.76 0-11.122 5.105-11.122 11.406v.013z"/></g></svg>