<svg width="102" height="42" viewBox="0 0 102 42" fill="none" xmlns="http://www.w3.org/2000/svg"><path d="M76.895 14.112a29.931 29.931 0 01-.677 4.42c-.96.057-1.918-.226-2.539-1.076a4.361 4.361 0 01-.677-1.587c.451-1.247.96-2.493 1.862-3.514.282-.34.564-.623 1.015-.623.395-.057.677.113.847.51.225.567.225 1.19.169 1.87zm-1.693 7.594c-.338.85-.733 1.643-1.24 2.38-.227.397-.678.737-1.073.963-.677.34-1.41 0-1.749-.736-.451-.907-.508-1.87-.395-2.89.056-.907.226-1.814.282-2.72.057 0 .057 0 .113.056.96 1.53 2.483 2.437 4.175 2.607-.056.113-.056.227-.113.34zm-19.408-5.27c.056 0 .112.056.225.113-.113.453-.169.907-.338 1.303-.677 2.21-1.467 4.307-2.652 6.29a4.163 4.163 0 01-.903 1.077c-.451.397-.846.284-.903-.34-.056-.68-.112-1.36-.056-1.983.282-2.663.846-5.214 1.805-7.707.339-.963.79-1.87 1.411-2.664.282-.34.62-.68 1.072-.793.339-.113.564 0 .62.397 0 .51 0 1.076-.112 1.587-.113.623-.395 1.19-.564 1.756-.17.51-.113.794.395.964zm-18.224.793c.451-1.87 1.128-3.683 1.918-5.44.113-.227.338-.51.451-.454.565.114.508 1.077.508 1.36-.17 1.644-.451 2.834-.96 4.194-.168.397-.45.793-.733 1.133-.225.284-.507.284-.79.17-.338-.226-.45-.623-.394-.963zm62.965-5.837c.395-.17.508-.397.452-.85-.17-1.02-.734-1.643-1.693-1.927-1.298-.396-2.595-.113-3.78.454-1.636.793-2.99 1.926-4.344 3.116-.678.624-1.355 1.247-2.088 1.927.226-1.133.508-2.153.733-3.173.677-2.89 1.355-5.724 2.032-8.614.169-.737.112-.907-.565-1.133-1.184-.34-2.37-.68-3.554-.964-.282-.057-.677-.113-.96 0-.507.113-.62.567-.733 1.02-.338 1.417-.677 2.777-.959 4.194-.564 2.947-1.128 5.95-1.693 8.897-.338.453-.733.85-1.184 1.247 0-.907-.057-1.757-.226-2.664-.339-1.7-1.241-2.947-2.765-3.683-.846-.397-1.805-.567-2.764-.624-.847-.056-1.637-.113-2.427.284-.282.113-.394.113-.62-.114-.508-.51-1.129-.85-1.862-.453-.677.397-1.354.793-1.918 1.303-1.75 1.587-2.821 3.57-3.668 5.78-.62 1.644-1.015 3.344-.959 5.1 0 .51 0 1.02-.17 1.474-.281.964-.62 1.87-1.353 2.55-.339.284-.677.397-1.072.227-.339-.113-.508-.453-.508-.85 0-.793-.056-1.643.113-2.437.451-2.663.903-5.327 1.41-7.99a731.386 731.386 0 012.088-10.824c.17-.793 0-1.19-.734-1.643-.169-.114-.338-.17-.507-.284-1.072-.453-2.2-.68-3.386-.737-.338 0-.677.114-.846.51-.226.454-.451.964-.564 1.474-.339 1.87-.62 3.683-.96 5.553a36.992 36.992 0 01-.45 2.437h-.114c-.056-.056-.112-.056-.169-.113-1.523-1.247-3.216-1.643-5.134-1.247-1.58.34-2.765 1.304-3.78 2.55-1.524 1.927-2.37 4.25-2.878 6.687-.169.85-.282 1.7-.395 2.494-.507.056-.959.113-1.41.17-.226.057-.339.17-.395.453-.508 2.04-1.467 3.74-3.216 4.93-.846.567-1.75.794-2.765.68-.959-.113-1.636-.963-1.636-2.096 0-.964.113-1.984.226-2.947.056-.623.282-1.19.508-1.87.112.17.169.226.225.34.903 1.247 2.878 1.927 4.345.907.733-.51 1.354-1.134 1.805-1.927 1.129-1.757 1.58-3.684 1.58-5.78 0-.794-.113-1.53-.451-2.21-.79-1.644-2.088-2.55-3.724-3.06-1.693-.51-3.555-.454-4.965.623-1.072.85-1.919 1.813-2.54 3.003-1.974 3.684-2.82 7.14-2.482 11.334-.056 1.077-.733 1.36-.733 1.36-.734.397-1.354.227-1.693.113-.508-.17-.733-.85-.733-.85-.452-.793 1.184-8.727 1.184-8.727.565-2.437 2.145-8.727 2.765-11.107.226-.85-.113-1.417-.733-1.87-.847-.68-1.862-1.02-2.878-1.304-1.128-.283-2.482-.51-3.667-.113-1.298.397-2.821 5.327-2.821 5.327-.96 2.607-3.16 9.35-4.345 12.694-.225.567-.338.227-.338.113v-.226c.113-.964.282-1.87.451-2.777.395-2.097 1.862-8.727 2.257-10.88.339-.737-.056-1.304-.62-1.7-1.637-1.077-3.78-1.304-5.643-1.247-1.128.056-1.749 1.756-1.749 1.756-1.185 3.287-4.457 13.828-5.642 17.114-.056.17-.113.284-.226.34-.112.114-.282.057-.394-.056l.282-1.02.225-.85c-.62-1.474-4.965-1.587-5.473-.51 0 0-1.015 5.157 2.032 7.593 1.749 1.36 3.328 1.814 5.36 1.02.282-.113.677-.34.677-.68 0 0 .959-4.08 1.354-5.326.677-2.324 1.072-3.514 1.749-5.667 0 0 .282-.737.395-.227a12.477 12.477 0 01-.226 1.7c-.17 1.53-.282 3.06-.395 4.59-.113 1.304-.226 2.664-.17 3.967.057 1.643.79 2.89 2.258 3.457.79.34 1.636.51 2.482.567.79.056 1.524 0 2.257-.284.226-.056.508-.283.62-.567.452-1.7.904-3.513 1.355-5.213.733-2.833 1.297-5.044 2.144-7.707.113-.283.395-.397.733-.17-.225 1.02-.395 1.927-.62 3.06-.395 1.814-.734 3.627-.621 5.44.113 2.04.677 3.174 2.313 4.024 1.862.963 4.514 1.36 6.77.566.226-.056.452-.17.678-.283h.056c.452-.226.847-.51 1.298-.736 2.087 1.983 4.627 2.776 7.447 2.55 2.878-.227 5.191-1.53 6.771-4.08.903 1.416 2.088 2.436 3.611 2.833 1.523.397 3.047.397 4.4-.567 1.016-.68 1.693-1.643 2.314-2.72.113-.17.17-.34.282-.51.113.113.17.17.17.283.169 1.304.846 2.21 2.03 2.664 1.524.566 2.99.226 4.401-.397 1.016-.453 1.862-1.133 2.596-1.927.056 0 .056.057.056.057 1.862 2.607 4.401 3.4 7.391 3.003 2.427-.34 4.232-1.813 5.53-3.966a16.901 16.901 0 002.03-5.044c.396-.227.734-.453 1.13-.737-.057.284-.057.51-.114.794a44.411 44.411 0 00-.338 3.853c-.057 1.077-.057 2.154-.057 3.174 0 .85.17 1.133.903 1.303 1.241.34 2.54.68 3.78.964.621.17.96-.17 1.016-.85v-.567c0-1.7.056-3.344.056-5.044 0-.34.057-.68.113-1.133.282.283.508.51.677.737 1.298 1.756 2.652 3.456 3.95 5.213.733.963 1.467 1.984 2.257 2.947.564.737 1.128.85 1.918.453.564-.283 1.185-.566 1.749-.85.564-.283 1.128-.623 1.693-.963.451-.284.507-.623.225-1.077-.225-.34-.451-.68-.733-1.02-2.088-2.493-4.119-5.043-6.207-7.537-.62-.737-1.24-1.417-1.861-2.153.395-.34.733-.68 1.128-1.02 2.313-2.04 4.852-3.57 7.56-4.874zM3.031 40.886c.192 0 .365-.037.518-.112a.982.982 0 00.377-.323.88.88 0 00.161-.474h1.11a1.653 1.653 0 01-.303.934c-.195.28-.455.504-.777.67-.323.163-.68.244-1.071.244-.404 0-.756-.068-1.056-.205-.3-.14-.55-.332-.748-.577a2.54 2.54 0 01-.45-.846 3.49 3.49 0 01-.147-1.027V39c0-.366.049-.708.147-1.028.1-.322.25-.606.45-.85.198-.245.448-.436.748-.572.3-.14.65-.21 1.051-.21.424 0 .795.084 1.115.253.32.167.57.4.753.7.186.296.282.642.288 1.036h-1.11a1.182 1.182 0 00-.146-.528.969.969 0 00-.362-.381 1.032 1.032 0 00-.553-.142c-.238 0-.435.049-.591.147a.986.986 0 00-.367.39 1.906 1.906 0 00-.19.553 3.605 3.605 0 00-.055.631v.171c0 .219.018.43.054.636.036.205.098.39.186.553.091.16.215.288.372.386.156.094.355.142.596.142zm5.403.94a2.82 2.82 0 01-1.06-.191 2.343 2.343 0 01-.803-.543 2.405 2.405 0 01-.503-.817 2.86 2.86 0 01-.176-1.012v-.195c0-.414.06-.79.18-1.125.121-.336.289-.623.504-.86.215-.242.47-.426.763-.553.293-.127.611-.19.953-.19.379 0 .71.063.993.19.284.127.518.306.704.538.19.228.33.5.42.816.095.316.142.665.142 1.047v.503H6.464v-.846h2.924v-.093a1.655 1.655 0 00-.127-.596 1.014 1.014 0 00-.348-.45c-.156-.114-.365-.171-.626-.171-.195 0-.37.042-.523.127-.15.082-.275.2-.376.357-.101.157-.18.346-.235.567a3.187 3.187 0 00-.078.739v.195c0 .232.03.447.093.646.065.195.16.366.283.513.124.147.274.262.45.347.176.082.377.122.602.122.283 0 .536-.057.758-.17a1.75 1.75 0 00.576-.485l.622.602a2.421 2.421 0 01-.445.479c-.183.15-.406.272-.67.367a2.68 2.68 0 01-.91.141zm5.442-5.389v5.29h-1.183v-5.29h1.183zm1.736 0v.929h-4.626v-.929h4.626zm1.662 1.682h1.56c.457 0 .845.077 1.164.23a1.676 1.676 0 01.983 1.57 1.8 1.8 0 01-.142.718 1.6 1.6 0 01-.42.572 1.94 1.94 0 01-.675.382 2.778 2.778 0 01-.91.136h-2.342v-5.29h1.183v4.357h1.16c.234 0 .421-.041.562-.123a.728.728 0 00.303-.317.957.957 0 000-.841.749.749 0 00-.303-.328c-.14-.085-.328-.127-.563-.127h-1.56v-.939zm8.9 1.472l-2.113-3.154h1.448l1.232 2.083h1.032l-.152 1.07h-1.447zm.596-.171l-1.354 2.307h-1.448l1.917-2.977.885.67zm1.712-2.983v5.29h-1.174v-5.29h1.174zm3.26 0l-2.111 3.154h-1.453l-.156-1.071h1.037l1.232-2.083h1.452zm-1.358 5.29l-1.36-2.307.915-.67 1.907 2.977h-1.462zm4.444.098a2.82 2.82 0 01-1.06-.19 2.344 2.344 0 01-.803-.543 2.406 2.406 0 01-.503-.817 2.86 2.86 0 01-.176-1.012v-.195c0-.414.06-.79.18-1.125.121-.336.289-.623.504-.86.215-.242.47-.426.763-.553.293-.127.611-.19.953-.19.379 0 .71.063.993.19.284.127.518.306.704.538.19.228.33.5.42.816.095.316.142.665.142 1.047v.503h-4.087v-.846h2.924v-.093a1.655 1.655 0 00-.127-.596 1.015 1.015 0 00-.348-.45c-.156-.114-.365-.171-.626-.171-.195 0-.37.042-.523.127-.15.082-.275.2-.376.357a1.88 1.88 0 00-.235.567 3.185 3.185 0 00-.078.739v.195c0 .232.03.447.093.646.065.195.16.366.283.513.124.147.274.262.45.347.176.082.377.122.602.122.283 0 .536-.057.758-.17a1.75 1.75 0 00.576-.485l.621.602a2.418 2.418 0 01-.444.479c-.183.15-.406.272-.67.367a2.68 2.68 0 01-.91.141zm6.65-3.178v.93H38.74v-.93h2.738zm-2.396-2.21v5.29h-1.178v-5.29h1.178zm3.247 0v5.29H41.15v-5.29h1.179zm3.418 4.45c.192 0 .365-.038.518-.113a.982.982 0 00.376-.323.881.881 0 00.162-.474h1.11a1.653 1.653 0 01-.303.934c-.196.28-.455.504-.778.67-.323.163-.68.244-1.07.244-.405 0-.757-.068-1.057-.205a2.09 2.09 0 01-.748-.577 2.539 2.539 0 01-.45-.846 3.49 3.49 0 01-.146-1.027V39c0-.366.048-.708.146-1.028.101-.322.251-.606.45-.85.199-.245.448-.436.748-.572.3-.14.65-.21 1.051-.21.424 0 .796.084 1.115.253.32.167.57.4.753.7.186.296.282.642.289 1.036h-1.11a1.182 1.182 0 00-.147-.528.97.97 0 00-.362-.381 1.032 1.032 0 00-.552-.142c-.238 0-.435.049-.592.147a.986.986 0 00-.367.39 1.906 1.906 0 00-.19.553 3.6 3.6 0 00-.054.631v.171c0 .219.018.43.054.636.035.205.097.39.185.553.092.16.216.288.372.386.157.094.355.142.597.142zm4.342-4.45v5.29H48.91v-5.29h1.179zm3.452 0l-2.382 3.183h-1.344l-.157-1.066h.983l1.428-2.117h1.472zm-1.38 5.29l-1.593-2.307.929-.67 2.215 2.977h-1.55zm3.409-1.72l2.078-3.57h1.178v5.29h-1.178v-3.574l-2.078 3.575h-1.18v-5.291h1.179v3.57zm5.403-3.57l1.007 1.755 1.027-1.755h1.296l-1.604 2.596 1.667 2.694H63.07L61.995 39.9l-1.076 1.828h-1.3l1.662-2.694-1.599-2.596h1.29zm7.901 0v5.29h-1.178v-5.29h1.178zm3.452 0l-2.38 3.183H68.6l-.157-1.066h.983l1.428-2.117h1.471zm-1.378 5.29l-1.594-2.307.929-.67 2.215 2.977h-1.55zm5.745-5.29v.939H74.11v-.939h2.582zm.924 0v5.29h-1.178v-5.29h1.178zm-3.794 0h1.163l-.141 2.616c-.02.388-.06.73-.118 1.027a3.43 3.43 0 01-.225.758c-.094.208-.21.378-.347.508-.137.13-.296.227-.479.289a1.91 1.91 0 01-.616.093h-.367l-.005-.969.186-.014a.728.728 0 00.313-.093.707.707 0 00.225-.235c.065-.1.117-.231.156-.391.043-.16.075-.349.098-.567.026-.219.046-.473.059-.763l.098-2.259zm6.263 3.57l2.078-3.57h1.179v5.29h-1.179v-3.574l-2.078 3.575h-1.178v-5.291h1.178v3.57zm8.117-1.36v.93h-2.738v-.93h2.738zm-2.396-2.21v5.29h-1.178v-5.29h1.178zm3.247 0v5.29h-1.179v-5.29h1.179zm2.474 3.57l2.078-3.57h1.178v5.29h-1.178v-3.574l-2.078 3.575H90.35v-5.291h1.178v3.57zm5.774-3.57v5.29h-1.178v-5.29h1.178zm3.453 0l-2.382 3.183H97.03l-.157-1.066h.983l1.428-2.117h1.472zm-1.38 5.29l-1.593-2.307.929-.67 2.215 2.977h-1.55z" fill="#A5A5A5"/></svg>