<svg width="78" height="50" viewBox="0 0 78 50" fill="none" xmlns="http://www.w3.org/2000/svg"><g clip-path="url(#clip0_4915_5543)"><mask id="mask0_4915_5543" style="mask-type:luminance" maskUnits="userSpaceOnUse" x="0" y="0" width="78" height="50"><path d="M78 0H0v50h78V0z" fill="#fff"/></mask><g mask="url(#mask0_4915_5543)" fill="#A5A5A5"><path d="M60.833 42.453a1.08 1.08 0 01-.771-.29.987.987 0 01-.308-.742c0-.297.102-.55.305-.743.205-.193.463-.29.774-.29.194 0 .37.043.527.126v.41a.923.923 0 00-.523-.152.654.654 0 00-.475.184.618.618 0 00-.189.465c0 .19.065.345.194.468a.678.678 0 00.487.182c.219 0 .4-.058.547-.173v.411c-.16.097-.35.145-.567.145v-.001zm2.625-.04h-1.495v-1.985h1.464v.366h-1.053v.383h.848v.36h-.849v.51h1.086v.366h-.001zm.952 0h-.411v-1.985h.407l.578.823.578-.823h.404v1.985h-.404v-1.358l-.459.638h-.228l-.468-.639v1.359h.003zm3.707 0h-1.495v-1.985h1.464v.366h-1.053v.383h.848v.36h-.848v.51h1.085v.366h-.001zm.886 0h-.345v-1.985h.41v1.293l.966-1.293h.353v1.985h-.406v-1.302l-.977 1.302zm-.002-2.578h.301c0 .063.02.113.058.151a.214.214 0 00.158.057.224.224 0 00.16-.057.21.21 0 00.063-.15h.302a.466.466 0 01-.148.353.536.536 0 01-.373.132.535.535 0 01-.374-.132.459.459 0 01-.147-.354zm2.452 2.578h-.411v-1.985h.41v.743h.9v-.743h.407v1.985h-.407v-.87h-.9v.87zm2.742 0h-.78v-1.985h.41v.655h.37c.237 0 .426.063.565.188.138.12.208.28.208.479a.61.61 0 01-.208.48c-.14.121-.33.183-.565.183zm-.37-.984v.623h.348a.442.442 0 00.28-.08c.067-.054.1-.13.1-.228a.284.284 0 00-.1-.233.435.435 0 00-.28-.082h-.347zm1.792.984h-.41v-1.985h.41v1.985zm.999 0h-.344v-1.985h.41v1.293l.965-1.293h.354v1.985h-.407v-1.302l-.976 1.302h-.002zm-.002-2.578h.301c0 .063.02.113.058.151a.214.214 0 00.158.057.22.22 0 00.16-.057.211.211 0 00.063-.15h.302a.465.465 0 01-.148.353.535.535 0 01-.373.132.535.535 0 01-.374-.132.459.459 0 01-.147-.354zM60.23 45.603h-.41V43.62h.872c.215 0 .384.055.508.166.125.11.188.254.188.432a.55.55 0 01-.188.433c-.123.111-.293.167-.508.167h-.461v.786zm0-1.627v.492h.434c.1 0 .176-.02.23-.064a.219.219 0 00.084-.183.216.216 0 00-.083-.182.372.372 0 00-.231-.065h-.433v.002zm3.177 1.627h-1.495V43.62h1.464v.365h-1.053v.383h.848v.36h-.848v.51h1.085v.366h-.001zm1.51.04a1.08 1.08 0 01-.771-.29.986.986 0 01-.308-.742c0-.297.102-.55.305-.743.205-.193.463-.29.774-.29.194 0 .37.043.527.125v.412a.923.923 0 00-.523-.153.653.653 0 00-.475.184.618.618 0 00-.189.465c0 .19.065.345.194.468a.679.679 0 00.487.182.86.86 0 00.547-.173v.411c-.161.097-.35.145-.567.145v-.001zm.996-1.659v-.365h1.672v.365h-.632v1.62h-.41v-1.62h-.63zm1.974.626c0-.291.098-.535.293-.731.195-.2.442-.3.74-.3s.542.1.738.3c.197.2.297.445.297.731 0 .287-.1.53-.297.731a.99.99 0 01-.738.3.995.995 0 01-.74-.3 1.006 1.006 0 01-.293-.73zm.593.466a.589.589 0 00.441.184.584.584 0 00.44-.184.644.644 0 00.176-.466.646.646 0 00-.177-.466.585.585 0 00-.439-.183.59.59 0 00-.441.183.646.646 0 00-.174.466c0 .19.058.345.174.466zm2.468.527h-.41V43.62h.871c.215 0 .383.055.507.166.126.11.19.254.19.432a.55.55 0 01-.19.433c-.122.111-.292.167-.507.167h-.461v.786zm0-1.627v.492h.433c.099 0 .176-.02.23-.064a.218.218 0 00.084-.183.215.215 0 00-.084-.182.371.371 0 00-.23-.065h-.433v.002zm1.716 1.627h-.43l.854-1.996h.393l.855 1.996h-.435l-.196-.46h-.844l-.196.46h-.001zm.618-1.486l-.293.69h.584l-.29-.69h-.001zm1.942 1.486h-.41V43.62h.41v.742h.9v-.742h.406v1.984h-.407v-.87h-.899v.87zm-15.059 3.189h-.345v-1.985h.41V48.1l.966-1.293h.354v1.985h-.407V47.49l-.977 1.302zm3.393 0h-.41v-1.985h.41v.783l.735-.783h.5l-.845.91.99 1.075h-.523l-.857-.916v.916zm1.672-.016v-.368a.43.43 0 00.145.022c.106 0 .178-.073.215-.218.039-.15.06-.424.066-.823l.009-.582h1.407v1.985h-.407v-1.62h-.605l-.01.404c-.015.466-.069.786-.16.96-.094.176-.257.265-.493.265a.432.432 0 01-.168-.026v.001zm2.781.057a.612.612 0 01-.301-.057v-.36a.468.468 0 00.23.054c.084 0 .15-.019.2-.057a.634.634 0 00.154-.219l-.754-1.387h.453l.504.976.441-.976h.436l-.735 1.554c-.147.314-.357.47-.626.47l-.002.002zm2.678-.041h-.86v-1.985h1.447v.366h-1.037v.317h.45c.233 0 .417.06.55.182.136.122.204.28.204.47 0 .19-.067.349-.202.471-.135.118-.32.179-.552.179zm-.45-.96v.6h.417a.44.44 0 00.277-.076c.065-.05.097-.125.097-.221a.269.269 0 00-.098-.224.427.427 0 00-.276-.079h-.417zm-54-22.902v6.86c0 .833-.12 1.718-.359 2.657-.24.939-.598 1.745-1.075 2.418h3.225c-.491-.674-.856-1.477-1.095-2.408a10.71 10.71 0 01-.359-2.667v-5.987l4.435 11.062h3.385c-.305-.489-.458-1.864-.458-1.864s.107-1.236.32-1.843l3.131-9.359v9.794c0 .872-.07 1.554-.21 2.042a2.99 2.99 0 01-.667 1.233h4.66s-.995-.659-.995-3.3v-7.53c0-.779.026-1.348.08-1.705.052-.357.199-.819.437-1.388h-3.345l-4.09 11.835-3.836-9.715-.159-.455a12.516 12.516 0 00-.487-1.19l-.24-.475h-3.155m36.131 13.336c.259.39.673.585 1.244.585h1.652c-.133-.224-.25-.572-.348-1.04-.1-.47-.15-.956-.15-1.458V26.1c-1.008.543-2.17.88-3.484 1.012.24.304.418.627.537.972.12.343.177.657.169.942l-.01.486v1.09c-.212 1.004-.491 1.874-.836 2.607-.345.734-.707 1.296-1.085 1.685-.379.39-.733.586-1.066.586-.332 0-.578-.196-.776-.586-.2-.39-.3-.955-.3-1.694v-7.098c-1.008.542-2.17.879-3.484 1.011.331.424.531.817.598 1.18.066.363.1.77.1 1.219v2.577c0 1.164.035 2.071.108 2.726.074.654.28 1.213.618 1.675.339.462.88.694 1.623.694s1.404-.304 2.02-.912c.618-.607 1.132-1.348 1.544-2.22.412-.872.723-1.726.935-2.558v3.211c0 .66.129 1.187.388 1.576h.003zm8.965-10.319a8.108 8.108 0 00-.598-.06l-.517-.019c-1.115 0-2.02.199-2.718.595-.697.397-1.046 1.012-1.046 1.844 0 .45.153.886.458 1.308.305.424.67.813 1.095 1.17.425.357.997.793 1.712 1.308.837.582 1.47 1.077 1.902 1.487.432.41.674.84.727 1.288.04.158.06.317.06.475 0 .49-.197.88-.589 1.17-.392.291-.853.436-1.384.436-.53 0-.988-.148-1.374-.446-.385-.297-.577-.716-.577-1.258 0-.344.099-.655.299-.932.2-.278.438-.43.717-.455a1.28 1.28 0 00-.598-.615 1.989 1.989 0 00-.935-.219c-.478 0-.896.142-1.255.426-.358.284-.537.684-.537 1.2 0 .567.193 1.044.578 1.427.385.384.864.66 1.434.832a5.912 5.912 0 001.712.259c.957 0 1.799-.142 2.53-.427.729-.284 1.297-.67 1.702-1.16.404-.488.607-1.03.607-1.624 0-.45-.149-.886-.448-1.309a5.729 5.729 0 00-1.085-1.15 40.574 40.574 0 00-1.712-1.288c-.89-.634-1.547-1.153-1.97-1.556-.426-.402-.639-.816-.639-1.238 0-.423.133-.724.399-.942.265-.218.61-.327 1.036-.327.742 0 1.414.241 2.01.724.598.483 1.003 1.126 1.215 1.933l1.075-2.716c-.293.067-.59.099-.896.099-.517 0-1.134-.06-1.851-.178a8.867 8.867 0 01-.538-.06v-.002zm14.424 6.781c-.293.872-.753 1.603-1.384 2.19-.63.589-1.311.883-2.04.883-1.036 0-1.872-.39-2.51-1.17-.638-.78-1.016-1.745-1.135-2.895.677.317 1.446.475 2.31.475.863 0 1.602-.138 2.3-.416.697-.278 1.247-.67 1.652-1.18.404-.508.608-1.08.608-1.715 0-.515-.143-.998-.428-1.447-.286-.45-.717-.81-1.294-1.081-.578-.27-1.284-.406-2.121-.406-1.195 0-2.25.27-3.166.813-.916.541-1.62 1.255-2.111 2.141a5.716 5.716 0 00-.737 2.815c0 .99.196 1.84.588 2.666a4.827 4.827 0 001.752 2.002c.777.51 1.716.763 2.818.763.69 0 1.39-.158 2.101-.475a5.118 5.118 0 001.872-1.457c.537-.655.9-1.45 1.085-2.389l-.159-.118zm-7.109-1.785c0-.753.117-1.493.349-2.22.232-.727.574-1.326 1.026-1.795.451-.47.988-.704 1.612-.704.438 0 .803.209 1.096.625.291.416.437.974.437 1.674 0 .979-.265 1.782-.796 2.409-.53.627-1.228.941-2.091.941-.492 0-1.029-.126-1.613-.377a5.425 5.425 0 01-.02-.554v.001z"/><path d="M31.617 31.87c.028.89.243 1.726.651 2.507.438.84 1.088 1.516 1.951 2.031.864.515 1.906.773 3.126.773 1.221 0 2.22-.26 3.077-.783.856-.522 1.5-1.205 1.931-2.05a5.891 5.891 0 00.648-2.717 6.13 6.13 0 00-.648-2.755c-.431-.872-1.075-1.582-1.931-2.132-.856-.548-1.882-.823-3.077-.823-1.194 0-2.244.278-3.106.833-.06.038 2.162-.675 2.105-.635 1.79-2.589 4.751-5.264 5.145-5.694.55-.603 1.292-1.273 2.09-1.238 1.364.147 2.17.008 2.732-.126 2.485-.596 3.498-1.628 3.913-2.169.332-.432.573-1.078.44-1.565.171-.085.42-.363.462-.468.29-.752-.338-1.39-.932-.732-.24.265-.248.653-.257.709-.941.01-1.602-.186-2.34-.508 0 0-.056.411-.053.414.865.367 1.47.395 2.396.33.025.147.14.35.258.387a.38.38 0 00.216.015c.015.235-.1.529-.188.719-.63 1.348-2.375 1.92-3.482 2.079-.82.117-1.689.161-2.508.007a2.927 2.927 0 01-.629-.182 1.662 1.662 0 01-1.024-1.219c-.143-.637.119-1.78.316-2.28.26-.662.737-1.526 1.911-2.319.925-.624 2.083-.75 3.143-.384.965.335 1.505 1.124 1.561 2.43 0 .015.283.033.284.015.03-1.042-.272-1.727-.934-2.348-.02-1.2.106-2.287.272-3.036.182-.82.718-2.172 1.57-1.906.859.27.998 1.967.581 3.598-.227.885-.5 1.615-.78 2.109-.023.04.18.147.198.112.81-1.563 1.021-2.66 1.149-3.38.288-1.613-.149-2.775-1.213-2.955-.695-.119-1.437.376-1.798.95-.527.84-1.048 2.435-1.089 3.945a3.712 3.712 0 00-2.412.116 5.19 5.19 0 00-1.241.736c-.357-1.236-1.03-2.645-1.88-3.23-.442-.305-1.14-.473-1.787-.37-1.095.233-2.327.957-3.2 2.407-1.082 1.796-1.104 3.407-.425 4.954.282.641 1.097 1.279 1.74 1.543.578.238 1.318.291 1.96.01.281-.123.718-.41.915-.692.021-.03 0-.055-.04-.065-.863-.214-2.561-1.364-2.59-3.937-.007-.705.145-1.799.433-2.339.82-1.54 2.022-2.007 3.02-.888.7.785.881 2.258 1.044 3.36-.135.148-.27.318-.454.564 0 0-.192.32-.342.65-.709 1.562-.652 2.895-.633 3.362-.092.338-.186.657-.383.963-.217.334-.49.629-.757.925-.524.582-9.537 6.6-9.114 12.371l.002-.002.007.002zm3.14-2.905c.227-.839.558-1.523.997-2.052.438-.528.962-.793 1.573-.793.61 0 1.135.265 1.573.793.438.529.77 1.213.996 2.052.225.84.338 1.721.338 2.646 0 .925-.113 1.799-.338 2.617-.226.82-.557 1.484-.996 1.993-.438.508-.963.763-1.573.763s-1.135-.255-1.573-.763c-.438-.51-.77-1.174-.996-1.993a9.814 9.814 0 01-.339-2.617c0-.925.113-1.806.339-2.646zm14.047-17.03v.007l-.005-.004.003-.001.002-.001zm2.61 2.199c.02.021.08.073.122.079.062.009.11-.002.145-.03.75-.586 1.064-.767 1.352-.881.618-.245 1.131-.36 1.926-.22l.08.013.005-.081c.006-.158-.052-.178-.072-.184-1.351-.457-2.792.313-3.56 1.222-.03.036-.03.047.002.08v.002zm.326.621h.02l.22-.045c.3-.065.468-.102.755-.057.431.064.703.179 1.02.311l.183.076c.05.022.063-.022.09-.072.025-.049.059-.084.013-.114-.653-.426-1.649-.69-2.408-.311l-.056.03s.098.174.163.184v-.002z"/><path d="M45.564 24.742c-.013.099 1.558-.516 1.581-.71.16-1.332.008-2.117-.137-2.565-.206-.638-.473-1.145-.918-1.781-.009-.008-.14.002-.13.015v.005c-.038.032.435 1.307.195 2.866-.119.777-.574 2.02-.593 2.171l.002-.001zM27.39 19.683h3.306s-.512-.756-.518-1.654c-.024-4.03-.042-7.212.395-9.937.694-4.335 4.036-6.701 6.55-6.701 3.44 0 5.75 2.184 6.538 4.846.521 1.756.324 2.274.324 2.274l.601-.021s-.022-1.33-.195-2.474C43.688 1.385 39.754 0 37.16 0c-5.075 0-9.771 2.763-9.771 11.614v8.07zm15.36 19.095a8.179 8.179 0 00-.598-.06l-.517-.019c-1.116 0-2.021.2-2.718.596-.698.396-1.046 1.011-1.046 1.843 0 .45.152.886.458 1.308.305.424.67.813 1.095 1.17.424.357.996.793 1.712 1.308.836.582 1.47 1.077 1.901 1.487.432.41.674.84.727 1.288.04.158.06.317.06.476 0 .489-.196.879-.588 1.17-.392.29-.853.435-1.384.435-.531 0-.989-.148-1.375-.446-.384-.297-.577-.716-.577-1.258 0-.343.1-.655.3-.931.199-.278.437-.43.716-.456a1.28 1.28 0 00-.597-.615 1.99 1.99 0 00-.936-.219 1.96 1.96 0 00-1.254.426c-.359.284-.537.684-.537 1.2 0 .568.192 1.044.578 1.427.384.384.863.66 1.434.833.57.171 1.141.258 1.712.258.956 0 1.798-.142 2.53-.426.729-.284 1.297-.671 1.701-1.16.404-.49.608-1.031.608-1.625 0-.45-.149-.886-.448-1.308a5.73 5.73 0 00-1.085-1.15 40.26 40.26 0 00-1.712-1.288c-.89-.635-1.547-1.154-1.971-1.556-.426-.403-.638-.817-.638-1.24 0-.422.133-.723.398-.94.266-.219.61-.328 1.036-.328.743 0 1.414.241 2.01.724.599.483 1.003 1.127 1.215 1.933l1.076-2.716c-.293.067-.59.099-.896.099-.517 0-1.135-.06-1.852-.178a8.9 8.9 0 01-.537-.06l-.001-.002zm-20.14.784c-.856-.55-1.882-.823-3.076-.823-1.195 0-2.244.278-3.107.832a5.443 5.443 0 00-1.96 2.152 6.04 6.04 0 00-.668 2.765c0 .965.22 1.867.657 2.706.438.84 1.088 1.517 1.952 2.032.863.515 1.905.773 3.126.773 1.22 0 2.22-.26 3.076-.783.856-.523 1.5-1.206 1.931-2.052a5.892 5.892 0 00.648-2.715 6.13 6.13 0 00-.648-2.756 5.294 5.294 0 00-1.931-2.131zm-.527 7.484c-.226.82-.557 1.483-.996 1.992-.438.509-.963.763-1.573.763s-1.135-.254-1.573-.763c-.438-.509-.77-1.173-.996-1.992a9.816 9.816 0 01-.339-2.617c0-.925.113-1.807.339-2.647.226-.839.558-1.523.996-2.051.438-.529.963-.793 1.573-.793s1.135.264 1.573.793c.438.528.77 1.212.996 2.051.226.84.339 1.722.339 2.647 0 .925-.114 1.797-.34 2.617zm14.012.138v-8.267c-1.008.542-2.17.88-3.484 1.011.24.304.418.628.537.972.12.344.176.657.169.943-.007.284-.01.445-.01.485v1.09c-.212 1.005-.492 1.874-.836 2.608-.345.733-.707 1.295-1.086 1.684-.378.39-.734.586-1.065.586-.331 0-.577-.196-.777-.586-.2-.39-.299-.954-.299-1.694v-7.098c-1.008.542-2.17.88-3.484 1.011.33.424.53.817.598 1.18.065.363.099.77.099 1.219v2.578c0 1.163.036 2.07.109 2.725.073.655.28 1.213.618 1.675.338.462.88.694 1.622.694.743 0 1.405-.304 2.021-.911.618-.608 1.131-1.35 1.543-2.221a14.36 14.36 0 00.937-2.558v3.211c0 .661.129 1.187.388 1.576.26.39.674.586 1.244.586h1.653c-.133-.225-.25-.572-.349-1.041a6.98 6.98 0 01-.149-1.458h.001zm19.601.566c-.63.588-1.311.882-2.04.882-1.036 0-1.873-.39-2.51-1.17-.638-.78-1.016-1.745-1.135-2.895.677.318 1.446.476 2.31.476.863 0 1.602-.139 2.3-.417.697-.277 1.247-.67 1.652-1.18.404-.508.608-1.08.608-1.715 0-.515-.143-.998-.428-1.447-.286-.45-.717-.81-1.295-1.08-.577-.271-1.284-.407-2.122-.407-1.194 0-2.25.27-3.165.813-.917.542-1.62 1.256-2.112 2.141a5.716 5.716 0 00-.736 2.815c0 .99.195 1.84.587 2.666a4.828 4.828 0 001.753 2.002c.777.51 1.716.764 2.817.764.69 0 1.391-.158 2.102-.476.71-.317 1.335-.803 1.872-1.457.537-.655.899-1.45 1.085-2.389l-.159-.118c-.292.871-.753 1.603-1.384 2.19v.002zm-5.725-3.975c0-.753.117-1.493.349-2.22.232-.727.574-1.325 1.026-1.795.451-.47.988-.704 1.612-.704.438 0 .803.209 1.096.625.291.416.437.975.437 1.675 0 .978-.265 1.78-.796 2.408-.53.628-1.228.941-2.09.941-.491 0-1.028-.125-1.613-.376a5.36 5.36 0 01-.02-.555v.001zm-37.486 3.409v-8.327c0-.779.027-1.348.08-1.705.053-.357.2-.82.438-1.389H9.18c.225.476.368.876.428 1.2.059.323.089.743.089 1.258v4.104H3.308v-3.469a21.225 21.225 0 01.063-1.572 2.91 2.91 0 01.018-.132c.053-.357.2-.82.438-1.389l-.005.003.002-.005H0c.226.49.368.895.428 1.219.06.324.09.75.09 1.278l.002.408v8.517c0 .528-.03.955-.09 1.278-.06.324-.202.73-.428 1.219h3.824c-.24-.568-.386-1.034-.438-1.398-.054-.363-.08-.929-.08-1.694V42.8h6.39v3.686c-.011.447-.042 1.543-.08 1.796-.053.363-.2.83-.437 1.398h3.823c-.226-.489-.368-.895-.428-1.219-.06-.323-.09-.75-.09-1.278z"/></g></g><defs><clipPath id="clip0_4915_5543"><path fill="#fff" d="M0 0h78v50H0z"/></clipPath></defs></svg>