<svg width="179" height="29" viewBox="0 0 179 29" fill="none" xmlns="http://www.w3.org/2000/svg"><path fill-rule="evenodd" clip-rule="evenodd" d="M47.519 17.787c.897-1.432 1.344-3.07 1.344-4.91 0-1.84-.447-3.478-1.344-4.91-.898-1.431-2.157-2.54-3.775-3.328-1.618-.788-3.47-1.18-5.554-1.18s-3.937.392-5.555 1.18c-1.617.787-2.877 1.897-3.775 3.328-.897 1.432-1.344 3.07-1.344 4.91 0 1.84.447 3.478 1.344 4.91.898 1.431 2.158 2.541 3.775 3.328 1.618.788 3.47 1.18 5.555 1.18 2.083 0 3.936-.392 5.554-1.18 1.617-.787 2.877-1.896 3.775-3.328zM44.675 9.35c.6 1.008.904 2.182.904 3.528 0 1.357-.303 2.536-.904 3.543-.6.998-1.455 1.772-2.57 2.324-1.103.542-2.407.816-3.915.816-1.462 0-2.737-.257-3.828-.766l-.105-.05c-1.07-.535-1.9-1.279-2.497-2.231l-.057-.093c-.6-1.007-.903-2.187-.903-3.543 0-1.346.303-2.52.904-3.528.6-1.007 1.45-1.782 2.553-2.323 1.115-.553 2.424-.831 3.933-.831 1.508 0 2.812.279 3.915.83l.002.001c1.114.542 1.968 1.316 2.568 2.323z" fill="#A5A5A5"/><path d="M4.587 4.303l7.532 14.741L19.65 4.213h4.54V22.23h-3.066V11.988l.823-4.228h-.823l-7.508 14.471h-3.044l-.046-.09L3.065 7.79h-.797l.797 4.36v10.08H0V4.213h4.54l.047.09z" fill="#A5A5A5"/><path fill-rule="evenodd" clip-rule="evenodd" d="M130.013 18.97c-.922.558-1.994.84-3.222.84-1.774 0-3.097-.528-3.998-1.559-.904-1.045-1.369-2.589-1.369-4.656V4.213h-3.216v9.868c0 1.774.296 3.303.893 4.584l.001.002c.609 1.271 1.494 2.248 2.652 2.924h.001c1.169.676 2.568 1.01 4.19 1.01 1.692 0 3.198-.442 4.512-1.33 1.177-.793 2.287-1.869 2.972-3.222h.376l-.282 4.145h3.623l-1.02-5.746V4.213h-3.215v8.834c0 1.347-.257 2.534-.767 3.563-.499 1.018-1.209 1.803-2.131 2.36z" fill="#A5A5A5"/><path d="M153.78 4.36v2.455h-10.384v15.33h-2.974V4.361h13.358z" fill="#A5A5A5" stroke="#A5A5A5" stroke-width=".079"/><path d="M107.462 3.65c1.566 0 2.904.336 4.016 1.009 1.112.673 1.959 1.65 2.542 2.932.583 1.271.874 2.804.874 4.598v9.918h-2.979v-9.405c0-2.147-.453-3.77-1.36-4.87-.896-1.112-2.213-1.667-3.951-1.667-1.22 0-2.288.299-3.206.897-.917.588-1.63 1.416-2.137 2.484-.497 1.068-.745 2.302-.745 3.7v8.861h-2.98v-9.405c0-2.147-.453-3.77-1.36-4.87-.895-1.112-2.212-1.667-3.95-1.667-1.22 0-2.289.299-3.206.897-.918.588-1.63 1.416-2.138 2.484-.496 1.068-.744 2.302-.744 3.7v8.861h-2.98V9.77l-1.036-5.704h4.013l-.273 4.486c.67-1.549 1.63-2.75 2.883-3.605 1.262-.865 2.714-1.298 4.355-1.298 1.814 0 3.32.449 4.518 1.346 1.198.898 2.03 2.19 2.493 3.878.637-1.645 1.598-2.927 2.882-3.846 1.296-.918 2.785-1.378 4.469-1.378zm61.438.87c1.724 0 3.263.395 4.619 1.183 1.356.778 2.412 1.87 3.168 3.279.768 1.408 1.151 3.016 1.151 4.823 0 1.808-.383 3.416-1.151 4.824a8.237 8.237 0 01-3.168 3.294c-1.356.778-2.895 1.167-4.619 1.167-1.86 0-3.546-.505-5.06-1.514-1.513-1.008-2.742-2.406-3.688-4.192v10.498h-2.901V4.93h2.901v5.28c.946-1.786 2.175-3.179 3.688-4.177 1.514-1.009 3.2-1.513 5.06-1.513zm-.488 16.127c1.24 0 2.349-.29 3.326-.867a5.98 5.98 0 002.301-2.412c.557-1.04.836-2.228.836-3.563 0-1.324-.279-2.506-.836-3.546a5.957 5.957 0 00-2.301-2.428c-.977-.578-2.086-.867-3.326-.867-1.829 0-3.473.62-4.934 1.86-1.45 1.24-2.585 2.9-3.405 4.981.82 2.091 1.955 3.757 3.405 4.997 1.45 1.23 3.095 1.845 4.934 1.845z" fill="#A5A5A5"/><path d="M177.838 13.805c0-1.807-.383-3.415-1.151-4.823-.756-1.408-1.812-2.501-3.168-3.279-1.186-.69-2.513-1.077-3.981-1.163l-.638-.02c-1.86 0-3.546.505-5.06 1.514-1.513.998-2.742 2.39-3.688 4.177v-5.28h-2.901v22.95h2.901V17.385c.946 1.786 2.175 3.184 3.688 4.192a8.885 8.885 0 004.714 1.507l.346.007c1.508 0 2.876-.298 4.102-.893l.517-.274a8.237 8.237 0 003.168-3.294c.672-1.232 1.049-2.617 1.132-4.155l.019-.669zm-3.152 0c0-1.296-.272-2.447-.813-3.457a5.778 5.778 0 00-2.23-2.354l-.001-.001c-.946-.56-2.021-.84-3.23-.84-1.781 0-3.383.602-4.812 1.814-1.407 1.203-2.515 2.814-3.323 4.839.808 2.034 1.917 3.65 3.323 4.853l.268.217c1.351 1.056 2.864 1.583 4.544 1.583v.188l-.343-.007c-1.588-.067-3.027-.606-4.317-1.615l-.274-.223c-1.45-1.24-2.585-2.905-3.405-4.997.769-1.95 1.815-3.532 3.137-4.744l.268-.237c1.461-1.24 3.105-1.86 4.934-1.86l.458.013c1.056.063 2.013.348 2.868.854a5.957 5.957 0 012.301 2.428c.557 1.04.836 2.222.836 3.546l-.013.494c-.061 1.135-.335 2.158-.823 3.069l-.214.375a5.957 5.957 0 01-2.087 2.037l-.373.203c-.884.443-1.869.663-2.953.663v-.187c1.21 0 2.284-.283 3.23-.842a5.798 5.798 0 002.231-2.338l.19-.385c.414-.916.623-1.944.623-3.088zm-14.346-4.31c.842-1.407 1.878-2.55 3.11-3.423l.287-.196c1.545-1.03 3.268-1.544 5.164-1.544 1.752 0 3.324.402 4.71 1.207a8.337 8.337 0 013.243 3.353c.784 1.44 1.173 3.079 1.173 4.914 0 1.834-.39 3.473-1.173 4.912a8.441 8.441 0 01-3.24 3.369c-1.387.795-2.96 1.19-4.713 1.19-1.896 0-3.62-.514-5.165-1.544-1.359-.906-2.49-2.119-3.396-3.634v9.971h-3.277V4.332h3.277v5.162z" fill="#A5A5A5"/><path d="M55.427 4.256v9.418c0 2.062.463 3.596 1.36 4.633.893 1.021 2.206 1.546 3.972 1.546 1.222 0 2.287-.281 3.203-.834.916-.554 1.622-1.334 2.118-2.346.507-1.024.764-2.205.764-3.548v-8.87h3.285V16.52l1.02 5.746.006.042h-3.702l.002-.038.28-4.107h-.318c-.69 1.35-1.799 2.424-2.973 3.216-1.32.891-2.833 1.336-4.532 1.336-1.524 0-2.855-.295-3.983-.892l-.224-.123c-1.092-.637-1.942-1.54-2.549-2.704l-.118-.235v-.002c-.601-1.287-.897-2.823-.897-4.6V4.256h3.286zM60.493.124c.31-.1.624-.125.938-.024.31.1.597.274.883.57.262.274.43.573.525.896.096.326.072.651-.024.974-.096.325-.311.648-.595.944-.284.296-.595.521-.907.621-.31.1-.624.126-.938.025a2.081 2.081 0 01-.884-.572v-.001a1.749 1.749 0 01-.525-.897v0c-.095-.326-.07-.65.024-.972.096-.325.312-.648.596-.944.284-.296.594-.52.907-.62z" fill="#A5A5A5" stroke="#A5A5A5" stroke-width=".07"/></svg>