<svg width="87" height="42" viewBox="0 0 87 42" fill="none" xmlns="http://www.w3.org/2000/svg"><g clip-path="url(#clip0_4916_5645)"><mask id="mask0_4916_5645" style="mask-type:luminance" maskUnits="userSpaceOnUse" x="0" y="0" width="87" height="42"><path d="M87 0H0v42h87V0z" fill="#fff"/></mask><g mask="url(#mask0_4916_5645)" fill="#A5A5A5"><path d="M38.04 22.494l.384.553c.489.705 1.206 1.58 2.134 2.602.28.309.536.586.762.832a3.3 3.3 0 002.421 1.06 3.3 3.3 0 002.422-1.06c.227-.246.48-.523.762-.832.929-1.021 1.662-1.9 2.18-2.612l.39-.536.38.544a21.128 21.128 0 003.569 3.947.46.46 0 00.368.109.477.477 0 00.336-.202l2.338-3.359a.477.477 0 00-.067-.617 9.936 9.936 0 01-2.227-3.24c-.62-1.455-1.059-3.629-1.301-6.458-.232-2.707-.355-6.675-.362-11.802h-6.122c-.003 4.612-.067 8.19-.19 10.64-.128 2.586-.343 4.46-.655 5.726l-.009.035a1.837 1.837 0 01-1.812 1.413 1.84 1.84 0 01-1.811-1.412l-.009-.036c-.31-1.252-.53-3.179-.655-5.727-.123-2.433-.187-6.012-.19-10.639h-6.123c-.007 5.12-.128 9.09-.36 11.802-.243 2.833-.682 5.005-1.302 6.458a9.938 9.938 0 01-2.227 3.24.478.478 0 00-.067.617l2.34 3.36a.474.474 0 00.335.203.462.462 0 00.367-.11 22.066 22.066 0 003.608-3.953l.394-.546zm5.701 5.989a4.255 4.255 0 01-3.12-1.366l-.765-.837a33.033 33.033 0 01-1.825-2.167 22.872 22.872 0 01-3.375 3.596 1.433 1.433 0 01-2.098-.272l-2.34-3.362a1.411 1.411 0 01.186-1.825 8.995 8.995 0 002.015-2.936c.581-1.36.996-3.435 1.23-6.169.239-2.767.358-6.87.358-12.193v-.47h8.015v.47c0 4.841.064 8.564.188 11.063.125 2.489.336 4.355.63 5.55l.009.037c.128.51.545.693.892.693.348 0 .765-.182.893-.694l.008-.035c.294-1.191.506-3.06.63-5.55.125-2.517.189-6.24.189-11.064v-.47h8.015v.47c0 5.329.121 9.431.358 12.193.233 2.73.646 4.806 1.23 6.17a8.998 8.998 0 002.015 2.935c.504.49.582 1.257.187 1.825l-2.342 3.36a1.427 1.427 0 01-2.098.27 21.951 21.951 0 01-3.349-3.595c-.49.63-1.112 1.357-1.85 2.17-.282.31-.538.59-.767.837a4.248 4.248 0 01-3.119 1.366zM13.292 6.629c-1.648 0-2.939.45-3.836 1.34-.895.885-1.348 2.16-1.348 3.788v5.451c0 1.651.441 2.89 1.348 3.789.897.89 2.188 1.341 3.836 1.341 1.648 0 2.937-.45 3.833-1.341.896-.887 1.35-2.161 1.35-3.789v-5.45c0-1.628-.454-2.902-1.35-3.79-.896-.89-2.185-1.34-3.833-1.34zm0 16.657c-1.906 0-3.418-.544-4.498-1.614-1.083-1.07-1.631-2.572-1.631-4.464v-5.45c0-1.89.548-3.394 1.631-4.464 1.08-1.071 2.592-1.615 4.498-1.615 1.904 0 3.418.544 4.497 1.615 1.081 1.072 1.63 2.573 1.63 4.464v5.45c0 1.89-.549 3.392-1.63 4.464-1.08 1.072-2.593 1.614-4.497 1.614zm0-22.337c-3.874 0-6.934 1.088-9.094 3.232C2.038 6.326.944 9.371.944 13.234v2.46c0 2.561.496 4.791 1.472 6.63a10.005 10.005 0 004.216 4.214c1.845.982 4.085 1.48 6.66 1.48 2.573 0 4.814-.498 6.66-1.48a10.006 10.006 0 004.216-4.215c.975-1.838 1.47-4.068 1.47-6.628V13.27c0-2.559-.495-4.789-1.47-6.629a10.015 10.015 0 00-4.216-4.215C18.106 1.446 15.865.95 13.292.95zm0 28.016c-2.731 0-5.12-.535-7.103-1.588a10.931 10.931 0 01-4.607-4.607C.533 20.791 0 18.412 0 15.695v-2.461c0-4.126 1.189-7.398 3.534-9.726C5.877 1.18 9.159 0 13.292 0c2.729 0 5.12.535 7.1 1.589a10.945 10.945 0 014.609 4.607c1.05 1.98 1.582 4.36 1.582 7.075v2.424c0 2.716-.533 5.097-1.582 7.075a10.936 10.936 0 01-4.608 4.607c-1.982 1.053-4.37 1.588-7.101 1.588zM73.709 6.629c-1.646 0-2.937.45-3.834 1.34-.895.887-1.35 2.16-1.35 3.788v5.451c0 1.628.455 2.904 1.35 3.789.897.89 2.188 1.341 3.834 1.341 1.648 0 2.939-.45 3.835-1.341.895-.887 1.35-2.161 1.35-3.789v-5.45c0-1.628-.455-2.902-1.35-3.79-.896-.89-2.187-1.34-3.835-1.34zm0 16.657c-1.905 0-3.419-.544-4.498-1.614-1.081-1.07-1.63-2.572-1.63-4.464v-5.45c0-1.89.549-3.394 1.63-4.464 1.08-1.071 2.593-1.615 4.498-1.615 1.906 0 3.42.544 4.497 1.615 1.083 1.072 1.631 2.573 1.631 4.464v5.45c0 1.89-.548 3.392-1.63 4.464-1.078 1.072-2.594 1.614-4.498 1.614zm0-22.337c-3.874 0-6.933 1.088-9.093 3.232-2.159 2.145-3.254 5.19-3.254 9.053v2.46c0 2.561.495 4.791 1.47 6.63a10.008 10.008 0 004.216 4.214c1.846.982 4.088 1.48 6.66 1.48 2.576 0 4.817-.498 6.661-1.48a9.995 9.995 0 004.216-4.215c.977-1.838 1.472-4.068 1.472-6.628V13.27c0-2.559-.495-4.789-1.472-6.629a10.005 10.005 0 00-4.216-4.215C78.525 1.446 76.284.95 73.709.95zm0 28.016c-2.73 0-5.12-.535-7.103-1.588a10.937 10.937 0 01-4.605-4.607c-1.05-1.978-1.584-4.358-1.584-7.075v-2.461c0-4.126 1.19-7.398 3.535-9.726C66.294 1.18 69.58 0 73.71 0c2.73 0 5.12.535 7.103 1.589a10.956 10.956 0 014.608 4.607c1.05 1.98 1.58 4.36 1.58 7.075v2.424c0 2.716-.53 5.097-1.58 7.075a10.945 10.945 0 01-4.608 4.607c-1.983 1.053-4.373 1.588-7.103 1.588zM14.593 41.902L12.01 39.14c-.098-.114-.098-.23 0-.343l2.485-2.5a.28.28 0 01.2-.09c.049 0 .091.02.128.057a.195.195 0 01.052.132c0 .06-.024.114-.074.162l-2.417 2.377 2.542 2.705a.21.21 0 01.058.155.21.21 0 01-.058.145.19.19 0 01-.141.06c-.061 0-.125-.033-.19-.098zm-3.021-5.482v5.358a.21.21 0 01-.068.157.215.215 0 01-.156.065.224.224 0 01-.232-.221V36.42c0-.06.022-.11.066-.151a.24.24 0 01.174-.062.2.2 0 01.148.065.204.204 0 01.068.148zm4.858 2.443c0 .764.234 1.4.701 1.915a2.222 2.222 0 001.718.767c.706 0 1.283-.255 1.736-.767.456-.52.686-1.158.686-1.915 0-.764-.231-1.404-.694-1.922a2.255 2.255 0 00-1.728-.76 2.24 2.24 0 00-1.726.76c-.462.517-.694 1.158-.694 1.922zm-.48 0c0-.892.276-1.637.827-2.238.55-.6 1.242-.9 2.072-.9.827 0 1.518.294 2.074.883.552.588.827 1.34.827 2.255 0 .903-.275 1.65-.827 2.238-.551.6-1.242.899-2.074.899-.825 0-1.514-.297-2.064-.89-.556-.59-.835-1.337-.835-2.247zm8.67-2.215v2.476h.997c.38 0 .724-.12 1.032-.362.296-.239.445-.54.445-.9 0-.82-.522-1.229-1.567-1.229-.12 0-.422.005-.907.015zm2.993 5.246l-1.871-2.344H24.62v2.229a.21.21 0 01-.065.156.223.223 0 01-.165.065.209.209 0 01-.156-.065.211.211 0 01-.067-.157v-5.317a.23.23 0 01.07-.168.23.23 0 01.17-.07c.703-.011 1.084-.016 1.145-.016 1.347 0 2.02.552 2.02 1.655a1.5 1.5 0 01-.388 1.032c-.252.296-.58.484-.98.567l1.779 2.196c.034.037.05.08.05.131a.211.211 0 01-.062.147.21.21 0 01-.16.065.24.24 0 01-.198-.106zm2.823-2.616v2.291h2.7c.063 0 .114.022.153.063a.22.22 0 01.061.16c0 .139-.07.208-.213.208h-2.923a.235.235 0 01-.174-.07.221.221 0 01-.073-.17v-5.313c0-.066.024-.123.073-.17a.235.235 0 01.174-.07h2.838c.061 0 .114.021.153.062.04.041.059.096.059.161 0 .139-.071.208-.212.208h-2.616v2.209h2.359a.21.21 0 01.154.06c.039.044.06.098.06.164a.206.206 0 01-.06.144.205.205 0 01-.154.063m5.399.312l-1.228-2.763-1.228 2.763h2.456zm1.01 2.288l-.824-1.863h-2.827l-.824 1.863c-.045.081-.11.122-.194.122a.208.208 0 01-.155-.062.202.202 0 01-.064-.15.43.43 0 01.017-.082l2.406-5.335c.05-.11.129-.164.236-.164.112 0 .194.053.244.164l2.397 5.327a.456.456 0 01.017.081.215.215 0 01-.072.153.222.222 0 01-.357-.054zm2.842-5.517l3.918 4.812v-4.761c0-.06.02-.11.063-.148a.235.235 0 01.164-.057c.14 0 .209.068.209.205v5.376c0 .142-.067.212-.2.212-.091 0-.174-.049-.253-.147l-3.943-4.844v4.786c0 .062-.022.11-.063.148a.238.238 0 01-.164.057.202.202 0 01-.147-.06.193.193 0 01-.064-.145v-5.383c0-.06.02-.11.064-.148a.223.223 0 01.153-.057c.09 0 .178.052.263.154zm12.094 3.066h-2.43v2.35a.207.207 0 01-.071.158.228.228 0 01-.165.065.239.239 0 01-.172-.065.205.205 0 01-.069-.157v-5.333a.22.22 0 01.074-.168.24.24 0 01.177-.07H54.4c.064 0 .116.021.156.06.04.043.06.096.06.162 0 .137-.071.204-.216.204h-2.69V39h2.43c.064 0 .116.02.157.06.04.043.06.095.06.162 0 .138-.072.204-.216.204zm1.922-.564c0 .764.235 1.4.702 1.915a2.226 2.226 0 001.72.767c.704 0 1.283-.255 1.734-.767.458-.52.686-1.158.686-1.915 0-.764-.232-1.404-.694-1.922a2.252 2.252 0 00-1.726-.76 2.24 2.24 0 00-1.728.76c-.461.517-.694 1.158-.694 1.922zm-.479 0c0-.892.277-1.637.827-2.238.551-.6 1.242-.9 2.074-.9.825 0 1.516.294 2.072.883.552.588.827 1.34.827 2.255 0 .903-.276 1.65-.827 2.238-.55.6-1.242.899-2.072.899-.827 0-1.515-.297-2.066-.89-.556-.59-.835-1.337-.835-2.247zm8.214 0c0 .764.233 1.4.7 1.915a2.222 2.222 0 001.72.767c.704 0 1.283-.255 1.734-.767.456-.52.686-1.158.686-1.915 0-.764-.231-1.404-.694-1.922a2.253 2.253 0 00-1.726-.76c-.689 0-1.265.252-1.727.76-.462.517-.693 1.158-.693 1.922zm-.48 0c0-.892.275-1.637.826-2.238.551-.6 1.243-.9 2.074-.9.825 0 1.516.294 2.072.883.551.588.827 1.34.827 2.255 0 .903-.276 1.65-.827 2.238-.55.6-1.24.899-2.072.899-.827 0-1.514-.297-2.065-.89-.557-.59-.836-1.337-.836-2.247zm8.198-2.206v4.899c.184 0 .36.002.524.005.163.003.28.005.354.008.074.003.113.003.117.003.925 0 1.636-.238 2.131-.715.502-.47.752-1.08.752-1.831 0-.707-.238-1.283-.718-1.726-.484-.444-1.194-.665-2.13-.665-.124 0-.305.003-.545.01-.24.009-.401.012-.485.012zm-.22-.426c.106 0 .317-.005.63-.013.312-.008.525-.011.638-.011.574 0 1.08.075 1.512.225.433.15.781.36 1.04.625.26.266.453.565.579.896.127.332.19.69.19 1.073 0 .865-.293 1.577-.88 2.136-.591.559-1.427.838-2.51.838l-1.199-.016a.24.24 0 01-.175-.07.225.225 0 01-.07-.169V36.47a.24.24 0 01.245-.238z"/></g></g><defs><clipPath id="clip0_4916_5645"><path fill="#fff" d="M0 0h87v42H0z"/></clipPath></defs></svg>