<svg width="128" height="37" viewBox="0 0 128 37" fill="none" xmlns="http://www.w3.org/2000/svg"><g clip-path="url(#clip0_4915_5511)"><path d="M29.42 10.62c3.24 0 6.165 1.46 8.275 3.819 2.064 2.307 3.341 5.476 3.341 8.959 0 3.483-1.277 6.652-3.34 8.96-2.11 2.359-5.037 3.819-8.277 3.819-3.24 0-6.165-1.46-8.276-3.82-2.064-2.307-3.34-5.476-3.34-8.959 0-3.483 1.277-6.652 3.34-8.96 2.11-2.359 5.036-3.819 8.276-3.819zm81.849 25.047l-10.55-25.545-10.56 25.545h3.721l2.532-6.325h8.644l2.471 6.325h3.742zm-7.463-9.66h-6.082l3.026-8.39 3.056 8.39zm12.952 1.625v8.035h3.508V24.42l5.381-9.559 2.124-3.775h-3.544l-5.652 9.963-5.442-9.963h-3.727l6.589 11.95.763 1.384v3.213zm-46.65-16.547v24.582h5.731c2.573 0 4.47-.177 5.684-.526a8.619 8.619 0 003.26-1.771c1.26-1.1 2.216-2.493 2.867-4.177.651-1.685.976-3.616.976-5.8 0-2.183-.325-4.125-.976-5.827-.65-1.702-1.607-3.094-2.868-4.183a8.563 8.563 0 00-3.33-1.77c-1.27-.35-3.458-.528-6.57-.528H70.11zm3.54 20.973V14.66h2.562c1.83 0 3.178.12 4.038.367a5.32 5.32 0 012.21 1.243c.825.797 1.445 1.782 1.857 2.968.412 1.18.62 2.55.62 4.12 0 1.565-.208 2.94-.62 4.12-.412 1.186-1.032 2.172-1.856 2.968a5.219 5.219 0 01-2.14 1.244c-.82.246-2.05.367-3.687.367h-2.985zM61.9 11.085v24.582h3.539V11.085h-3.54zm-16.157 0v24.582h11.47v-3.575h-7.93V11.085h-3.54zm-34.126 4.629l-1.15-.55c-.563-.282-1.247-.575-1.89-.74-.41-.106-.794-.162-1.086-.124-.104.02-.233.028-.34.04a4.393 4.393 0 00-1.604.53c-.41.239-.747.549-.981.918a2.326 2.326 0 00-.35.889c-.042.271-.03.56.059.86.156.526.339.905.573 1.216.256.339.606.648 1.063 1.002a20.92 20.92 0 001.656 1.131c.71.444 1.306.791 1.852 1.105.766.44 1.43.845 2.032 1.332a8.235 8.235 0 011.798 2.002c.733 1.137 1.21 2.484 1.226 3.905.014 1.27-.341 2.57-1.21 3.798a7.004 7.004 0 01-2.598 2.258c-.911.459-1.852.689-2.752.809a7.562 7.562 0 01-1.896.013 7.996 7.996 0 01-1.868-.461C2.83 35.145 1.92 34.667.655 34L0 33.656l1.71-3.245.654.344c1.155.608 1.984 1.044 3.08 1.46a4.292 4.292 0 001.998.247c.534-.072 1.08-.201 1.574-.45a3.398 3.398 0 001.262-1.095 2.77 2.77 0 00.535-1.658c-.007-.668-.26-1.347-.651-1.953a4.616 4.616 0 00-1.008-1.125c-.443-.358-.959-.671-1.559-1.017a65.81 65.81 0 01-1.967-1.162 24.041 24.041 0 01-1.958-1.347c-.709-.547-1.273-1.058-1.751-1.69-.498-.661-.87-1.409-1.162-2.394a5.555 5.555 0 01-.175-2.44c.132-.86.454-1.638.882-2.31a6.496 6.496 0 012.245-2.124c.877-.509 1.9-.85 3.01-.997.11-.018.224-.027.334-.04.785-.093 1.62.008 2.428.217.96.246 1.884.637 2.615 1l.622.298c.231.109.426.201.65.323l-1.751 3.216zM32.18 0l-6.692 5.742 1.6 1.806 6.691-5.742L32.18 0zm2.889 16.788c-1.453-1.624-3.452-2.63-5.65-2.63-2.198 0-4.196 1.006-5.65 2.63-1.499 1.677-2.427 4.014-2.427 6.61 0 2.597.928 4.933 2.428 6.61 1.453 1.624 3.451 2.63 5.65 2.63 2.197 0 4.196-1.006 5.65-2.63 1.499-1.677 2.427-4.013 2.427-6.61 0-2.596-.928-4.933-2.428-6.61z" fill="#A5A5A5"/></g><defs><clipPath id="clip0_4915_5511"><path fill="#fff" d="M0 0h128v37H0z"/></clipPath></defs></svg>