<svg width="34" height="42" viewBox="0 0 34 42" fill="none" xmlns="http://www.w3.org/2000/svg"><path d="M0 14.53c.12-.088.08-.214.084-.326.06-1.717.221-3.428.412-5.136.093-.825.18-1.649.28-2.573.584.591 1.1 1.115 1.616 1.641.066.067.115.156.192.207.823.54.928 1.308.911 2.17-.023 1.145.128 2.285.348 3.414.24 1.241.963 2.266 1.774 3.242.61.732 1.257 1.44 1.874 2.166 1.218 1.433 1.805 3.13 2.347 4.843.153.486.281.978.416 1.47.058.211.061.353-.278.351-2.716-.012-5.432-.01-8.147-.003-.23 0-.324-.082-.38-.272C.862 23.7.403 21.656.16 19.57c-.044-.376.02-.768-.158-1.129v-3.912L0 14.531z" fill="#A5A5A5"/><path d="M13.625 29.162c-.449-.204-.606-.55-.715-.915-.506-1.661-.985-3.33-1.503-4.988-.683-2.184-1.908-4.035-3.694-5.589-.586-.51-1.09-1.092-1.613-1.656-1.032-1.116-1.361-2.458-1.511-3.86-.134-1.247-.119-2.498-.044-3.747.012-.213-.103-.297-.267-.39-.663-.373-1.3-.778-1.89-1.246C.883 5.58.391 3.543 1.267 1.986 1.869.924 2.939.436 4.13.146c1.643-.4 3.007.024 3.977 1.308 1.448 1.915 3.745 2.02 5.206 1.645.64-.165 1.144-.554 1.662-.915 1.072-.747 2.224-.762 3.314-.019.729.498 1.447 1.004 2.399 1.067 1.64.11 3.117-.168 4.195-1.454.319-.38.655-.751 1.053-1.069 1.179-.938 2.48-.785 3.834-.412 1.366.378 1.933 1.386 2.41 2.481.569 1.308.061 2.937-1.233 3.963a14.49 14.49 0 01-1.963 1.292c-.167.093-.23.19-.223.37.037.936.081 1.872.019 2.809-.088 1.3-.19 2.602-.862 3.786-.517.908-1.279 1.649-2.036 2.388-.903.88-1.856 1.721-2.55 2.76-.915 1.368-1.377 2.901-1.857 4.424-.387 1.235-.728 2.483-1.11 3.72-.109.354-.26.712-.74.869-.206-1.492-.413-2.946-.602-4.404-.162-1.252-.299-2.507-.454-3.76-.153-1.24-.231-2.488-.312-3.736-.074-1.155-.111-2.314-.179-3.47-.017-.281.088-.498.272-.707 1.52-1.729 3.478-2.194 5.769-1.712.724.153 1.415.39 2.142.69-.61-1.201-1.977-1.939-3.304-1.875-1.46.069-2.817.51-4.165.96-1.338.446-2.628.439-3.963-.01-1.255-.422-2.532-.791-3.868-.962-1.695-.216-3.247.717-3.916 1.888a14.06 14.06 0 012.179-.698c2.308-.515 4.48.155 5.777 1.789a.919.919 0 01.21.639c-.036 1.68-.16 3.355-.275 5.03a66.144 66.144 0 01-.48 4.464c-.215 1.575-.406 3.15-.622 4.724-.05.372-.052.755-.206 1.154l-.003-.001zm-4.64-14.738c-.02.792.603 1.417 1.433 1.437.866.022 1.539-.544 1.566-1.313.027-.812-.598-1.442-1.451-1.462-.845-.02-1.53.571-1.547 1.338h-.002zm14.348-1.3c-.852-.002-1.51.589-1.517 1.365-.006.793.663 1.416 1.518 1.411.839-.005 1.492-.614 1.495-1.394.003-.777-.65-1.38-1.496-1.383zm5.182-7.078c.76-.41 1.4-.924 1.788-1.652.421-.793.32-1.552-.299-2.22-.646-.693-1.466-1.007-2.46-.772-.711.166-1.8.986-2.21 1.647.154-.094.268-.164.382-.232.521-.31.995-.69 1.578-.907.76-.283 1.432-.132 2.025.38.6.516.793 1.11.496 1.834-.197.48-.49.905-.811 1.319-.159.203-.326.401-.49.602v.001zM4.4 6.194c-.017-.218-.146-.29-.226-.387-.452-.551-.899-1.105-1.128-1.775-.211-.616-.071-1.157.416-1.62.503-.475 1.085-.735 1.829-.575.612.132 1.071.513 1.586.804.189.108.34.288.678.322-.597-.639-1.188-1.159-1.959-1.459-1.469-.57-3.27.546-3.225 2.018.039 1.264 1.037 1.933 2.031 2.674L4.4 6.194z" fill="#A5A5A5"/><path d="M32.603 6.48c.09.728.182 1.358.245 1.99.136 1.413.268 2.825.383 4.24.062.779.114 1.56.125 2.339.02 1.613.06 3.226-.16 4.833a38.848 38.848 0 01-1.257 5.839c-.06.197-.162.235-.356.235-2.731-.003-5.46-.005-8.192 0-.224 0-.335-.016-.266-.277.427-1.591.906-3.164 1.645-4.662.582-1.179 1.508-2.13 2.37-3.125.934-1.078 1.896-2.153 2.289-3.518.337-1.173.416-2.385.465-3.595.02-.48.054-.961.068-1.443a.435.435 0 01.145-.31l2.496-2.546zM4.043 30.035a6.131 6.131 0 01-1.466-1.556c-.248-.376-.413-.791-.577-1.208-.114-.29-.077-.375.28-.373 1.966.014 3.93.006 5.896.006.693 0 1.385-.002 2.078.001.132 0 .3-.048.35.136.176.667.321 1.337.193 2.126A14.293 14.293 0 009.433 27.7c-.243-.23-.331-.188-.42.097-.137.437-.299.866-.464 1.337-.648-.437-1.18-.942-1.704-1.54-.21.65-.4 1.248-.6 1.871a12.533 12.533 0 01-2.35-1.967c-.026.872.113 1.647.146 2.537h.002zm27.436-3.142c-.304 1.18-.96 2.115-1.864 2.915-.057.051-.115.137-.21.095-.1-.046-.045-.136-.04-.209.05-.712.097-1.426.145-2.143-.178.006-.238.146-.324.236-.532.563-1.163 1.024-1.79 1.492-.195.146-.288.154-.36-.101-.147-.523-.322-1.04-.503-1.612a8.2 8.2 0 01-1.697 1.543l-.597-1.655c-.612.487-1.125 1.031-1.648 1.68-.122-.773 0-1.44.179-2.104.042-.158.182-.137.307-.137h8.402zm-14.844 2.463c-.665 0-1.328.003-1.992-.003-.12 0-.33.06-.268-.175.224-.84.487-1.672 1.275-2.229.832-.587 1.867-.413 2.518.402.42.524.604 1.135.75 1.762.058.25-.107.244-.29.244h-1.991l-.002-.001zm-6.133-14.125c-.418.01-.75-.29-.752-.684-.003-.39.326-.704.739-.704.391 0 .718.3.73.67.014.4-.295.707-.717.718zm13.562-.711c-.007.388-.347.685-.766.672-.406-.014-.715-.305-.715-.678 0-.392.319-.687.746-.686.428 0 .744.297.737.694l-.002-.002zm6.856 20.566a1.93 1.93 0 00-.875.194 1.78 1.78 0 00-.637.557 2.526 2.526 0 00-.398.864 4.845 4.845 0 00-.125 1.149c0 .576.068 1.069.205 1.478.144.402.368.709.67.92.304.213.69.32 1.16.32.334 0 .664-.039.99-.114a9.779 9.779 0 001.08-.319v1.444c-.356.144-.709.25-1.057.319-.349.068-.74.102-1.171.102-.834 0-1.524-.17-2.07-.512a3.102 3.102 0 01-1.194-1.455c-.258-.63-.387-1.36-.387-2.195 0-.614.084-1.175.25-1.683.167-.515.41-.959.728-1.33a3.34 3.34 0 011.194-.864c.478-.205 1.024-.307 1.638-.307.402 0 .803.053 1.205.159.41.098.8.235 1.171.41l-.557 1.398a8.714 8.714 0 00-.92-.376 2.708 2.708 0 00-.9-.159zm-4.793 6.8h-4.674v-8.12h4.674v1.41H23.17v1.786h2.752v1.41H23.17v2.092h2.957v1.422zm-6.381 0h-1.717v-6.687h-1.99l-.148 1.137c-.045.41-.098.827-.16 1.251-.052.417-.11.815-.17 1.194-.06.372-.121.701-.182.99a5 5 0 01-.398 1.205 1.749 1.749 0 01-.67.762c-.281.174-.649.261-1.104.261a2.632 2.632 0 01-.818-.125v-1.41c.098.03.193.057.284.08.098.022.205.034.318.034.152 0 .277-.05.376-.148.098-.099.185-.265.261-.5.076-.243.152-.577.228-1.001.037-.182.083-.44.136-.773.053-.341.114-.74.182-1.194a67.571 67.571 0 00.444-3.196h5.128v8.12zm-7.773 0H7.3v-8.12h4.673v1.41H9.018v1.786h2.752v1.41H9.017v2.092h2.957v1.422zm-9.449-8.12c.72 0 1.323.069 1.809.205.492.129.86.345 1.103.648.25.296.375.698.375 1.206 0 .303-.05.58-.148.83-.099.25-.243.454-.432.614a1.347 1.347 0 01-.671.307v.057c.273.053.52.147.74.284.219.136.393.333.522.591.13.258.193.6.193 1.024 0 .492-.12.917-.363 1.273-.235.349-.577.618-1.024.808-.447.181-.978.273-1.592.273H0v-8.12h2.524zm.194 3.218c.5 0 .845-.08 1.035-.238.197-.16.295-.39.295-.694 0-.31-.113-.535-.34-.67-.228-.137-.588-.206-1.081-.206h-.91v1.808h1zm-1 1.365v2.115h1.125c.515 0 .875-.099 1.08-.296.205-.204.307-.473.307-.807 0-.205-.045-.383-.136-.534-.084-.152-.232-.27-.444-.353-.212-.083-.5-.125-.864-.125H1.717z" fill="#A5A5A5"/></svg>