<svg width="82" height="50" viewBox="0 0 82 50" fill="none" xmlns="http://www.w3.org/2000/svg"><g clip-path="url(#clip0_4917_5737)" fill="#A5A5A5"><path d="M29.265 47.697c-.011.096-.023.17-.039.221-.018.054-.038.139-.068.256a.648.648 0 01-.137.286c-.062.074-.137.164-.228.27a1.017 1.017 0 01-.347.26 6.545 6.545 0 01-.477.207 2.776 2.776 0 01-.641.154 6.474 6.474 0 01-.817.047h-1.793v-8.446h1.442v-.117h-4.105v.117h1.373v8.446h-1.373v.121h7.352v-1.978h-.126a.994.994 0 01-.016.156zm5.195-5.249l1.687 4.333h-3.41l1.722-4.333zm-1.734 4.386v.064h3.466l.22.558c.145-.29.35-.595.615-.916a4.57 4.57 0 01.224-.256l-2.159-5.45h-.136l-3.387 8.563h-1.18v.122h2.518v-.121h-1.202l1.021-2.564zm-11.301.863a1.31 1.31 0 01-.038.221c-.019.054-.04.139-.069.256a.648.648 0 01-.137.286 18.14 18.14 0 01-.228.27 1.04 1.04 0 01-.347.26 6.564 6.564 0 01-.477.207 2.777 2.777 0 01-.64.154 6.472 6.472 0 01-.818.047h-1.793v-8.446h1.442v-.117h-4.105v.117h1.373v8.446h-1.373v.121h7.352v-1.978h-.126c.003.007-.004.06-.016.156zM9.804 40.952h1.312v8.452H9.804v.115h3.92v-.115h-1.366v-8.452h1.367v-.117H9.804v.117zm-3.391 0h1.151L4.926 47.91l-2.6-6.96h1.15v-.117H0v.118h1.076l3.244 8.567h.12l3.252-8.567h1.13v-.117h-2.41v.117zm31.389 7.603c-.34.382-.658.595-.967.657l.082.197H35.78v.11h3.431v-.11h-1.057l-.352-.854zm28.856-7.721h-2.545v.118h1.215l-2.784 6.959-2.745-6.96h1.216v-.117h-3.67v.118h1.136l3.424 8.567h.126l3.435-8.567h1.192v-.117zm14.54 4.84a1.808 1.808 0 00-.735-.71 5.776 5.776 0 00-.989-.396 16.33 16.33 0 00-1.081-.287 7.568 7.568 0 01-.993-.298 1.68 1.68 0 01-.731-.527c-.187-.235-.28-.533-.28-.888 0-.313.104-.606.318-.877.214-.271.472-.464.78-.58a2.52 2.52 0 01.884-.157c1.368 0 2.152.772 2.355 2.32h.126v-2.44h-.126c0 .23-.181.345-.539.345a2.01 2.01 0 01-.775-.162 2.618 2.618 0 00-1-.183c-.427 0-.811.084-1.158.246a2.391 2.391 0 00-1.021.877 2.21 2.21 0 00-.374 1.222c0 .432.093.83.28 1.137.188.309.429.537.724.689.296.15.627.277.983.382.357.105.72.203 1.081.298.362.094.69.203.989.33.298.125.538.322.724.589.187.266.28.6.28 1.003.007.626-.27 1.102-.823 1.42-.45.253-1.044.377-1.78.377-.734 0-1.339-.23-1.844-.685-.506-.453-.757-.976-.757-1.561v-.26h-.121v2.621h.12v-.073l.012.073c0-.256.21-.386.62-.386.274 0 .554.052.841.161.351.152.73.225 1.137.225 1.207 0 2.052-.33 2.542-.993.406-.485.61-1.049.61-1.691.001-.456-.093-.842-.28-1.16zm-28.264-4.722h1.312v8.452h-1.312v.115h3.92v-.115h-1.366v-8.452h1.367v-.117h-3.921v.117z"/><path d="M51.586 42.11c-.896-.85-1.99-1.276-3.286-1.276h-4.187v.107h1.384v1.194c.228-.226.45-.389.67-.493.22-.111.43-.173.623-.19v-.504h1.312c.572 0 1.067.085 1.486.25.42.164.744.377.976.632.233.256.415.578.545.971.13.393.217.771.249 1.132.034.36.045.781.039 1.26a8.604 8.604 0 01-.137 1.71 4.13 4.13 0 01-.493 1.322 2.25 2.25 0 01-1.01.903c-.442.207-.98.308-1.617.308l.018-.017H46.79v-5.25c-.234.328-.52.686-.855 1.08-.148.172-.294.34-.438.503v1.239a.487.487 0 01.194-.096l.044-.011h.043c.248 0 .429.173.429.412a.48.48 0 01-.078.27 4.519 4.519 0 01-.438.586 4.244 4.244 0 01-.194.216v1.04h-1.384v.111H48.3c1.277 0 2.364-.42 3.274-1.264.908-.846 1.362-1.864 1.362-3.06l-.007-.01c0-1.2-.447-2.226-1.343-3.076zm21.577 3.335c0 .398-.006.716-.017.954-.01.239-.043.53-.092.869-.049.339-.119.615-.217.826a2.563 2.563 0 01-.422.63 1.858 1.858 0 01-.676.478 3.588 3.588 0 01-1.168.202 3.317 3.317 0 01-1.143-.202 1.863 1.863 0 01-.676-.467 2.447 2.447 0 01-.422-.62 3.164 3.164 0 01-.226-.826 7.799 7.799 0 01-.098-.873 21.646 21.646 0 01-.018-.954l.011-.01v-.403c0-.513.017-.958.055-1.342.039-.38.108-.758.217-1.133.11-.374.27-.688.487-.932.218-.243.487-.42.812-.53.346-.1.68-.154 1.007-.154.363 0 .713.053 1.055.164.32.117.585.296.796.54.212.244.368.553.47.923.102.37.174.748.211 1.122.037.377.054.822.054 1.336v.402zm-.55-3.99a3.55 3.55 0 00-2.034-.62 3.51 3.51 0 00-1.614.38 3.92 3.92 0 00-1.25.99 4.55 4.55 0 00-.78 1.39 4.698 4.698 0 00-.276 1.584c0 .747.163 1.446.487 2.104.324.658.79 1.192 1.397 1.61.607.42 1.283.626 2.03.626l.006-.026c.585 0 1.127-.127 1.623-.38a3.81 3.81 0 001.24-.991c.33-.409.59-.869.779-1.382.189-.513.28-1.04.28-1.574a4.69 4.69 0 00-.487-2.104 4.075 4.075 0 00-1.4-1.608z"/><path d="M38.393 46.625a4.75 4.75 0 01-.295.542c-.124.205-.23.378-.32.517a2.153 2.153 0 01-.21.294c-.28.355-.515.53-.703.53-.124 0-.185-.088-.185-.259 0-.329.194-.738.58-1.226.386-.487.744-.73 1.074-.73.083 0 .126.013.135.036l.013.013c.009 0 .013.008.013.025-.004.04-.037.125-.102.258zm1.233-2.579c.502-1.28.958-1.92 1.368-1.92.148 0 .223.087.223.258 0 .724-.8 2.117-2.392 4.183a18.15 18.15 0 01.8-2.52zm1.346 2.65c.23-.36.41-.542.544-.542.098 0 .148.048.148.142 0 .188-.135.409-.408.66-.23.22-.452.374-.666.46.048-.182.175-.42.382-.72zm2.444-.27c.125-.347.33-.783.616-1.308.246-.455.502-.876.764-1.262.264-.394.493-.715.691-.965.345-.44.638-.66.876-.66.107 0 .159.074.159.222 0 .11-.037.28-.111.507-.157.471-.633 1.232-1.432 2.287-.353.48-.692.899-1.01 1.261a7.148 7.148 0 01-.815.814c.062-.253.147-.55.262-.897zm1.332 2.038c.18-.156.34-.323.48-.494a4.23 4.23 0 00.395-.542.155.155 0 00.026-.094c0-.054-.026-.083-.074-.083-.033.008-.061.031-.088.07-.329.464-.65.824-.962 1.085-.303.252-.572.377-.8.377-.23 0-.392-.066-.48-.2-.093-.142-.136-.346-.136-.613v-.188l.024-.2c.362-.323.735-.684 1.121-1.084.387-.409.79-.863 1.21-1.368 1.06-1.272 1.59-2.178 1.59-2.72a.516.516 0 00-.135-.32c-.083-.102-.177-.152-.284-.152-.157 0-.334.05-.53.152a2.14 2.14 0 00-.615.484c-.131.142-.293.325-.48.555-.19.227-.382.48-.58.755-.19.266-.363.537-.518.813-.164.298-.345.625-.544.977a8.296 8.296 0 00-.506 1.085 3.39 3.39 0 00-.183.798c-.122.15-.258.313-.413.488-.172.188-.362.35-.567.484-.205.133-.432.2-.679.2-.196 0-.34-.075-.432-.223a.924.924 0 01-.135-.494c0-.134.017-.252.05-.355.14-.048.292-.125.456-.235a3.63 3.63 0 00.493-.378c.387-.346.58-.64.58-.884 0-.11-.032-.191-.097-.248a.293.293 0 00-.21-.083c-.214 0-.423.07-.628.212a2.63 2.63 0 00-.568.543 3.068 3.068 0 00-.395.706 1.944 1.944 0 00-.14.534c-.052.059-.109.123-.17.196-.33.377-.58.565-.753.565-.264 0-.395-.298-.395-.894 0-.253.024-.511.075-.778 1.966-2.208 2.948-3.724 2.948-4.547 0-.378-.172-.566-.517-.566-.535 0-1.08.551-1.641 1.65-.173.338-.334.702-.48 1.096a21.7 21.7 0 00-.433 1.272 1.355 1.355 0 00-.091-.004c-.225 0-.454.075-.685.227-.265.165-.53.418-.801.755-.52.636-.78 1.2-.78 1.685 0 .267.127.4.382.4.437 0 .976-.546 1.615-1.636-.05.258-.074.487-.074.683 0 .622.214.932.642.932.382 0 .768-.237 1.159-.71.028.264.128.458.299.581.205.15.443.223.715.223.304 0 .572-.079.801-.235a2.92 2.92 0 00.616-.565l.237-.294c0 .066.005.133.012.2.017.07.028.142.037.212.106.511.381.766.827.766.196 0 .395-.05.591-.152.207-.109.415-.247.618-.422z"/></g><path d="M40.59 0c-3.81 0-8.279 1.314-9.11 6.316-5.003.832-6.019 5.303-6.02 9.11.001 4.045 1.491 7.864 6.217 8.91 1.047 4.727 5.008 6.218 8.913 6.218 3.807 0 8.276-1.018 9.108-6.02 5.002-.832 6.316-5.302 6.316-9.109 0-4.203-1.788-7.865-6.514-8.911C48.454 1.788 44.742 0 40.59 0zm0 2.967c4.495 0 6.822 0 8.222 3.418a15.152 15.152 0 00-2.323-.179l-5.174-.023.003.54 1.664.007.016 3.575-4.864-.022-.013-3.56 1.687.007-.002-.54-5.804-.026c-.442-.002-1.457.021-1.862.063 1.079-3.716 4.887-3.26 8.45-3.26zm8.425 4.031c.17.627.248 1.32.251 2.074l.006 1.26-3.575-.016-.016-3.574 1.26.006c.755.003 1.447.082 2.075.25zm-6.005 6.006l.022 4.864-4.865-.021-.021-4.865 4.864.022zm-7.576-2.733l-3.583-.013-.004-1.058c-.003-.664.051-1.843.15-2.366.524-.1 1.703-.154 2.366-.15l1.058.004.013 3.583zm-7.303 5.154c0-3.564-.457-7.37 3.259-8.449-.042.406-.064 1.42-.062 1.862l.026 5.804.54.002-.008-1.687 3.56.013.022 4.864-3.574-.015-.008-1.665-.54-.003.023 5.174c.004.847.067 1.617.18 2.323-4.011-1.104-3.418-3.653-3.418-8.223zm7.35 5.109l.015 3.574-1.26-.005c-.754-.004-1.447-.083-2.074-.25-.168-.628-.247-1.32-.25-2.075l-.006-1.26 3.574.016zm5.108 7.35c-4.572 0-6.822-.593-8.224-3.419.706.113 1.477.175 2.323.18l5.174.022-.002-.54-1.665-.007-.016-3.574 4.865.021.013 3.561-1.688-.008.003.54 5.804.026c.441.002 1.456-.02 1.861-.062-1.328 3.556-5.184 3.26-8.448 3.26zm5.154-7.305l3.583.014.005 1.057c.003.664-.051 1.843-.15 2.366-.524.1-1.703.154-2.367.15l-1.057-.004-.014-3.582zm7.305-5.154c0 3.564.455 7.37-3.26 8.449.041-.405.064-1.42.062-1.861l-.026-5.805-.54-.002.008 1.687-3.56-.013-.023-4.864 3.575.016.007 1.665.54.002-.023-5.174a15.162 15.162 0 00-.18-2.323c3.42 1.104 3.42 3.728 3.42 8.223z" fill="#A5A5A5"/><defs><clipPath id="clip0_4917_5737"><path fill="#fff" transform="translate(0 40.834)" d="M0 0h81.476v9.166H0z"/></clipPath></defs></svg>