<svg width="51" height="50" viewBox="0 0 51 50" fill="none" xmlns="http://www.w3.org/2000/svg"><g clip-path="url(#clip0_4917_5672)"><path d="M19.902 47.778h-.614v.968h.614c.289 0 .506-.18.506-.466.036-.323-.18-.502-.506-.502zm.036 1.218h-.65V50h-.253v-2.437h.903c.434 0 .759.287.759.717s-.325.716-.759.716zM3.576 36.953L0 31.183h1.3l2.854 4.552 2.78-4.552h1.301l-3.54 5.77v5.27h-1.12v-5.27zm13.508-3.405l-1.914 4.015h3.828l-1.914-4.015zm.108-2.365l5.201 11.04h-1.192l-1.77-3.62h-4.767l-1.734 3.62h-1.228l5.237-11.04h.253zm11.992 1.075v3.764h1.842c.975 0 1.698-.108 2.204-.466.397-.323.65-.86.65-1.434 0-1.075-.759-1.864-2.42-1.864h-2.276zm-1.12-1.075h2.565c1.156 0 2.059.072 2.6.287 1.156.43 1.843 1.433 1.843 2.652 0 .538-.073.86-.326 1.362-.577 1.147-1.697 1.613-3.54 1.613l4.01 5.125h-1.373l-4.009-5.125h-.65v5.125h-1.12v-11.04zm16.29 9.964c2.095 0 3.504-.18 4.48-1.398.65-.752.974-1.756.974-2.939 0-1.111-.325-2.115-.939-2.939-1.047-1.362-2.636-1.649-5.056-1.649h-1.12v8.889h1.661v.036zm-2.745-9.964h2.745c1.228 0 2.348.072 3.468.502C49.808 32.473 51 34.409 51 36.81c0 3.154-1.914 5.412-5.49 5.412h-3.9v-11.04zM31.46 0L20.552 9.964l-.795 13.154-.722-13.154L8.127 0l11.666 8.387L31.46 0z" fill="#5F5F5F"/><path d="M19.83 23.118l11.052-9.82L31.567 0l.578 13.297 11.052 9.821-11.703-8.53-11.666 8.53z" fill="#A5A5A5"/><path d="M2.132 50c-.362 0-.615-.108-.831-.323l.18-.179c.217.215.398.251.65.251.362 0 .578-.18.578-.466 0-.143-.036-.25-.108-.286-.072-.072-.144-.072-.325-.108l-.289-.036c-.18-.036-.361-.108-.433-.18a.616.616 0 01-.181-.465c0-.394.289-.681.795-.681.325 0 .505.071.722.25l-.18.18c-.145-.143-.326-.215-.578-.215-.326 0-.506.18-.506.466 0 .108.036.215.108.287.072.071.217.107.325.143l.253.036c.217.036.361.071.434.179a.576.576 0 01.216.466c0 .43-.325.681-.83.681zm3.286-2.079l-.47 1.29h.903l-.433-1.29zm.722 2.08l-.18-.538H4.875l-.18.537h-.29l.903-2.437h.217L6.429 50h-.29zm2.131-2.438H8.02V50h.252v-2.437zM11.739 50l-1.3-1.971V50h-.254v-2.437h.253l1.3 1.935v-1.935h.254V50h-.253zm2.853-2.222V50h-.252v-2.222h-.687v-.215h1.662v.215h-.723zM22.394 50v-2.437h1.517v.215h-1.265v.86h1.084v.251h-1.084v.86h1.265V50h-1.517zm3.973-2.222V50h-.253v-2.222h-.722v-.215h1.697v.215h-.722zM28.751 50v-2.437h1.517v.215h-1.264v.86h1.047v.251h-1.047v.86h1.264V50h-1.517zm4.153-2.222h-.65v.896h.65c.289 0 .47-.144.47-.43.036-.287-.181-.466-.47-.466zM33.41 50l-.542-1.075h-.578V50h-.253v-2.437h.94c.433 0 .722.25.722.68 0 .36-.217.574-.542.646L33.735 50h-.325zm2.673 0c-.361 0-.614-.108-.831-.323l.18-.179c.217.215.398.251.65.251.362 0 .579-.18.579-.466 0-.143-.037-.25-.109-.286-.072-.072-.144-.072-.325-.108l-.289-.036c-.18-.036-.361-.108-.433-.18a.616.616 0 01-.18-.465c0-.394.288-.681.794-.681.325 0 .505.071.722.25l-.18.18c-.145-.143-.325-.215-.578-.215-.325 0-.506.18-.506.466 0 .108.036.215.108.287.073.071.217.107.325.143l.253.036c.217.036.361.071.434.179a.576.576 0 01.216.466c0 .43-.325.681-.83.681zm3.503-1.147h-.65v.896h.65c.29 0 .506-.18.506-.43 0-.287-.18-.466-.506-.466zm-.036-1.075h-.65v.824h.65c.29 0 .47-.143.47-.43.036-.25-.18-.394-.47-.394zM39.623 50h-.975v-2.437h.902c.434 0 .723.25.723.645 0 .25-.145.466-.362.538a.594.594 0 01.398.573c.036.43-.253.681-.686.681zm3.358 0c-.506 0-.867-.323-.867-.824v-1.613h.253v1.613c0 .358.217.609.578.609s.578-.25.578-.61v-1.612h.253v1.613c.036.501-.325.824-.795.824zm3.649-2.222h-.65v.896h.65c.288 0 .469-.144.469-.43 0-.287-.18-.466-.47-.466zM47.098 50l-.542-1.075h-.578V50h-.252v-2.437h.939c.433 0 .722.25.722.68 0 .36-.217.574-.542.646L47.424 50h-.325zm3.469-.287a.908.908 0 01-.65.287c-.253 0-.47-.072-.614-.25-.217-.216-.217-.467-.217-.968 0-.502 0-.753.217-.968a.85.85 0 01.614-.251c.47 0 .794.287.867.717h-.253c-.073-.323-.29-.502-.578-.502a.67.67 0 00-.434.179c-.144.143-.18.323-.18.825 0 .501 0 .68.18.824a.6.6 0 00.434.179c.18 0 .361-.072.47-.215.108-.107.144-.251.144-.43v-.18h-.614v-.214h.867v.394c-.036.25-.108.43-.253.573z" fill="#5F5F5F"/></g><defs><clipPath id="clip0_4917_5672"><path fill="#fff" d="M0 0h51v50H0z"/></clipPath></defs></svg>